<?xml version="1.0" standalone="no"?>
<!DOCTYPE svg PUBLIC "-//W3C//DTD SVG 1.1//EN" "http://www.w3.org/Graphics/SVG/1.1/DTD/svg11.dtd" >
<svg xmlns="http://www.w3.org/2000/svg" xmlns:xlink="http://www.w3.org/1999/xlink" version="1.1">
<metadata>
Created by FontForge 20201107 at Thu Sep  8 17:09:50 2022
 By Jimmy Wärting
Vadym Aksieiev(c)
</metadata>
<defs>
<font id="NeutralFaceRegular" horiz-adv-x="799" >
  <font-face 
    font-family="Neutral Face"
    font-weight="400"
    font-stretch="normal"
    units-per-em="1000"
    panose-1="0 0 0 0 0 0 0 0 0 0"
    ascent="800"
    descent="-200"
    cap-height="809.83"
    bbox="-113.439 -210 1833.88 1050.94"
    underline-thickness="0"
    underline-position="0"
    unicode-range="U+000A-F00D"
  />
<missing-glyph horiz-adv-x="527" 
d="M50 700h427v-700h-427v700zM78 680l185 -309l186 309h-371zM251 350l-180 300v-601zM264 329l-185 -308h370zM276 350l181 -303v605z" />
    <glyph glyph-name="hyphengreater.liga" unicode="&#x2d;&#x3e;" horiz-adv-x="1136" 
d="M1081.56 447.51l0.0205078 -80.7295s-302.24 -14.0898 -302.24 -281.78h-79s-24.6299 132.6 120.26 281.76l0.0195312 0.0195312h-766.62v80.7305h766.58c-144.89 149.18 -120.26 281.76 -120.26 281.76h79.0098c0 -267.35 302.23 -281.76 302.23 -281.76z" />
    <glyph glyph-name="lesshyphen.liga" unicode="&#x3c;&#x2d;" horiz-adv-x="1136" 
d="M54 366.76l-0.000976562 80.7285s302.24 14.0898 302.24 281.78h79s24.6104 -132.58 -120.26 -281.76l-0.0195312 -0.0195312h766.62v-80.7305h-766.6c144.89 -149.18 120.26 -281.76 120.26 -281.76h-79c0 267.36 -302.24 281.761 -302.24 281.761z" />
    <glyph glyph-name=".notdef" horiz-adv-x="527" 
d="M50 700h427v-700h-427v700zM78 680l185 -309l186 309h-371zM251 350l-180 300v-601zM264 329l-185 -308h370zM276 350l181 -303v605z" />
    <glyph glyph-name=".null" horiz-adv-x="0" 
 />
    <glyph glyph-name=".null" horiz-adv-x="0" 
 />
    <glyph glyph-name="controlLF" unicode="&#xa;" horiz-adv-x="0" 
 />
    <glyph glyph-name="controlCR" unicode="&#xd;" horiz-adv-x="0" 
 />
    <glyph glyph-name="space" unicode=" " horiz-adv-x="376" 
 />
    <glyph glyph-name="exclam" unicode="!" horiz-adv-x="195" 
d="M119.23 227.83h-45.1611l-26.8896 582h98.8604zM150.209 0h-107.21v110.02h107.21v-110.02z" />
    <glyph glyph-name="quotedbl" unicode="&#x22;" horiz-adv-x="380" 
d="M218.38 810.25l107.19 0.000976562v-110c-0.480469 -72.0098 -61.79 -110.66 -123.58 -96.2402v34.5195c46.8701 -11.96 84.2598 18.2598 87.3096 61.7002h-70.9199v110.02zM70.3701 700.231v110.02h107.21v-110.02
c-0.480469 -72.0098 -61.7803 -110.66 -123.57 -96.2402v34.5303c46.8604 -11.9502 84.2402 18.2695 87.2803 61.71h-70.9199z" />
    <glyph glyph-name="numbersign" unicode="#" horiz-adv-x="919" 
d="M830.32 205.21l-198.638 -0.000976562l-58.8896 -205.21h-82.2197l58.8799 205.21h-230.11l-58.8799 -205.21h-82.2305l58.8896 205.21h-183.12l18.96 59.8701h181.04l73.7695 257.95h-213.44l19.96 60.9004h211.96l63.9902 225.44h82.6904l-64.0303 -225.44h229.06
l64.6396 225.44h82.6699l-64.4902 -225.46h169.67l-20.0498 -60.9004h-168.07l-73.7695 -257.95h200.81zM566.312 265.079l73.79 257.95h-230.11l-73.7695 -257.95h230.09z" />
    <glyph glyph-name="dollar" unicode="$" horiz-adv-x="623" 
d="M586.08 223.14c0 -100.34 -51.8174 -226.091 -244.907 -238.11v-131.03h-81.9404v133.76c-157.15 22.3398 -224.23 145.899 -224.23 253.18h82.0098c0 -85.54 70.7305 -175.28 202.08 -175.28c142.58 0 185.47 82.0703 185.47 166.95
c0 228.36 -448.82 49.5703 -448.82 380.03c0 107.46 64.3896 194.71 203.489 210.72v148h81.9404v-146.92c138.36 -13.4199 208.87 -108.03 208.87 -236.83h-82.1104c0 89.2402 -66.5703 156.24 -161.351 156.24c-99.7002 0 -168.63 -46.1504 -168.63 -134.5
c0 -239.97 448.13 -59.5293 448.13 -386.209z" />
    <glyph glyph-name="percent" unicode="%" horiz-adv-x="914" 
d="M608.06 810h91.1992l-392.01 -809.62h-91.2197zM399.409 621.97c0 -141.01 -95.0303 -204.13 -189.2 -204.13c-94.1797 0 -189.21 63.1201 -189.21 204.13c0 120.31 77.8096 204.34 189.21 204.34c113.17 0 189.2 -82.1201 189.2 -204.34zM210.209 498.79
c35.3896 0 94.7998 16.0098 94.7803 123.319c0 56.25 -16.4404 123.29 -94.7803 123.29c-63.7803 0 -94.7998 -40.3301 -94.7998 -123.29c0 -56.2598 16.4297 -123.319 94.7998 -123.319zM703.789 392.45c113.17 0 189.19 -82.0996 189.2 -204.34
c0 -140.99 -95.0303 -204.11 -189.2 -204.11c-94.1797 0 -189.21 63.1201 -189.21 204.11c0 120.31 77.7998 204.34 189.21 204.34zM703.79 64.9307c35.4004 0 94.7803 16.0098 94.7803 123.319c0 56.25 -16.4404 123.29 -94.7803 123.29
c-63.7803 0 -94.7998 -40.3301 -94.7998 -123.29c0 -56.2598 16.4297 -123.319 94.7998 -123.319z" />
    <glyph glyph-name="ampersand" unicode="&#x26;" horiz-adv-x="735" 
d="M26 198.81c0 122.11 86.54 188.439 161.89 232.579l42.6504 27l-11.5098 14.0498c-51.4502 74.7402 -76.8506 144.08 -57.0811 225.92c15.1699 62.75 63.8701 127.97 170.7 127.97c15 0 31.0801 -1.42969 47.8105 -4.23926
c97.8496 -16.2402 148.609 -97.2402 132.709 -182.05c-15.5801 -83.0596 -64.9697 -140.04 -126.779 -174.87l-38.6201 -24.1602l190.53 -221.63l6.33008 11.3701c2.38965 4.28027 56.0898 101.05 67.3496 161.95h80.0498
c-32.5801 -144.85 -98.0703 -227.359 -98.7305 -228.22l-4.59961 -5.67969l126.98 -158.24h-115.6l-68.5303 93s-96.6396 -109.56 -266.01 -109.56c-196.5 0 -239.54 155.05 -239.54 214.81zM236.8 691.608c-35.71 -95.7598 67.9189 -197.809 67.9189 -197.809
s104.45 38.25 139.24 129.33c22.1299 57.9199 -5.42969 117.89 -71.2393 137.939c-43.2002 13.1797 -110.22 -0.550781 -135.92 -69.4609zM246.779 386.629c-48.5098 -29.7402 -138.75 -85.1006 -138.73 -181.271c0 -46.1797 28.1299 -96.2695 70.0098 -124.67
c24.3301 -16.4902 60.1904 -24.8604 106.591 -24.8604c113.8 0 195.76 98.1504 195.76 98.1504l-205.61 249.9z" />
    <glyph glyph-name="quotesingle" unicode="'" horiz-adv-x="232" 
d="M70.3604 810.25h107.21v-110.02c-0.480469 -72.0098 -61.7803 -110.66 -123.57 -96.2402v34.5303c46.8701 -11.9502 84.2402 18.2695 87.2803 61.71h-70.9199v110.02z" />
    <glyph glyph-name="quotesingle" unicode="&#x2019;" horiz-adv-x="232" 
d="M70.3604 810.25h107.21v-110.02c-0.480469 -72.0098 -61.7803 -110.66 -123.57 -96.2402v34.5303c46.8701 -11.9502 84.2402 18.2695 87.2803 61.71h-70.9199v110.02z" />
    <glyph glyph-name="quotesingle" unicode="&#x2018;" horiz-adv-x="232" 
d="M70.3604 810.25h107.21v-110.02c-0.480469 -72.0098 -61.7803 -110.66 -123.57 -96.2402v34.5303c46.8701 -11.9502 84.2402 18.2695 87.2803 61.71h-70.9199v110.02z" />
    <glyph glyph-name="parenleft" unicode="(" horiz-adv-x="454" 
d="M316.6 -174c-264.44 272.48 -466.14 700.84 13.4902 1224.94l70.1797 -1.09961c-141.97 -183.58 -259.45 -379.37 -273.771 -571.41c-17.2002 -230.87 96.0098 -449.89 266.49 -652.43h-76.3896z" />
    <glyph glyph-name="parenright" unicode=")" horiz-adv-x="455" 
d="M124.17 1050.94c479.62 -524.1 277.941 -952.459 13.501 -1224.94h-76.3896c170.46 202.54 283.67 421.56 266.47 652.43c-14.3203 192.04 -131.801 387.83 -273.751 571.41z" />
    <glyph glyph-name="asterisk" unicode="*" horiz-adv-x="393" 
d="M366.56 659.17l-130.81 -39.9189l84.4004 -119.94l-40.2002 -28.3096l-84.6904 120.28l-84.6602 -120.28l-40.2305 28.3096l84.7803 120.44l-129.15 39.3896l14.3701 47.0596l126.01 -38.4404v142.16h58.8701v-142.45l126.94 38.7305z" />
    <glyph glyph-name="plus" unicode="+" horiz-adv-x="526" 
d="M505.62 482.42v-79.2197h-201.85v-203.2h-81.7305v203.2h-202.04v79.2197h202.04v203.2h81.7305v-203.2h201.85z" />
    <glyph glyph-name="comma" unicode="," horiz-adv-x="232" 
d="M70.3604 110.25h107.21v-110.02c-0.480469 -72.0098 -61.7803 -110.66 -123.57 -96.2402v34.5303c46.8701 -11.9502 84.2402 18.2695 87.2803 61.71h-70.9199v110.02z" />
    <glyph glyph-name="hyphen" unicode="-" horiz-adv-x="432" 
d="M409.53 403h-387.53v79.1299h387.53v-79.1299z" />
    <glyph glyph-name="period" unicode="." horiz-adv-x="158" 
d="M132.21 0h-107.21v110.02h107.21v-110.02z" />
    <glyph glyph-name="slash" unicode="/" horiz-adv-x="590" 
d="M446.03 809.62h90.3193l-392.02 -809.62h-90.3301z" />
    <glyph glyph-name="zero" unicode="0" horiz-adv-x="691" 
d="M345.16 826.33c199.89 0 306.15 -157.438 306.15 -421.169c0 -267.37 -105.84 -421.16 -306.149 -421.16c-198.15 0 -306.16 153.27 -306.16 421.159c0 259.79 107.6 421.17 306.159 421.17zM345.161 66.1221c128.29 0 224.03 85.6104 224.03 339.04
c0 249.91 -95.7402 339.05 -224.03 339.05c-125.11 0 -224.04 -90.9199 -224.04 -339.05c0 -254.23 98.9297 -339.04 224.04 -339.04z" />
    <glyph glyph-name="one" unicode="1" horiz-adv-x="572" 
d="M517.71 0l-493.709 -0.000976562v82.1201l227.52 -0.519531v633.95l-213.83 -138.8l0.360352 93.7002l215.77 139.38h82.1797v-727.71h181.71v-82.1201z" />
    <glyph glyph-name="two" unicode="2" horiz-adv-x="612" 
d="M303.26 826.14c181.34 0 262.197 -104.359 262.197 -244.939c0 -126.88 -71.9697 -206.26 -220.479 -240.91c-140.25 -32.7305 -204.62 -13.8203 -204.62 -258.69h436.51v-81.5996h-518.49c-0.179688 41.7598 -1.0293 35.8799 -1.0293 81.5996
c0 264.76 73.6797 295.069 257.35 335.999c148.19 33.0303 168.171 98.1904 168.171 179.811c0 75.6904 -56.2998 146.61 -160.29 146.61c-94.5996 0 -196.239 -34.3301 -206.379 -140.75h-81.2002c7.37012 124.44 103.101 222.87 268.261 222.87z" />
    <glyph glyph-name="three" unicode="3" horiz-adv-x="585" 
d="M382.56 452.24c0 0 165.088 -16.8096 165.088 -214.13c0 -169.67 -100.01 -254.11 -266 -254.11c-151.53 0 -250.21 85.0898 -258.65 227.93h80.7695c26.4805 -110.73 76.1504 -147.021 199.551 -147.021c109.04 0 162.21 78.1504 162.21 186.23
c0 69.29 -53.0596 148.91 -181.529 162.87v72.1904c90.9697 13.75 132.87 58.46 132.87 117.41c0 100.2 -54.2197 140.601 -142.77 140.601c-73.4297 0 -111.319 -34.3096 -129.89 -101.659h-80.4199c8.19043 105.97 82.5908 183.779 210.311 183.779
c155.64 0 225.3 -101.99 225.3 -203.08c0 -157.44 -116.84 -171.011 -116.84 -171.011z" />
    <glyph glyph-name="four" unicode="4" horiz-adv-x="658" 
d="M643.32 234.91h-114.469v-234.91h-81.8701v234.91h-392.98v97.1396l361.75 477.78h113.1v-492.87h114.47v-82.0498zM446.981 316.96v428.66l-326.1 -428.66h326.1z" />
    <glyph glyph-name="five" unicode="5" horiz-adv-x="580" 
d="M300.51 -15.25c-124.84 -9.28027 -258.509 68.4395 -258.509 196.289h86.4502c0 -43.9102 46.9697 -117.41 162.319 -113.73c114.72 3.66992 172.29 82.1104 172.29 205.36c0 98.7305 -58.7402 168.021 -166.601 168.801
c-106.63 0.780273 -144.49 -43.71 -153.48 -88.0498l-77.9902 0.179688v457.17h448.28v-82.1299h-371.72l0.25 -271.96s33.5498 61.0898 162.479 61.0898c145.53 0 236.36 -105.13 236.36 -244.979c0 -212.6 -120.78 -279.18 -240.13 -288.04z" />
    <glyph glyph-name="six" unicode="6" horiz-adv-x="576" 
d="M299.05 826.47c136.89 0 194.001 -74.8008 208.851 -174.531h-78.2598c-18.6602 69.2305 -73.7402 96.9707 -131.25 92.8604c-95.0498 -6.79004 -146.99 -66.0098 -167.931 -202.92c-15.54 -101.62 -12.46 -159.61 -12.46 -159.61s33.2598 113.95 203.59 113.95
c166.22 0 216.739 -156.42 216.739 -239.77c0 -187.96 -118.59 -269.89 -215.01 -272.31c-141.81 -3.55957 -280.319 57.6904 -280.319 386.5c0 143.55 19.7803 255.3 58.7803 332.17c42.2197 83.21 106.739 123.66 197.27 123.66zM312.971 415.809
c-109.66 0 -176.74 -65.7393 -178.63 -146.02c-3.42969 -145 52.96 -207.44 183.87 -201.28c100.12 4.7002 151.01 95.3301 145.12 196.18c-4.62988 79.1504 -58 151.12 -150.36 151.12z" />
    <glyph glyph-name="seven" unicode="7" horiz-adv-x="668" 
d="M614.09 809.83l-0.000976562 -82.0996h-0.0595703v-0.0195312c-219.47 -208.47 -289.7 -549.12 -289.7 -718.72l0.179688 -8.99023h-81.0195v8.80957c0 180.22 77.9404 527.54 254.391 718.92h-443.88v82.0996h560.09z" />
    <glyph glyph-name="eight" unicode="8" horiz-adv-x="637" 
d="M469.27 464.71c82.9004 -41.6504 131.891 -120.53 131.891 -223.88c0 -189.35 -146.22 -256.83 -283.08 -256.83c-171.95 0 -283.08 100.8 -283.08 256.83c0 78.8096 28.9199 144.84 83.5996 190.939c15.0596 12.6904 32.1396 23.46 50.5 32.6299
c-48.04 35.7598 -76.1104 90.9902 -76.1104 158.641c0 62 22.96 114.1 66.3701 150.71c40.2002 33.9004 96.5605 52.5605 158.721 52.5605c136.73 0 225.08 -79.79 225.08 -203.271c0 -66.9004 -24.8398 -121.17 -71.8398 -156.93
c-0.660156 -0.490234 -1.39062 -0.919922 -2.05078 -1.40039zM318.079 746.02c-61.8604 0 -144.051 -32.3096 -144.051 -122.979c0 -111 105.57 -122.99 144.051 -122.99c82.4902 0 142.96 43.6797 142.96 122.989c0 111 -104.5 122.98 -142.96 122.98zM318.079 64.96
c119.37 0 200.97 62.4707 200.96 175.871c0 41.2402 -29.2002 175.84 -200.96 175.84c-89.4902 0 -200.96 -46.1904 -200.96 -175.841c0 -163.17 157.53 -175.87 200.96 -175.87z" />
    <glyph glyph-name="nine" unicode="9" horiz-adv-x="591" 
d="M283.86 -16c-141.24 0 -200.141 74.8008 -215.45 174.531h80.7305c19.25 -69.2305 76.0498 -96.9707 135.399 -92.8506c98.04 6.78027 151.63 66 173.229 202.89c16.0303 101.62 12.8604 159.62 12.8604 159.62s-34.3301 -113.96 -210.04 -113.96
c-171.49 0 -223.59 156.42 -223.59 239.77c0 187.96 122.34 269.89 221.83 272.33c146.27 3.55957 289.18 -57.6904 289.18 -386.5c0 -143.55 -20.4004 -255.3 -60.6406 -332.17c-43.5596 -83.2002 -110.119 -123.66 -203.509 -123.66zM269.49 394.661
c113.14 0 182.319 65.7207 184.279 146.03c3.54004 144.97 -54.6299 207.42 -189.689 201.27c-103.29 -4.7002 -155.8 -95.3301 -149.71 -196.18c4.79004 -79.1504 59.8398 -151.12 155.12 -151.12z" />
    <glyph glyph-name="colon" unicode=":" horiz-adv-x="172" 
d="M139.21 0h-107.21v110.02h107.21v-110.02zM139.21 412.76h-107.21v110.02h107.21v-110.02z" />
    <glyph glyph-name="semicolon" unicode=";" horiz-adv-x="172" 
d="M139.57 412.99h-107.21v110.02h107.21v-110.02zM32.3604 0.209961v110.039h107.21v-110.02c-0.480469 -72.0098 -61.7803 -110.66 -123.57 -96.2402v34.5303c46.8701 -11.9697 84.2402 18.25 87.2803 61.6904h-70.9199z" />
    <glyph glyph-name="less" unicode="&#x3c;" horiz-adv-x="704" 
d="M104.39 409.14l572.23 -231.019v-87.1201l-659.62 267.68v100.92l659.62 267.68v-87.1104z" />
    <glyph glyph-name="equal" unicode="=" horiz-adv-x="478" 
d="M449.7 498.76h-421.7v79.1299h421.7v-79.1299zM449.7 305h-421.7v79.1299h421.7v-79.1299z" />
    <glyph glyph-name="greater" unicode="&#x3e;" horiz-adv-x="704" 
d="M27 178.12l572.23 231.019l-572.23 231.03v87.1104l659.62 -267.68v-100.92l-659.62 -267.68v87.1201z" />
    <glyph glyph-name="question" unicode="?" horiz-adv-x="549" 
d="M328.02 0h-107.21v110.02h107.21v-110.02zM297.479 825.54c144.49 0 226.471 -87.8398 226.471 -194.25c0 -264.63 -206.8 -206.12 -206.8 -404.5h-84.6504c0 239.67 209.01 199.82 209.01 378.101c0 84.8096 -41.8398 139.84 -140.67 139.84
c-57.46 0 -150.6 -16.8398 -165.68 -147.07c-33.0703 0.120117 -76.1602 0.94043 -81.1602 1.01074c8.95996 111.02 61.8398 226.869 243.479 226.869z" />
    <glyph glyph-name="at" unicode="@" horiz-adv-x="920" 
d="M560.88 589.4l79.3936 -0.00292969c-4.26953 -54.1299 -15.4893 -202.27 -15.4893 -264.239c0 -36.5 32.5 -61.25 76.1201 -61.25c32.2305 0 64.0303 12.29 86.4707 38.8203c26.3496 30.9805 40.2393 76.9209 40.2393 132.651c0 78.8799 -25.46 335.82 -352.56 335.82
c-198.53 0 -379.261 -174.5 -379.261 -366.09c0 -181.8 130.16 -365.91 379.26 -365.91c92.9502 0 157.59 23.1504 221.149 79.9502h90.6396c-80.3096 -86.3604 -191.949 -135.15 -311.789 -135.15c-267.98 0 -441.051 165.24 -441.051 421.11
c0 228.27 201.92 421.289 441.05 421.289c276.89 0 406.34 -183.22 411.68 -364.67c1.78027 -60.54 -7.2998 -144.22 -61.0801 -199.6c-36.1396 -37.2197 -83.1299 -58.7998 -148.66 -58.7998c-99.1797 0 -128.75 86.75 -128.75 86.75s-16.6904 -63.21 -130.881 -63.21
c-97.04 0 -177.521 72.4697 -177.521 180.38c0 123.75 95.9697 197.82 188.739 197.82c110.57 0 126.42 -68.3701 126.42 -68.3701zM432.144 287.588c55.7305 0 112.001 37.04 112.001 119.48c0 71.5801 -45.0498 119.66 -112 119.66
c-65.8799 0 -111.82 -49.1504 -111.82 -119.66c0 -82.4404 56.2695 -119.48 111.819 -119.48z" />
    <glyph glyph-name="A" unicode="A" horiz-adv-x="699" 
d="M527.75 232.99h-357.33l-82.6104 -232.99h-86.5195l302.79 809.9h91.54l302.81 -809.83h-87.6396zM349.93 733.8l-150.74 -422.04h300.42z" />
    <glyph glyph-name="A" unicode="&#xe5;" horiz-adv-x="699" 
d="M527.75 232.99h-357.33l-82.6104 -232.99h-86.5195l302.79 809.9h91.54l302.81 -809.83h-87.6396zM349.93 733.8l-150.74 -422.04h300.42z" />
    <glyph glyph-name="A" unicode="&#xe3;" horiz-adv-x="699" 
d="M527.75 232.99h-357.33l-82.6104 -232.99h-86.5195l302.79 809.9h91.54l302.81 -809.83h-87.6396zM349.93 733.8l-150.74 -422.04h300.42z" />
    <glyph glyph-name="A" unicode="&#xe2;" horiz-adv-x="699" 
d="M527.75 232.99h-357.33l-82.6104 -232.99h-86.5195l302.79 809.9h91.54l302.81 -809.83h-87.6396zM349.93 733.8l-150.74 -422.04h300.42z" />
    <glyph glyph-name="A" unicode="&#xe0;" horiz-adv-x="699" 
d="M527.75 232.99h-357.33l-82.6104 -232.99h-86.5195l302.79 809.9h91.54l302.81 -809.83h-87.6396zM349.93 733.8l-150.74 -422.04h300.42z" />
    <glyph glyph-name="A" unicode="&#xc5;" horiz-adv-x="699" 
d="M527.75 232.99h-357.33l-82.6104 -232.99h-86.5195l302.79 809.9h91.54l302.81 -809.83h-87.6396zM349.93 733.8l-150.74 -422.04h300.42z" />
    <glyph glyph-name="A" unicode="&#xc3;" horiz-adv-x="699" 
d="M527.75 232.99h-357.33l-82.6104 -232.99h-86.5195l302.79 809.9h91.54l302.81 -809.83h-87.6396zM349.93 733.8l-150.74 -422.04h300.42z" />
    <glyph glyph-name="A" unicode="&#xc2;" horiz-adv-x="699" 
d="M527.75 232.99h-357.33l-82.6104 -232.99h-86.5195l302.79 809.9h91.54l302.81 -809.83h-87.6396zM349.93 733.8l-150.74 -422.04h300.42z" />
    <glyph glyph-name="A" unicode="&#xc0;" horiz-adv-x="699" 
d="M527.75 232.99h-357.33l-82.6104 -232.99h-86.5195l302.79 809.9h91.54l302.81 -809.83h-87.6396zM349.93 733.8l-150.74 -422.04h300.42z" />
    <glyph glyph-name="A" unicode="a" horiz-adv-x="699" 
d="M527.75 232.99h-357.33l-82.6104 -232.99h-86.5195l302.79 809.9h91.54l302.81 -809.83h-87.6396zM349.93 733.8l-150.74 -422.04h300.42z" />
    <glyph glyph-name="B" unicode="B" horiz-adv-x="672" 
d="M487.86 418.37c119.21 -17.6299 152.08 -115.009 152.08 -204.839c0 -128.08 -81.0898 -213.53 -268.76 -213.53h-317.18v809.35h306.57c141.13 0 230.14 -109.7 230.149 -227.431c0 -52.8496 -24.9199 -136.17 -102.86 -163.55zM336.63 729.721l-200.699 -0.000976562
v-275.81h199.779c111.77 0.0498047 171.93 33.3896 171.93 136.29c0 81.7305 -56.0498 139.521 -171.01 139.521zM386.4 79.25c102.58 0 172.35 39.1406 172.359 140.24c0 81.75 -64.2197 155.22 -174.739 155.22h-248.08v-295.46h250.46z" />
    <glyph glyph-name="B" unicode="b" horiz-adv-x="672" 
d="M487.86 418.37c119.21 -17.6299 152.08 -115.009 152.08 -204.839c0 -128.08 -81.0898 -213.53 -268.76 -213.53h-317.18v809.35h306.57c141.13 0 230.14 -109.7 230.149 -227.431c0 -52.8496 -24.9199 -136.17 -102.86 -163.55zM336.63 729.721l-200.699 -0.000976562
v-275.81h199.779c111.77 0.0498047 171.93 33.3896 171.93 136.29c0 81.7305 -56.0498 139.521 -171.01 139.521zM386.4 79.25c102.58 0 172.35 39.1406 172.359 140.24c0 81.75 -64.2197 155.22 -174.739 155.22h-248.08v-295.46h250.46z" />
    <glyph glyph-name="C" unicode="C" 
d="M694.7 295.13l84.0098 -0.000976562c-41.0596 -227.16 -211.14 -311.26 -371.68 -311.26c-231.48 0 -381.03 165.33 -381.03 421.16c0 130.43 39 239.17 112.8 314.439c67.4697 68.8203 162.729 106.73 268.21 106.73c190.03 0 324.66 -108.9 366.82 -291.631h-84.4297
c-43.0801 153.15 -164.46 209.511 -282.41 209.511c-146.66 0 -298.9 -96.1201 -298.9 -339.05c0 -250.47 152.24 -339.04 298.9 -339.04c152.69 0 255.15 81.4102 287.71 229.141z" />
    <glyph glyph-name="C" unicode="&#xe7;" 
d="M694.7 295.13l84.0098 -0.000976562c-41.0596 -227.16 -211.14 -311.26 -371.68 -311.26c-231.48 0 -381.03 165.33 -381.03 421.16c0 130.43 39 239.17 112.8 314.439c67.4697 68.8203 162.729 106.73 268.21 106.73c190.03 0 324.66 -108.9 366.82 -291.631h-84.4297
c-43.0801 153.15 -164.46 209.511 -282.41 209.511c-146.66 0 -298.9 -96.1201 -298.9 -339.05c0 -250.47 152.24 -339.04 298.9 -339.04c152.69 0 255.15 81.4102 287.71 229.141z" />
    <glyph glyph-name="C" unicode="&#xc7;" 
d="M694.7 295.13l84.0098 -0.000976562c-41.0596 -227.16 -211.14 -311.26 -371.68 -311.26c-231.48 0 -381.03 165.33 -381.03 421.16c0 130.43 39 239.17 112.8 314.439c67.4697 68.8203 162.729 106.73 268.21 106.73c190.03 0 324.66 -108.9 366.82 -291.631h-84.4297
c-43.0801 153.15 -164.46 209.511 -282.41 209.511c-146.66 0 -298.9 -96.1201 -298.9 -339.05c0 -250.47 152.24 -339.04 298.9 -339.04c152.69 0 255.15 81.4102 287.71 229.141z" />
    <glyph glyph-name="C" unicode="c" 
d="M694.7 295.13l84.0098 -0.000976562c-41.0596 -227.16 -211.14 -311.26 -371.68 -311.26c-231.48 0 -381.03 165.33 -381.03 421.16c0 130.43 39 239.17 112.8 314.439c67.4697 68.8203 162.729 106.73 268.21 106.73c190.03 0 324.66 -108.9 366.82 -291.631h-84.4297
c-43.0801 153.15 -164.46 209.511 -282.41 209.511c-146.66 0 -298.9 -96.1201 -298.9 -339.05c0 -250.47 152.24 -339.04 298.9 -339.04c152.69 0 255.15 81.4102 287.71 229.141z" />
    <glyph glyph-name="D" unicode="D" horiz-adv-x="755" 
d="M732.07 404.77c0 -222.95 -171.53 -404.5 -382.311 -404.66h-295.76v809.79h295.7c210.84 -0.169922 382.37 -182.17 382.37 -405.13zM135.931 731.27l0.000976562 -652.46h203c147.95 0 293.431 121.67 309.521 292.3l0.269531 3.70996v0.599609
c0.0302734 0.700195 0.0703125 1.39062 0.110352 2.10059l0.120117 1.25l0.0703125 1.24023c0.429688 7.38965 0.929688 15.7598 0.929688 24.7598c0 2.16992 -0.0703125 4.32031 -0.140625 6.49023l-0.0800781 2.12012v0.879883l-0.00976562 0.870117
c-5.11035 180.05 -153.95 316.14 -310.811 316.14h-202.98z" />
    <glyph glyph-name="D" unicode="d" horiz-adv-x="755" 
d="M732.07 404.77c0 -222.95 -171.53 -404.5 -382.311 -404.66h-295.76v809.79h295.7c210.84 -0.169922 382.37 -182.17 382.37 -405.13zM135.931 731.27l0.000976562 -652.46h203c147.95 0 293.431 121.67 309.521 292.3l0.269531 3.70996v0.599609
c0.0302734 0.700195 0.0703125 1.39062 0.110352 2.10059l0.120117 1.25l0.0703125 1.24023c0.429688 7.38965 0.929688 15.7598 0.929688 24.7598c0 2.16992 -0.0703125 4.32031 -0.140625 6.49023l-0.0800781 2.12012v0.879883l-0.00976562 0.870117
c-5.11035 180.05 -153.95 316.14 -310.811 316.14h-202.98z" />
    <glyph glyph-name="E" unicode="E" horiz-adv-x="652" 
d="M135.91 730.88v-257.029h388.27v-78.9004l-388.27 1.63965v-317.75h461.76v-78.8398h-543.67v809.78h543.67v-78.9004h-461.76z" />
    <glyph glyph-name="E" unicode="&#xeb;" horiz-adv-x="652" 
d="M135.91 730.88v-257.029h388.27v-78.9004l-388.27 1.63965v-317.75h461.76v-78.8398h-543.67v809.78h543.67v-78.9004h-461.76z" />
    <glyph glyph-name="E" unicode="&#xea;" horiz-adv-x="652" 
d="M135.91 730.88v-257.029h388.27v-78.9004l-388.27 1.63965v-317.75h461.76v-78.8398h-543.67v809.78h543.67v-78.9004h-461.76z" />
    <glyph glyph-name="E" unicode="&#xe8;" horiz-adv-x="652" 
d="M135.91 730.88v-257.029h388.27v-78.9004l-388.27 1.63965v-317.75h461.76v-78.8398h-543.67v809.78h543.67v-78.9004h-461.76z" />
    <glyph glyph-name="E" unicode="&#xcb;" horiz-adv-x="652" 
d="M135.91 730.88v-257.029h388.27v-78.9004l-388.27 1.63965v-317.75h461.76v-78.8398h-543.67v809.78h543.67v-78.9004h-461.76z" />
    <glyph glyph-name="E" unicode="&#xca;" horiz-adv-x="652" 
d="M135.91 730.88v-257.029h388.27v-78.9004l-388.27 1.63965v-317.75h461.76v-78.8398h-543.67v809.78h543.67v-78.9004h-461.76z" />
    <glyph glyph-name="E" unicode="&#xc8;" horiz-adv-x="652" 
d="M135.91 730.88v-257.029h388.27v-78.9004l-388.27 1.63965v-317.75h461.76v-78.8398h-543.67v809.78h543.67v-78.9004h-461.76z" />
    <glyph glyph-name="E" unicode="e" horiz-adv-x="652" 
d="M135.91 730.88v-257.029h388.27v-78.9004l-388.27 1.63965v-317.75h461.76v-78.8398h-543.67v809.78h543.67v-78.9004h-461.76z" />
    <glyph glyph-name="F" unicode="F" horiz-adv-x="589" 
d="M508.78 395.01h-372.85v-395.01h-81.9297v809.83h533.41v-78.9004h-451.48v-257.34h372.85v-78.5801z" />
    <glyph glyph-name="F" unicode="f" horiz-adv-x="589" 
d="M508.78 395.01h-372.85v-395.01h-81.9297v809.83h533.41v-78.9004h-451.48v-257.34h372.85v-78.5801z" />
    <glyph glyph-name="G" unicode="G" horiz-adv-x="798" 
d="M429.79 320.55l0.000976562 78.9014h328.48v-399.44h-69.5303l-12.4805 88.9902c-66.1396 -67.5498 -158.529 -105 -269.249 -105c-231.46 0 -381.01 165.31 -381.01 421.159c0 130.43 39.0098 239.17 112.8 314.439c67.4902 68.8203 162.73 106.73 268.211 106.73
c163.3 0 294.729 -80.3398 351.279 -260.7h-86.2402c-46.7002 128.19 -158.61 178.58 -265.021 178.58c-146.69 0 -298.91 -94.2803 -298.91 -339.05c0 -252.98 163.53 -339.04 298.91 -339.04c109.6 0 269.239 45.3701 269.239 254.43h-246.48z" />
    <glyph glyph-name="G" unicode="g" horiz-adv-x="798" 
d="M429.79 320.55l0.000976562 78.9014h328.48v-399.44h-69.5303l-12.4805 88.9902c-66.1396 -67.5498 -158.529 -105 -269.249 -105c-231.46 0 -381.01 165.31 -381.01 421.159c0 130.43 39.0098 239.17 112.8 314.439c67.4902 68.8203 162.73 106.73 268.211 106.73
c163.3 0 294.729 -80.3398 351.279 -260.7h-86.2402c-46.7002 128.19 -158.61 178.58 -265.021 178.58c-146.69 0 -298.91 -94.2803 -298.91 -339.05c0 -252.98 163.53 -339.04 298.91 -339.04c109.6 0 269.239 45.3701 269.239 254.43h-246.48z" />
    <glyph glyph-name="H" unicode="H" horiz-adv-x="733" 
d="M596.58 0v395.01h-460.21v-395.01h-82.3701v809.83h82.3701v-335.91h460.21v335.91h82.2803v-809.83h-82.2803z" />
    <glyph glyph-name="H" unicode="h" horiz-adv-x="733" 
d="M596.58 0v395.01h-460.21v-395.01h-82.3701v809.83h82.3701v-335.91h460.21v335.91h82.2803v-809.83h-82.2803z" />
    <glyph glyph-name="I" unicode="I" horiz-adv-x="191" 
d="M136.46 0h-82.46v809.83h82.46v-809.83z" />
    <glyph glyph-name="I" unicode="&#xef;" horiz-adv-x="191" 
d="M136.46 0h-82.46v809.83h82.46v-809.83z" />
    <glyph glyph-name="I" unicode="&#xee;" horiz-adv-x="191" 
d="M136.46 0h-82.46v809.83h82.46v-809.83z" />
    <glyph glyph-name="I" unicode="&#xec;" horiz-adv-x="191" 
d="M136.46 0h-82.46v809.83h82.46v-809.83z" />
    <glyph glyph-name="I" unicode="&#xcf;" horiz-adv-x="191" 
d="M136.46 0h-82.46v809.83h82.46v-809.83z" />
    <glyph glyph-name="I" unicode="&#xce;" horiz-adv-x="191" 
d="M136.46 0h-82.46v809.83h82.46v-809.83z" />
    <glyph glyph-name="I" unicode="&#xcc;" horiz-adv-x="191" 
d="M136.46 0h-82.46v809.83h82.46v-809.83z" />
    <glyph glyph-name="I" unicode="i" horiz-adv-x="191" 
d="M136.46 0h-82.46v809.83h82.46v-809.83z" />
    <glyph glyph-name="J" unicode="J" horiz-adv-x="524" 
d="M239.32 -16c-205.13 0 -231.32 93.0703 -231.32 278.82h74.46c0 -136.28 4.94043 -196.7 156.45 -196.7c145.21 0 152.7 65.2998 152.7 253.77v489.72h82.1201v-487.47c0 -246.47 -23.1504 -338.14 -234.41 -338.14z" />
    <glyph glyph-name="J" unicode="j" horiz-adv-x="524" 
d="M239.32 -16c-205.13 0 -231.32 93.0703 -231.32 278.82h74.46c0 -136.28 4.94043 -196.7 156.45 -196.7c145.21 0 152.7 65.2998 152.7 253.77v489.72h82.1201v-487.47c0 -246.47 -23.1504 -338.14 -234.41 -338.14z" />
    <glyph glyph-name="K" unicode="K" horiz-adv-x="693" 
d="M135.68 361.89l410.278 447.94h110.99l-302.26 -330.14l339.27 -479.69h-99.6602l-295.81 418.32l-162.81 -177.83v-240.49h-81.6797v809.83h81.9404z" />
    <glyph glyph-name="K" unicode="k" horiz-adv-x="693" 
d="M135.68 361.89l410.278 447.94h110.99l-302.26 -330.14l339.27 -479.69h-99.6602l-295.81 418.32l-162.81 -177.83v-240.49h-81.6797v809.83h81.9404z" />
    <glyph glyph-name="L" unicode="L" horiz-adv-x="590" 
d="M135.93 809.37l0.000976562 -730.47h457.02v-78.9004h-538.95v809.37h81.9297z" />
    <glyph glyph-name="L" unicode="l" horiz-adv-x="590" 
d="M135.93 809.37l0.000976562 -730.47h457.02v-78.9004h-538.95v809.37h81.9297z" />
    <glyph glyph-name="M" unicode="M" horiz-adv-x="908" 
d="M416.87 0l-280.2 715.19v-715.19h-82.6699v809.81h131.37l268.68 -693.8l267.09 693.8h132.58v-809.81h-82.75l0.110352 715.19l-279.82 -715.19h-74.3896z" />
    <glyph glyph-name="M" unicode="m" horiz-adv-x="908" 
d="M416.87 0l-280.2 715.19v-715.19h-82.6699v809.81h131.37l268.68 -693.8l267.09 693.8h132.58v-809.81h-82.75l0.110352 715.19l-279.82 -715.19h-74.3896z" />
    <glyph glyph-name="N" unicode="N" horiz-adv-x="790" 
d="M628.88 0l-492.81 715.39l0.0498047 -715.39h-82.1201v809.81h108.14l490.96 -714.92v714.92h82.1201v-809.81h-106.34z" />
    <glyph glyph-name="N" unicode="&#xf1;" horiz-adv-x="790" 
d="M628.88 0l-492.81 715.39l0.0498047 -715.39h-82.1201v809.81h108.14l490.96 -714.92v714.92h82.1201v-809.81h-106.34z" />
    <glyph glyph-name="N" unicode="&#xd1;" horiz-adv-x="790" 
d="M628.88 0l-492.81 715.39l0.0498047 -715.39h-82.1201v809.81h108.14l490.96 -714.92v714.92h82.1201v-809.81h-106.34z" />
    <glyph glyph-name="N" unicode="n" horiz-adv-x="790" 
d="M628.88 0l-492.81 715.39l0.0498047 -715.39h-82.1201v809.81h108.14l490.96 -714.92v714.92h82.1201v-809.81h-106.34z" />
    <glyph glyph-name="O" unicode="O" horiz-adv-x="816" 
d="M407.01 825.93c231.48 0 381.028 -161.32 381.009 -421.17c0 -310.51 -196.81 -421.16 -381.01 -421.16c-231.46 0 -381.01 165.33 -381.01 421.16c0 130.43 39.0098 239.17 112.8 314.439c67.4805 68.8203 162.73 106.73 268.211 106.73zM407.008 65.7197
c187.14 0 298.91 122.2 298.91 339.04c0 252.21 -152.22 339.05 -298.91 339.05s-298.91 -96.1201 -298.91 -339.05c0 -250.47 152.24 -339.04 298.91 -339.04z" />
    <glyph glyph-name="O" unicode="&#xf8;" horiz-adv-x="816" 
d="M407.01 825.93c231.48 0 381.028 -161.32 381.009 -421.17c0 -310.51 -196.81 -421.16 -381.01 -421.16c-231.46 0 -381.01 165.33 -381.01 421.16c0 130.43 39.0098 239.17 112.8 314.439c67.4805 68.8203 162.73 106.73 268.211 106.73zM407.008 65.7197
c187.14 0 298.91 122.2 298.91 339.04c0 252.21 -152.22 339.05 -298.91 339.05s-298.91 -96.1201 -298.91 -339.05c0 -250.47 152.24 -339.04 298.91 -339.04z" />
    <glyph glyph-name="O" unicode="&#xf5;" horiz-adv-x="816" 
d="M407.01 825.93c231.48 0 381.028 -161.32 381.009 -421.17c0 -310.51 -196.81 -421.16 -381.01 -421.16c-231.46 0 -381.01 165.33 -381.01 421.16c0 130.43 39.0098 239.17 112.8 314.439c67.4805 68.8203 162.73 106.73 268.211 106.73zM407.008 65.7197
c187.14 0 298.91 122.2 298.91 339.04c0 252.21 -152.22 339.05 -298.91 339.05s-298.91 -96.1201 -298.91 -339.05c0 -250.47 152.24 -339.04 298.91 -339.04z" />
    <glyph glyph-name="O" unicode="&#xf4;" horiz-adv-x="816" 
d="M407.01 825.93c231.48 0 381.028 -161.32 381.009 -421.17c0 -310.51 -196.81 -421.16 -381.01 -421.16c-231.46 0 -381.01 165.33 -381.01 421.16c0 130.43 39.0098 239.17 112.8 314.439c67.4805 68.8203 162.73 106.73 268.211 106.73zM407.008 65.7197
c187.14 0 298.91 122.2 298.91 339.04c0 252.21 -152.22 339.05 -298.91 339.05s-298.91 -96.1201 -298.91 -339.05c0 -250.47 152.24 -339.04 298.91 -339.04z" />
    <glyph glyph-name="O" unicode="&#xf2;" horiz-adv-x="816" 
d="M407.01 825.93c231.48 0 381.028 -161.32 381.009 -421.17c0 -310.51 -196.81 -421.16 -381.01 -421.16c-231.46 0 -381.01 165.33 -381.01 421.16c0 130.43 39.0098 239.17 112.8 314.439c67.4805 68.8203 162.73 106.73 268.211 106.73zM407.008 65.7197
c187.14 0 298.91 122.2 298.91 339.04c0 252.21 -152.22 339.05 -298.91 339.05s-298.91 -96.1201 -298.91 -339.05c0 -250.47 152.24 -339.04 298.91 -339.04z" />
    <glyph glyph-name="O" unicode="&#xd8;" horiz-adv-x="816" 
d="M407.01 825.93c231.48 0 381.028 -161.32 381.009 -421.17c0 -310.51 -196.81 -421.16 -381.01 -421.16c-231.46 0 -381.01 165.33 -381.01 421.16c0 130.43 39.0098 239.17 112.8 314.439c67.4805 68.8203 162.73 106.73 268.211 106.73zM407.008 65.7197
c187.14 0 298.91 122.2 298.91 339.04c0 252.21 -152.22 339.05 -298.91 339.05s-298.91 -96.1201 -298.91 -339.05c0 -250.47 152.24 -339.04 298.91 -339.04z" />
    <glyph glyph-name="O" unicode="&#xd5;" horiz-adv-x="816" 
d="M407.01 825.93c231.48 0 381.028 -161.32 381.009 -421.17c0 -310.51 -196.81 -421.16 -381.01 -421.16c-231.46 0 -381.01 165.33 -381.01 421.16c0 130.43 39.0098 239.17 112.8 314.439c67.4805 68.8203 162.73 106.73 268.211 106.73zM407.008 65.7197
c187.14 0 298.91 122.2 298.91 339.04c0 252.21 -152.22 339.05 -298.91 339.05s-298.91 -96.1201 -298.91 -339.05c0 -250.47 152.24 -339.04 298.91 -339.04z" />
    <glyph glyph-name="O" unicode="&#xd4;" horiz-adv-x="816" 
d="M407.01 825.93c231.48 0 381.028 -161.32 381.009 -421.17c0 -310.51 -196.81 -421.16 -381.01 -421.16c-231.46 0 -381.01 165.33 -381.01 421.16c0 130.43 39.0098 239.17 112.8 314.439c67.4805 68.8203 162.73 106.73 268.211 106.73zM407.008 65.7197
c187.14 0 298.91 122.2 298.91 339.04c0 252.21 -152.22 339.05 -298.91 339.05s-298.91 -96.1201 -298.91 -339.05c0 -250.47 152.24 -339.04 298.91 -339.04z" />
    <glyph glyph-name="O" unicode="&#xd2;" horiz-adv-x="816" 
d="M407.01 825.93c231.48 0 381.028 -161.32 381.009 -421.17c0 -310.51 -196.81 -421.16 -381.01 -421.16c-231.46 0 -381.01 165.33 -381.01 421.16c0 130.43 39.0098 239.17 112.8 314.439c67.4805 68.8203 162.73 106.73 268.211 106.73zM407.008 65.7197
c187.14 0 298.91 122.2 298.91 339.04c0 252.21 -152.22 339.05 -298.91 339.05s-298.91 -96.1201 -298.91 -339.05c0 -250.47 152.24 -339.04 298.91 -339.04z" />
    <glyph glyph-name="O" unicode="o" horiz-adv-x="816" 
d="M407.01 825.93c231.48 0 381.028 -161.32 381.009 -421.17c0 -310.51 -196.81 -421.16 -381.01 -421.16c-231.46 0 -381.01 165.33 -381.01 421.16c0 130.43 39.0098 239.17 112.8 314.439c67.4805 68.8203 162.73 106.73 268.211 106.73zM407.008 65.7197
c187.14 0 298.91 122.2 298.91 339.04c0 252.21 -152.22 339.05 -298.91 339.05s-298.91 -96.1201 -298.91 -339.05c0 -250.47 152.24 -339.04 298.91 -339.04z" />
    <glyph glyph-name="P" unicode="P" horiz-adv-x="660" 
d="M382.68 809.62c172.25 -0.0400391 265.22 -123.08 265.22 -238.83c0 -116.74 -90.9697 -234.94 -264.859 -234.94h-245.19v-336.05h-83.8496v809.48zM398.83 418.061c78.8398 0 167.38 50.0908 167.38 152.73c0 103.2 -89.3203 156.71 -167.38 156.71h-260.96v-309.44
h260.96z" />
    <glyph glyph-name="P" unicode="p" horiz-adv-x="660" 
d="M382.68 809.62c172.25 -0.0400391 265.22 -123.08 265.22 -238.83c0 -116.74 -90.9697 -234.94 -264.859 -234.94h-245.19v-336.05h-83.8496v809.48zM398.83 418.061c78.8398 0 167.38 50.0908 167.38 152.73c0 103.2 -89.3203 156.71 -167.38 156.71h-260.96v-309.44
h260.96z" />
    <glyph glyph-name="Q" unicode="Q" horiz-adv-x="817" 
d="M788.02 404.76c0 -159.15 -51.7598 -265.682 -126.939 -331.852l73.0596 -82.3096l-61.5898 -54.5996l-80.0703 90.21c-57.6797 -29.5898 -122.31 -42.6094 -185.449 -42.6094c-231.48 0 -381.03 165.33 -381.03 421.16c0 130.43 38.9902 239.17 112.8 314.439
c67.4697 68.8203 162.729 106.73 268.21 106.73c231.46 0 381.01 -161.32 381.01 -421.17zM407.01 65.7188c48.2695 0 91.4199 8.2793 129.02 24.0596l-129.02 145.36l61.5898 54.5996l138.19 -155.68c63.9297 57.21 99.1299 149.05 99.1299 270.7
c0 252.21 -152.24 339.05 -298.91 339.05s-298.91 -96.1201 -298.91 -339.05c0 -250.47 152.24 -339.04 298.91 -339.04z" />
    <glyph glyph-name="Q" unicode="q" horiz-adv-x="817" 
d="M788.02 404.76c0 -159.15 -51.7598 -265.682 -126.939 -331.852l73.0596 -82.3096l-61.5898 -54.5996l-80.0703 90.21c-57.6797 -29.5898 -122.31 -42.6094 -185.449 -42.6094c-231.48 0 -381.03 165.33 -381.03 421.16c0 130.43 38.9902 239.17 112.8 314.439
c67.4697 68.8203 162.729 106.73 268.21 106.73c231.46 0 381.01 -161.32 381.01 -421.17zM407.01 65.7188c48.2695 0 91.4199 8.2793 129.02 24.0596l-129.02 145.36l61.5898 54.5996l138.19 -155.68c63.9297 57.21 99.1299 149.05 99.1299 270.7
c0 252.21 -152.24 339.05 -298.91 339.05s-298.91 -96.1201 -298.91 -339.05c0 -250.47 152.24 -339.04 298.91 -339.04z" />
    <glyph glyph-name="R" unicode="R" horiz-adv-x="689" 
d="M473.62 353.43l196.88 -353.63h-96.3896l-194.99 353.61zM653.3 581.27c0 -169.97 -120.21 -218.279 -179.7 -227.859l-274.25 -0.0195312h-61.5v-353.61h-83.8496v809.02l334.06 0.349609c102.38 0 265.24 -58.04 265.24 -227.88zM404.229 435.619
c110.94 0 167 43.1396 167.02 145.649c0 86.9902 -80.0098 144.48 -167.02 144.48h-266.36v-290.13h266.36z" />
    <glyph glyph-name="R" unicode="r" horiz-adv-x="689" 
d="M473.62 353.43l196.88 -353.63h-96.3896l-194.99 353.61zM653.3 581.27c0 -169.97 -120.21 -218.279 -179.7 -227.859l-274.25 -0.0195312h-61.5v-353.61h-83.8496v809.02l334.06 0.349609c102.38 0 265.24 -58.04 265.24 -227.88zM404.229 435.619
c110.94 0 167 43.1396 167.02 145.649c0 86.9902 -80.0098 144.48 -167.02 144.48h-266.36v-290.13h266.36z" />
    <glyph glyph-name="S" unicode="S" horiz-adv-x="634" 
d="M125.94 609.05c0 -239.97 483.749 -59.5391 483.749 -386.209c0 -105.46 -74.7002 -239.29 -293.12 -239.29c-194.44 0 -293.57 138.67 -293.57 257.08h82.0098c0 -85.54 81.4102 -175.28 219.891 -175.28c148.31 0 203.27 82.0596 203.27 166.939
c0 228.37 -484.43 49.5801 -484.43 380.04c0 119.05 96.4902 213.6 268.62 213.6c161.33 0 261.29 -99.4502 261.271 -238.62h-82.0996c0 89.2402 -67.2002 156.25 -179.17 156.25c-110.09 0 -186.42 -46.1602 -186.42 -134.51z" />
    <glyph glyph-name="S" unicode="s" horiz-adv-x="634" 
d="M125.94 609.05c0 -239.97 483.749 -59.5391 483.749 -386.209c0 -105.46 -74.7002 -239.29 -293.12 -239.29c-194.44 0 -293.57 138.67 -293.57 257.08h82.0098c0 -85.54 81.4102 -175.28 219.891 -175.28c148.31 0 203.27 82.0596 203.27 166.939
c0 228.37 -484.43 49.5801 -484.43 380.04c0 119.05 96.4902 213.6 268.62 213.6c161.33 0 261.29 -99.4502 261.271 -238.62h-82.0996c0 89.2402 -67.2002 156.25 -179.17 156.25c-110.09 0 -186.42 -46.1602 -186.42 -134.51z" />
    <glyph glyph-name="T" unicode="T" horiz-adv-x="773" 
d="M775.6 730.93h-338.829v-730.93h-81.9404v730.93h-338.83v78.9004h759.6v-78.9004z" />
    <glyph glyph-name="T" unicode="t" horiz-adv-x="773" 
d="M775.6 730.93h-338.829v-730.93h-81.9404v730.93h-338.83v78.9004h759.6v-78.9004z" />
    <glyph glyph-name="U" unicode="U" horiz-adv-x="728" 
d="M599.9 299.02v511.049h82.1299v-495.29c0 -114.05 -38.9502 -330.78 -318.521 -330.78c-279.16 0 -318.51 216.73 -318.51 330.78v495.29h82.0996v-511.05c0 -143.64 79.7402 -232.899 236.2 -232.899c158.49 0 236.601 90.3301 236.601 232.9z" />
    <glyph glyph-name="U" unicode="&#xfb;" horiz-adv-x="728" 
d="M599.9 299.02v511.049h82.1299v-495.29c0 -114.05 -38.9502 -330.78 -318.521 -330.78c-279.16 0 -318.51 216.73 -318.51 330.78v495.29h82.0996v-511.05c0 -143.64 79.7402 -232.899 236.2 -232.899c158.49 0 236.601 90.3301 236.601 232.9z" />
    <glyph glyph-name="U" unicode="&#xf9;" horiz-adv-x="728" 
d="M599.9 299.02v511.049h82.1299v-495.29c0 -114.05 -38.9502 -330.78 -318.521 -330.78c-279.16 0 -318.51 216.73 -318.51 330.78v495.29h82.0996v-511.05c0 -143.64 79.7402 -232.899 236.2 -232.899c158.49 0 236.601 90.3301 236.601 232.9z" />
    <glyph glyph-name="U" unicode="&#xdb;" horiz-adv-x="728" 
d="M599.9 299.02v511.049h82.1299v-495.29c0 -114.05 -38.9502 -330.78 -318.521 -330.78c-279.16 0 -318.51 216.73 -318.51 330.78v495.29h82.0996v-511.05c0 -143.64 79.7402 -232.899 236.2 -232.899c158.49 0 236.601 90.3301 236.601 232.9z" />
    <glyph glyph-name="U" unicode="&#xd9;" horiz-adv-x="728" 
d="M599.9 299.02v511.049h82.1299v-495.29c0 -114.05 -38.9502 -330.78 -318.521 -330.78c-279.16 0 -318.51 216.73 -318.51 330.78v495.29h82.0996v-511.05c0 -143.64 79.7402 -232.899 236.2 -232.899c158.49 0 236.601 90.3301 236.601 232.9z" />
    <glyph glyph-name="U" unicode="u" horiz-adv-x="728" 
d="M599.9 299.02v511.049h82.1299v-495.29c0 -114.05 -38.9502 -330.78 -318.521 -330.78c-279.16 0 -318.51 216.73 -318.51 330.78v495.29h82.0996v-511.05c0 -143.64 79.7402 -232.899 236.2 -232.899c158.49 0 236.601 90.3301 236.601 232.9z" />
    <glyph glyph-name="V" unicode="V" horiz-adv-x="690" 
d="M601.56 809.64l87.3906 -0.0800781l-280.76 -809.76h-109.78l-280.76 809.76l87.3896 0.0800781l248.27 -714.86z" />
    <glyph glyph-name="V" unicode="v" horiz-adv-x="690" 
d="M601.56 809.64l87.3906 -0.0800781l-280.76 -809.76h-109.78l-280.76 809.76l87.3896 0.0800781l248.27 -714.86z" />
    <glyph glyph-name="W" unicode="W" horiz-adv-x="1148" 
d="M1057.91 809.83l87.3906 -0.0498047l-245.15 -809.78h-109.77l-216.74 715.89l-216.71 -715.89h-109.78l-245.15 809.78l87.3896 0.0498047l212.64 -714.85l212.66 714.85l58.9502 -0.0302734l58.9805 0.0302734l212.65 -714.85z" />
    <glyph glyph-name="W" unicode="w" horiz-adv-x="1148" 
d="M1057.91 809.83l87.3906 -0.0498047l-245.15 -809.78h-109.77l-216.74 715.89l-216.71 -715.89h-109.78l-245.15 809.78l87.3896 0.0498047l212.64 -714.85l212.66 714.85l58.9502 -0.0302734l58.9805 0.0302734l212.65 -714.85z" />
    <glyph glyph-name="X" unicode="X" horiz-adv-x="669" 
d="M668.31 809.64l-284.321 -409.92l277.38 -399.92h-99.6504l-227.56 328.13l-227.59 -328.13h-99.6396l277.48 399.85l-284.41 409.99h99.6201l234.54 -338.1l234.53 338.1h99.6201z" />
    <glyph glyph-name="X" unicode="x" horiz-adv-x="669" 
d="M668.31 809.64l-284.321 -409.92l277.38 -399.92h-99.6504l-227.56 328.13l-227.59 -328.13h-99.6396l277.48 399.85l-284.41 409.99h99.6201l234.54 -338.1l234.53 338.1h99.6201z" />
    <glyph glyph-name="Y" unicode="Y" horiz-adv-x="609" 
d="M520.86 809.64h94.5303l-270.28 -482.26v-327.58h-82.0596v327.58l-270.05 482.26h94.2998l216.89 -386.43z" />
    <glyph glyph-name="Y" unicode="&#x178;" horiz-adv-x="609" 
d="M520.86 809.64h94.5303l-270.28 -482.26v-327.58h-82.0596v327.58l-270.05 482.26h94.2998l216.89 -386.43z" />
    <glyph glyph-name="Y" unicode="&#xff;" horiz-adv-x="609" 
d="M520.86 809.64h94.5303l-270.28 -482.26v-327.58h-82.0596v327.58l-270.05 482.26h94.2998l216.89 -386.43z" />
    <glyph glyph-name="Y" unicode="&#xfd;" horiz-adv-x="609" 
d="M520.86 809.64h94.5303l-270.28 -482.26v-327.58h-82.0596v327.58l-270.05 482.26h94.2998l216.89 -386.43z" />
    <glyph glyph-name="Y" unicode="&#xdd;" horiz-adv-x="609" 
d="M520.86 809.64h94.5303l-270.28 -482.26v-327.58h-82.0596v327.58l-270.05 482.26h94.2998l216.89 -386.43z" />
    <glyph glyph-name="Y" unicode="y" horiz-adv-x="609" 
d="M520.86 809.64h94.5303l-270.28 -482.26v-327.58h-82.0596v327.58l-270.05 482.26h94.2998l216.89 -386.43z" />
    <glyph glyph-name="Z" unicode="Z" horiz-adv-x="688" 
d="M12 78.9004l554.03 652.029h-554.03v78.9004h662.88v-78.9297l-554.44 -652h554.44v-78.9004h-662.88v78.9004z" />
    <glyph glyph-name="Z" unicode="z" horiz-adv-x="688" 
d="M12 78.9004l554.03 652.029h-554.03v78.9004h662.88v-78.9297l-554.44 -652h554.44v-78.9004h-662.88v78.9004z" />
    <glyph glyph-name="bracketleft" unicode="[" horiz-adv-x="346" 
d="M458.68 -210h-404.68v1224.6h404.68v-78.8896h-322.74v-1066.83h322.74v-78.8799z" />
    <glyph glyph-name="backslash" unicode="\" horiz-adv-x="590" 
d="M54 809.62h90.3311l392.02 -809.62h-90.3203z" />
    <glyph glyph-name="bracketright" unicode="]" horiz-adv-x="346" 
d="M291.24 -210h-404.68v78.8799h322.73v1066.83h-322.73v78.8896h404.68v-1224.6z" />
    <glyph glyph-name="underscore" unicode="_" horiz-adv-x="620" 
d="M565.55 0h-511.55v78.9004h511.55v-78.9004z" />
    <glyph glyph-name="nonbreakingspace" unicode="&#xa0;" horiz-adv-x="376" 
 />
    <glyph glyph-name="sterling" unicode="&#xa3;" horiz-adv-x="598" 
d="M321.77 333.11c-20.2002 -113.22 -169.889 -147.289 -169.889 -254.209h368.3v-78.9004h-466.18c0 214.22 147.91 256.14 183.58 333.109h-153.04v59.7197h154.48c-30.2002 54.2197 -160.181 37.5596 -160.181 216.31c0 131.69 77.2598 216.99 221.75 216.99
c178.12 0 234.53 -115.85 243.48 -226.869c-4.98047 -0.0703125 -48.0908 -0.890625 -81.1611 -1.02051c-15.0801 130.24 -108.24 147.08 -165.681 147.08c-98.8203 0 -140.67 -55.04 -140.67 -139.85c0 -130.87 143.66 -84.6104 164.87 -212.63h159.66v-59.7305h-159.32z
" />
    <glyph glyph-name="yen" unicode="&#xa5;" horiz-adv-x="704" 
d="M442.32 416.32l-49.7109 -88.7305v-3.26953h166.93v-79.1699h-166.93v-245.15h-82.0898v245.15h-166.72v79.1699h166.72v3.26953l-49.6797 88.7305h-247.84v79.1699h203.5l-176.03 314.34h94.2998l216.9 -386.4l216.68 386.4h94.5098l-176.17 -314.34h203.65v-79.1699
h-248.02z" />
    <glyph glyph-name="softhyphen" unicode="&#xad;" horiz-adv-x="0" 
 />
    <glyph glyph-name="Aacute" unicode="&#xc1;" horiz-adv-x="805" 
d="M448.331 809.904l302.809 -809.833h-87.6406l-83.0469 232.92h-357.33l-82.6016 -232.991h-86.5195l302.79 809.904h91.54zM251.896 311.765h300.422l-149.677 422.037zM572.35 1040.78l-117.608 -162.817h-98.0752l117.591 162.817h98.0928z" />
    <glyph glyph-name="Aacute" unicode="&#xe1;" horiz-adv-x="805" 
d="M448.331 809.904l302.809 -809.833h-87.6406l-83.0469 232.92h-357.33l-82.6016 -232.991h-86.5195l302.79 809.904h91.54zM251.896 311.765h300.422l-149.677 422.037zM572.35 1040.78l-117.608 -162.817h-98.0752l117.591 162.817h98.0928z" />
    <glyph glyph-name="Adieresis" unicode="&#xc4;" horiz-adv-x="805" 
d="M448.331 809.904l302.809 -809.833h-87.6406l-83.0469 232.92h-357.33l-82.6016 -232.991h-86.5195l302.79 809.904h91.54zM251.896 311.765h300.422l-149.677 422.037zM359.444 877.888h-92.4131v92.4307h92.4131v-92.4307zM538.109 877.888h-92.4131v92.4307h92.4131
v-92.4307z" />
    <glyph glyph-name="Adieresis" unicode="&#xe4;" horiz-adv-x="805" 
d="M448.331 809.904l302.809 -809.833h-87.6406l-83.0469 232.92h-357.33l-82.6016 -232.991h-86.5195l302.79 809.904h91.54zM251.896 311.765h300.422l-149.677 422.037zM359.444 877.888h-92.4131v92.4307h92.4131v-92.4307zM538.109 877.888h-92.4131v92.4307h92.4131
v-92.4307z" />
    <glyph glyph-name="Eacute" unicode="&#xc9;" horiz-adv-x="652" 
d="M597.669 730.898h-461.762v-257.047h388.259v-78.8984l-388.259 1.65625v-317.765h461.762v-78.8447h-543.669v809.779h543.669v-78.8809zM479.331 1040.74l-117.608 -162.817h-98.0928l117.608 162.817h98.0928z" />
    <glyph glyph-name="Eacute" unicode="&#xe9;" horiz-adv-x="652" 
d="M597.669 730.898h-461.762v-257.047h388.259v-78.8984l-388.259 1.65625v-317.765h461.762v-78.8447h-543.669v809.779h543.669v-78.8809zM479.331 1040.74l-117.608 -162.817h-98.0928l117.608 162.817h98.0928z" />
    <glyph glyph-name="Iacute" unicode="&#xcd;" horiz-adv-x="324" 
d="M148.265 0h-82.459v809.833h82.459v-809.833zM171.591 1040.76h98.0928l-117.591 -162.817h-98.0928z" />
    <glyph glyph-name="Iacute" unicode="&#xed;" horiz-adv-x="324" 
d="M148.265 0h-82.459v809.833h82.459v-809.833zM171.591 1040.76h98.0928l-117.591 -162.817h-98.0928z" />
    <glyph glyph-name="Oacute" unicode="&#xd3;" horiz-adv-x="816" 
d="M563.9 1041.02l-117.59 -162.82h-98.0898l117.6 162.82h98.0801zM407.03 826.329c231.46 0 381.011 -161.341 381.011 -421.171c0 -310.51 -196.83 -421.16 -381.01 -421.16c-231.48 0 -381.03 165.33 -381.03 421.16c0 130.43 39.0098 239.16 112.819 314.44
c67.46 68.8203 162.729 106.73 268.21 106.73zM407.031 66.1182c187.14 0 298.91 122.19 298.91 339.04c0 252.21 -152.24 339.05 -298.91 339.05s-298.91 -96.1201 -298.91 -339.05c0 -250.47 152.24 -339.04 298.91 -339.04z" />
    <glyph glyph-name="Oacute" unicode="&#xf3;" horiz-adv-x="816" 
d="M563.9 1041.02l-117.59 -162.82h-98.0898l117.6 162.82h98.0801zM407.03 826.329c231.46 0 381.011 -161.341 381.011 -421.171c0 -310.51 -196.83 -421.16 -381.01 -421.16c-231.48 0 -381.03 165.33 -381.03 421.16c0 130.43 39.0098 239.16 112.819 314.44
c67.46 68.8203 162.729 106.73 268.21 106.73zM407.031 66.1182c187.14 0 298.91 122.19 298.91 339.04c0 252.21 -152.24 339.05 -298.91 339.05s-298.91 -96.1201 -298.91 -339.05c0 -250.47 152.24 -339.04 298.91 -339.04z" />
    <glyph glyph-name="Odieresis" unicode="&#xd6;" horiz-adv-x="870" 
d="M391.922 878.108h-92.4131v92.4307h92.4131v-92.4307zM570.569 878.108h-92.4131v92.4307h92.4131v-92.4307zM435.03 826.329c231.46 0 381.029 -161.34 381.012 -421.164c0 -310.519 -196.827 -421.165 -381.012 -421.165c-231.46 0 -381.012 165.328 -381.012 421.164
c0 130.429 38.9951 239.17 112.801 314.436c67.4668 68.8203 162.729 106.729 268.211 106.729zM435.029 66.1211c187.141 0 298.907 122.185 298.907 339.043c0 252.203 -152.223 339.043 -298.908 339.043s-298.908 -96.1162 -298.908 -339.043
c0 -250.477 152.241 -339.043 298.909 -339.043z" />
    <glyph glyph-name="Odieresis" unicode="&#xf6;" horiz-adv-x="870" 
d="M391.922 878.108h-92.4131v92.4307h92.4131v-92.4307zM570.569 878.108h-92.4131v92.4307h92.4131v-92.4307zM435.03 826.329c231.46 0 381.029 -161.34 381.012 -421.164c0 -310.519 -196.827 -421.165 -381.012 -421.165c-231.46 0 -381.012 165.328 -381.012 421.164
c0 130.429 38.9951 239.17 112.801 314.436c67.4668 68.8203 162.729 106.729 268.211 106.729zM435.029 66.1211c187.141 0 298.907 122.185 298.907 339.043c0 252.203 -152.223 339.043 -298.908 339.043s-298.908 -96.1162 -298.908 -339.043
c0 -250.477 152.241 -339.043 298.909 -339.043z" />
    <glyph glyph-name="Uacute" unicode="&#xda;" horiz-adv-x="745" 
d="M608.905 810.072h82.1211v-495.29c0 -114.047 -38.9414 -330.781 -318.513 -330.781c-279.162 0 -318.514 216.734 -318.514 330.781v495.29h82.1035v-511.049c0 -143.641 79.7354 -232.902 236.196 -232.902c158.491 0 236.605 90.3301 236.605 232.902v511.049z
M538.928 1041.05l-117.591 -162.817h-98.0928l117.608 162.817h98.0752z" />
    <glyph glyph-name="Uacute" unicode="&#xfa;" horiz-adv-x="745" 
d="M608.905 810.072h82.1211v-495.29c0 -114.047 -38.9414 -330.781 -318.513 -330.781c-279.162 0 -318.514 216.734 -318.514 330.781v495.29h82.1035v-511.049c0 -143.641 79.7354 -232.902 236.196 -232.902c158.491 0 236.605 90.3301 236.605 232.902v511.049z
M538.928 1041.05l-117.591 -162.817h-98.0928l117.608 162.817h98.0752z" />
    <glyph glyph-name="Udieresis" unicode="&#xdc;" horiz-adv-x="745" 
d="M608.905 810.072h82.1221v-495.29c0 -114.047 -38.9414 -330.781 -318.513 -330.781c-279.162 0 -318.514 216.734 -318.514 330.781v495.29h82.1035v-511.049c0 -143.641 79.7168 -232.902 236.195 -232.902c158.491 0 236.605 90.3301 236.605 232.902v511.049z
M329.389 878.162h-92.4131v92.4307h92.4131v-92.4307zM508.036 878.162h-92.4131v92.4307h92.4131v-92.4307z" />
    <glyph glyph-name="Udieresis" unicode="&#xfc;" horiz-adv-x="745" 
d="M608.905 810.072h82.1221v-495.29c0 -114.047 -38.9414 -330.781 -318.513 -330.781c-279.162 0 -318.514 216.734 -318.514 330.781v495.29h82.1035v-511.049c0 -143.641 79.7168 -232.902 236.195 -232.902c158.491 0 236.605 90.3301 236.605 232.902v511.049z
M329.389 878.162h-92.4131v92.4307h92.4131v-92.4307zM508.036 878.162h-92.4131v92.4307h92.4131v-92.4307z" />
    <glyph glyph-name="Aogonek" unicode="&#x104;" horiz-adv-x="697" 
d="M596.35 -45.0098c0 -41.9199 96.6094 -17.79 96.5898 -17.79v-55.5195s-154.37 -34.6504 -154.37 67.2295c0 43.8604 26.8496 70.8906 57.46 86.9102l-69.79 197.58h-357.49l-83.2197 -232.99h-86.5195l302.72 809.83h91.54l302.88 -809.76h-26.75
c-24.4297 -1.91992 -73.0498 -10.1699 -73.0498 -45.4902zM196.889 312.17l301.22 -0.0107422l-150.46 422.03z" />
    <glyph glyph-name="Aogonek" unicode="&#x105;" horiz-adv-x="697" 
d="M596.35 -45.0098c0 -41.9199 96.6094 -17.79 96.5898 -17.79v-55.5195s-154.37 -34.6504 -154.37 67.2295c0 43.8604 26.8496 70.8906 57.46 86.9102l-69.79 197.58h-357.49l-83.2197 -232.99h-86.5195l302.72 809.83h91.54l302.88 -809.76h-26.75
c-24.4297 -1.91992 -73.0498 -10.1699 -73.0498 -45.4902zM196.889 312.17l301.22 -0.0107422l-150.46 422.03z" />
    <glyph glyph-name="Cacute" unicode="&#x106;" 
d="M540.84 1041.02l-117.61 -162.82h-98.0898l117.61 162.82h98.0898zM694.72 295.27l83.9697 -0.00195312c-41.0596 -227.17 -211.14 -311.27 -371.68 -311.27c-231.46 0 -381.01 165.33 -381.01 421.16c0 130.43 39.0098 239.16 112.779 314.44
c67.4902 68.8203 162.73 106.73 268.211 106.73c190.05 0 324.68 -108.9 366.859 -291.631h-84.4404c-43.0703 153.15 -164.45 209.511 -282.4 209.511c-146.68 0 -298.91 -96.1201 -298.91 -339.05c0 -250.47 152.24 -339.04 298.91 -339.04
c152.69 0 255.141 81.4102 287.711 229.15z" />
    <glyph glyph-name="Cacute" unicode="&#x107;" 
d="M540.84 1041.02l-117.61 -162.82h-98.0898l117.61 162.82h98.0898zM694.72 295.27l83.9697 -0.00195312c-41.0596 -227.17 -211.14 -311.27 -371.68 -311.27c-231.46 0 -381.01 165.33 -381.01 421.16c0 130.43 39.0098 239.16 112.779 314.44
c67.4902 68.8203 162.73 106.73 268.211 106.73c190.05 0 324.68 -108.9 366.859 -291.631h-84.4404c-43.0703 153.15 -164.45 209.511 -282.4 209.511c-146.68 0 -298.91 -96.1201 -298.91 -339.05c0 -250.47 152.24 -339.04 298.91 -339.04
c152.69 0 255.141 81.4102 287.711 229.15z" />
    <glyph glyph-name="Ccaron" unicode="&#x10c;" horiz-adv-x="861" 
d="M722.738 295.266l83.9697 -0.00195312c-41.0605 -227.168 -211.143 -311.266 -371.681 -311.266c-231.478 0 -381.029 165.328 -381.029 421.164c0 130.429 39.0127 239.152 112.818 314.436c67.4668 68.8203 162.729 106.729 268.211 106.729
c190.025 0 324.656 -108.901 366.839 -291.626h-84.4355c-43.0723 153.149 -164.455 209.505 -282.401 209.505c-146.668 0 -298.909 -96.1162 -298.909 -339.043c0 -250.477 152.241 -339.043 298.909 -339.043c152.687 0 255.142 81.4092 287.709 229.146z
M492.824 878.017h-112.996l-100.016 162.996h91.0059l65.5078 -106.765l65.4902 106.765h91.0059z" />
    <glyph glyph-name="Ccaron" unicode="&#x10d;" horiz-adv-x="861" 
d="M722.738 295.266l83.9697 -0.00195312c-41.0605 -227.168 -211.143 -311.266 -371.681 -311.266c-231.478 0 -381.029 165.328 -381.029 421.164c0 130.429 39.0127 239.152 112.818 314.436c67.4668 68.8203 162.729 106.729 268.211 106.729
c190.025 0 324.656 -108.901 366.839 -291.626h-84.4355c-43.0723 153.149 -164.455 209.505 -282.401 209.505c-146.668 0 -298.909 -96.1162 -298.909 -339.043c0 -250.477 152.241 -339.043 298.909 -339.043c152.687 0 255.142 81.4092 287.709 229.146z
M492.824 878.017h-112.996l-100.016 162.996h91.0059l65.5078 -106.765l65.4902 106.765h91.0059z" />
    <glyph glyph-name="Eogonek" unicode="&#x118;" horiz-adv-x="661" 
d="M510.69 -46c0 -41.9102 96.6104 -17.7793 96.6104 -17.7988v-55.5195s-154.38 -34.6504 -154.38 67.2295c0 21.0098 6.21973 38.1299 15.9893 52.0703h-414.91v809.78h543.69v-78.9004h-461.76v-257.03h388.25v-78.9004l-388.25 1.63965v-317.75h461.76v-78.8398
h-5.11035c-18.0801 -0.570312 -81.8896 -5.4707 -81.8896 -45.9805z" />
    <glyph glyph-name="Eogonek" unicode="&#x119;" horiz-adv-x="661" 
d="M510.69 -46c0 -41.9102 96.6104 -17.7793 96.6104 -17.7988v-55.5195s-154.38 -34.6504 -154.38 67.2295c0 21.0098 6.21973 38.1299 15.9893 52.0703h-414.91v809.78h543.69v-78.9004h-461.76v-257.03h388.25v-78.9004l-388.25 1.63965v-317.75h461.76v-78.8398
h-5.11035c-18.0801 -0.570312 -81.8896 -5.4707 -81.8896 -45.9805z" />
    <glyph glyph-name="Lslash" unicode="&#x141;" horiz-adv-x="661" 
d="M206.47 78.9004l457.04 0.000976562v-78.9004h-538.96v366.98l-114.55 -50.3203v89.3896l114.55 50.2998v353.02h81.9199v-317.04l294.49 129.36l-0.00976562 -89.3799l-294.48 -129.34v-324.07z" />
    <glyph glyph-name="Lslash" unicode="&#x142;" horiz-adv-x="661" 
d="M206.47 78.9004l457.04 0.000976562v-78.9004h-538.96v366.98l-114.55 -50.3203v89.3896l114.55 50.2998v353.02h81.9199v-317.04l294.49 129.36l-0.00976562 -89.3799l-294.48 -129.34v-324.07z" />
    <glyph glyph-name="Nacute" unicode="&#x143;" horiz-adv-x="790" 
d="M558.5 1040.81l-117.59 -162.82h-98.0996l117.59 162.82h98.0996zM653.101 809.81h82.1201v-809.81h-106.34l-492.81 715.39l0.0498047 -715.39h-82.1201v809.81h108.14l490.96 -714.92v714.92z" />
    <glyph glyph-name="Nacute" unicode="&#x144;" horiz-adv-x="790" 
d="M558.5 1040.81l-117.59 -162.82h-98.0996l117.59 162.82h98.0996zM653.101 809.81h82.1201v-809.81h-106.34l-492.81 715.39l0.0498047 -715.39h-82.1201v809.81h108.14l490.96 -714.92v714.92z" />
    <glyph glyph-name="Sacute" unicode="&#x15a;" horiz-adv-x="635" 
d="M126.95 609.49c0 -239.99 483.74 -59.5488 483.74 -386.199c0 -105.46 -74.7002 -239.29 -293.12 -239.29c-194.44 0 -293.57 138.67 -293.57 257.08h82.0303c0 -85.54 81.4102 -175.28 219.891 -175.28c148.32 0 203.29 82.0703 203.29 166.95
c0 228.36 -484.43 49.5703 -484.43 380.03c0 119.05 96.4697 213.6 268.6 213.6c161.32 0 261.29 -99.4404 261.29 -238.631h-82.1104c0 89.2402 -67.2002 156.24 -179.16 156.24c-110.09 0 -186.45 -46.1504 -186.45 -134.5zM449.62 1041.05l-117.609 -162.82h-98.0801
l117.59 162.82h98.0996z" />
    <glyph glyph-name="Sacute" unicode="&#x15b;" horiz-adv-x="635" 
d="M126.95 609.49c0 -239.99 483.74 -59.5488 483.74 -386.199c0 -105.46 -74.7002 -239.29 -293.12 -239.29c-194.44 0 -293.57 138.67 -293.57 257.08h82.0303c0 -85.54 81.4102 -175.28 219.891 -175.28c148.32 0 203.29 82.0703 203.29 166.95
c0 228.36 -484.43 49.5703 -484.43 380.03c0 119.05 96.4697 213.6 268.6 213.6c161.32 0 261.29 -99.4404 261.29 -238.631h-82.1104c0 89.2402 -67.2002 156.24 -179.16 156.24c-110.09 0 -186.45 -46.1504 -186.45 -134.5zM449.62 1041.05l-117.609 -162.82h-98.0801
l117.59 162.82h98.0996z" />
    <glyph glyph-name="Scaron" unicode="&#x160;" horiz-adv-x="695" 
d="M156.954 609.487c0 -239.988 483.734 -59.541 483.734 -386.191c0 -105.465 -74.6963 -239.294 -293.122 -239.294c-194.441 0 -293.567 138.673 -293.567 257.082h82.0146c0 -85.54 81.4092 -175.282 219.886 -175.282c148.323 0 203.29 82.0674 203.29 166.948
c0 228.361 -484.429 49.5713 -484.429 380.032c0 119.051 96.4727 213.601 268.603 213.601c161.322 0 261.285 -99.4463 261.285 -238.636h-82.1035c0 89.2432 -67.1992 156.247 -179.163 156.247c-110.094 0 -186.428 -46.1533 -186.428 -134.507zM396.64 878.057
h-113.014l-99.998 162.996h91.0059l65.4902 -106.765l65.5078 106.765h91.0059z" />
    <glyph glyph-name="Scaron" unicode="&#x161;" horiz-adv-x="695" 
d="M156.954 609.487c0 -239.988 483.734 -59.541 483.734 -386.191c0 -105.465 -74.6963 -239.294 -293.122 -239.294c-194.441 0 -293.567 138.673 -293.567 257.082h82.0146c0 -85.54 81.4092 -175.282 219.886 -175.282c148.323 0 203.29 82.0674 203.29 166.948
c0 228.361 -484.429 49.5713 -484.429 380.032c0 119.051 96.4727 213.601 268.603 213.601c161.322 0 261.285 -99.4463 261.285 -238.636h-82.1035c0 89.2432 -67.1992 156.247 -179.163 156.247c-110.094 0 -186.428 -46.1533 -186.428 -134.507zM396.64 878.057
h-113.014l-99.998 162.996h91.0059l65.4902 -106.765l65.5078 106.765h91.0059z" />
    <glyph glyph-name="Zacute" unicode="&#x179;" horiz-adv-x="771" 
d="M527.033 1040.81l-117.591 -162.817h-98.0928l117.608 162.817h98.0752zM716.88 809.815l-0.000976562 -82.0322l-554.441 -645.68h554.442v-82.1035h-662.88v82.1035l554.032 645.608h-554.032v82.1035h662.88z" />
    <glyph glyph-name="Zacute" unicode="&#x17a;" horiz-adv-x="771" 
d="M527.033 1040.81l-117.591 -162.817h-98.0928l117.608 162.817h98.0752zM716.88 809.815l-0.000976562 -82.0322l-554.441 -645.68h554.442v-82.1035h-662.88v82.1035l554.032 645.608h-554.032v82.1035h662.88z" />
    <glyph glyph-name="Zdot" unicode="&#x17b;" horiz-adv-x="688" 
d="M674.88 809.83v-82.0303l-554.44 -645.68h554.44v-82.1201h-662.88v82.1201l554.03 645.61h-554.03v82.0996h662.88zM389.649 877.819h-92.4199v92.4297h92.4199v-92.4297z" />
    <glyph glyph-name="Zdot" unicode="&#x17c;" horiz-adv-x="688" 
d="M674.88 809.83v-82.0303l-554.44 -645.68h554.44v-82.1201h-662.88v82.1201l554.03 645.61h-554.03v82.0996h662.88zM389.649 877.819h-92.4199v92.4297h92.4199v-92.4297z" />
    <glyph glyph-name="Zcaron" unicode="&#x17d;" horiz-adv-x="771" 
d="M716.88 809.814l-0.000976562 -82.0322l-554.441 -645.68h554.442v-82.1035h-662.88v82.1035l554.032 645.608h-554.032v82.1035h662.88zM453.351 877.815h-112.996l-100.016 162.996h91.0059l65.5078 -106.765l65.5078 106.765h90.9883z" />
    <glyph glyph-name="Zcaron" unicode="&#x17e;" horiz-adv-x="771" 
d="M716.88 809.814l-0.000976562 -82.0322l-554.441 -645.68h554.442v-82.1035h-662.88v82.1035l554.032 645.608h-554.032v82.1035h662.88zM453.351 877.815h-112.996l-100.016 162.996h91.0059l65.5078 -106.765l65.5078 106.765h90.9883z" />
    <glyph glyph-name="Iocyrillic" unicode="&#x401;" horiz-adv-x="609" 
d="M597.69 730.88l-461.76 -0.000976562v-257.05h388.25v-78.8896l-388.25 1.65039v-317.76h461.76v-78.8301h-543.69v809.76h543.69v-78.8799zM282.721 877.739h-92.4199v92.4404h92.4199v-92.4404zM461.36 877.739h-92.4102v92.4404h92.4102v-92.4404z" />
    <glyph glyph-name="Iocyrillic" unicode="&#x451;" horiz-adv-x="609" 
d="M597.69 730.88l-461.76 -0.000976562v-257.05h388.25v-78.8896l-388.25 1.65039v-317.76h461.76v-78.8301h-543.69v809.76h543.69v-78.8799zM282.721 877.739h-92.4199v92.4404h92.4199v-92.4404zM461.36 877.739h-92.4102v92.4404h92.4102v-92.4404z" />
    <glyph glyph-name="Ecyrillic" unicode="&#x404;" 
d="M694.72 295.27l83.9697 -0.000976562c-41.0596 -227.17 -211.14 -311.27 -371.68 -311.27c-231.46 0 -381.01 165.33 -381.01 421.16c0 130.43 39.0098 239.17 112.8 314.439c67.4805 68.8203 162.75 106.73 268.21 106.73c190.04 0 324.67 -108.9 366.84 -291.631
h-84.4404c-43.0703 153.15 -164.45 209.511 -282.4 209.511c-131.8 0 -267.75 -78.0303 -293.99 -270.08h349.12v-78.9199h-353.65c4.12012 -242.62 153.87 -329.09 298.521 -329.09c152.69 0 255.141 81.4102 287.711 229.15z" />
    <glyph glyph-name="Ecyrillic" unicode="&#x454;" 
d="M694.72 295.27l83.9697 -0.000976562c-41.0596 -227.17 -211.14 -311.27 -371.68 -311.27c-231.46 0 -381.01 165.33 -381.01 421.16c0 130.43 39.0098 239.17 112.8 314.439c67.4805 68.8203 162.75 106.73 268.21 106.73c190.04 0 324.67 -108.9 366.84 -291.631
h-84.4404c-43.0703 153.15 -164.45 209.511 -282.4 209.511c-131.8 0 -267.75 -78.0303 -293.99 -270.08h349.12v-78.9199h-353.65c4.12012 -242.62 153.87 -329.09 298.521 -329.09c152.69 0 255.141 81.4102 287.711 229.15z" />
    <glyph glyph-name="Icyrillic" unicode="&#x406;" horiz-adv-x="190" 
d="M135.93 0h-81.9297v809.37h81.9297v-809.37z" />
    <glyph glyph-name="Icyrillic" unicode="&#x456;" horiz-adv-x="190" 
d="M135.93 0h-81.9297v809.37h81.9297v-809.37z" />
    <glyph glyph-name="Yicyrillic" unicode="&#x407;" horiz-adv-x="278" 
d="M213.08 0h-81.9199v809.83h81.9199v-809.83zM120.08 877.99h-92.4102v92.4297h92.4102v-92.4297zM316.54 877.99h-92.4199v92.4297h92.4199v-92.4297z" />
    <glyph glyph-name="Yicyrillic" unicode="&#x457;" horiz-adv-x="278" 
d="M213.08 0h-81.9199v809.83h81.9199v-809.83zM120.08 877.99h-92.4102v92.4297h92.4102v-92.4297zM316.54 877.99h-92.4199v92.4297h92.4199v-92.4297z" />
    <glyph glyph-name="Acyrillic" unicode="&#x410;" horiz-adv-x="697" 
d="M526.45 232.99h-357.331l-82.5996 -232.99h-86.5195l302.79 809.9h91.54l302.81 -809.83h-87.6396zM348.639 733.8l-150.74 -422.04h300.42z" />
    <glyph glyph-name="Acyrillic" unicode="&#x430;" horiz-adv-x="697" 
d="M526.45 232.99h-357.331l-82.5996 -232.99h-86.5195l302.79 809.9h91.54l302.81 -809.83h-87.6396zM348.639 733.8l-150.74 -422.04h300.42z" />
    <glyph glyph-name="Becyrillic" unicode="&#x411;" horiz-adv-x="658" 
d="M388.93 453.93c169.82 0 251.01 -117.11 251.01 -222.591c0 -164.59 -81.0898 -231.34 -268.76 -231.34h-317.18v809.37h507.13v-79.6299h-425.19v-275.81h252.99zM386.398 79.2695c102.58 0 172.35 39.1406 172.359 140.24c0 81.75 -64.2197 155.22 -174.739 155.22
h-248.08v-295.46h250.46z" />
    <glyph glyph-name="Becyrillic" unicode="&#x431;" horiz-adv-x="658" 
d="M388.93 453.93c169.82 0 251.01 -117.11 251.01 -222.591c0 -164.59 -81.0898 -231.34 -268.76 -231.34h-317.18v809.37h507.13v-79.6299h-425.19v-275.81h252.99zM386.398 79.2695c102.58 0 172.35 39.1406 172.359 140.24c0 81.75 -64.2197 155.22 -174.739 155.22
h-248.08v-295.46h250.46z" />
    <glyph glyph-name="Vecyrillic" unicode="&#x412;" horiz-adv-x="694" 
d="M487.86 418.37c119.21 -17.6299 152.08 -115.009 152.08 -204.839c0 -128.08 -81.0898 -213.53 -268.76 -213.53h-317.18v809.35h306.57c141.13 0 230.14 -109.7 230.149 -227.431c0 -52.8496 -24.9199 -136.17 -102.86 -163.55zM336.63 729.721l-200.699 -0.000976562
v-275.81h199.779c111.77 0.0498047 171.93 33.3896 171.93 136.29c0 81.7305 -56.0498 139.521 -171.01 139.521zM386.4 79.25c102.58 0 172.35 39.1406 172.359 140.24c0 81.75 -64.2197 155.22 -174.739 155.22h-248.08v-295.46h250.46z" />
    <glyph glyph-name="Vecyrillic" unicode="&#x432;" horiz-adv-x="694" 
d="M487.86 418.37c119.21 -17.6299 152.08 -115.009 152.08 -204.839c0 -128.08 -81.0898 -213.53 -268.76 -213.53h-317.18v809.35h306.57c141.13 0 230.14 -109.7 230.149 -227.431c0 -52.8496 -24.9199 -136.17 -102.86 -163.55zM336.63 729.721l-200.699 -0.000976562
v-275.81h199.779c111.77 0.0498047 171.93 33.3896 171.93 136.29c0 81.7305 -56.0498 139.521 -171.01 139.521zM386.4 79.25c102.58 0 172.35 39.1406 172.359 140.24c0 81.75 -64.2197 155.22 -174.739 155.22h-248.08v-295.46h250.46z" />
    <glyph glyph-name="Gecyrillic" unicode="&#x413;" horiz-adv-x="574" 
d="M577.36 809.42l-0.000976562 -78.8799h-421.43v-730.54h-81.9297v809.42h503.36z" />
    <glyph glyph-name="Gecyrillic" unicode="&#x433;" horiz-adv-x="574" 
d="M577.36 809.42l-0.000976562 -78.8799h-421.43v-730.54h-81.9297v809.42h503.36z" />
    <glyph glyph-name="Decyrillic" unicode="&#x414;" horiz-adv-x="869" 
d="M632.207 76.7041v655.171h-315.61v-138.815c2.99121 -146.828 -30.9648 -377.522 -88.8877 -516.355h404.498zM711.105 75.708h161.785v-238.707h-78.8984v162.8h-719.094v-162.8h-78.8984v238.707h123.841c73.9121 70.9033 114.866 310.607 116.86 508.36v224.711
h474.404v-733.071z" />
    <glyph glyph-name="Decyrillic" unicode="&#x434;" horiz-adv-x="869" 
d="M632.207 76.7041v655.171h-315.61v-138.815c2.99121 -146.828 -30.9648 -377.522 -88.8877 -516.355h404.498zM711.105 75.708h161.785v-238.707h-78.8984v162.8h-719.094v-162.8h-78.8984v238.707h123.841c73.9121 70.9033 114.866 310.607 116.86 508.36v224.711
h474.404v-733.071z" />
    <glyph glyph-name="Iecyrillic" unicode="&#x415;" horiz-adv-x="609" 
d="M135.91 730.88v-257.029h388.27v-78.9004l-388.27 1.63965v-317.75h461.76v-78.8398h-543.67v809.78h543.67v-78.9004h-461.76z" />
    <glyph glyph-name="Iecyrillic" unicode="&#x435;" horiz-adv-x="609" 
d="M135.91 730.88v-257.029h388.27v-78.9004l-388.27 1.63965v-317.75h461.76v-78.8398h-543.67v809.78h543.67v-78.9004h-461.76z" />
    <glyph glyph-name="Zhecyrillic" unicode="&#x416;" horiz-adv-x="904" 
d="M670.3 420.99l226.301 -420.99h-89.4199l-213.78 386.34h-102.78v-386.34h-78.6396v386.34h-102.78l-213.78 -386.34h-89.4199l226.3 420.99l-220.17 388.75h91.04l206.15 -354.01h102.66v354.01h78.6396v-354.01h102.64l206.17 354.01h91.0498z" />
    <glyph glyph-name="Zhecyrillic" unicode="&#x436;" horiz-adv-x="904" 
d="M670.3 420.99l226.301 -420.99h-89.4199l-213.78 386.34h-102.78v-386.34h-78.6396v386.34h-102.78l-213.78 -386.34h-89.4199l226.3 420.99l-220.17 388.75h91.04l206.15 -354.01h102.66v354.01h78.6396v-354.01h102.64l206.17 354.01h91.0498z" />
    <glyph glyph-name="Zecyrillic" unicode="&#x417;" horiz-adv-x="641" 
d="M607.3 222.3c0 -163.18 -98.7363 -238.257 -286.356 -238.297c-298.32 0 -305.94 184.47 -305.94 258.67h76.8896c0 -42.1104 9.51953 -180.091 217.479 -180.091c181.73 0 229.75 86.6396 219.35 180.39c-7.73047 69.6396 -89.5508 129.649 -233.721 129.649v74.8896
c200.46 0 212.64 115.63 212.64 159.25c0 96.3301 -93.3604 140.15 -175.96 140.15c-133.58 0 -192.271 -74.3896 -204.431 -157.54h-81.46c9.12988 122.56 97.6299 236.119 273.26 236.119c187.63 0 268.7 -94.7402 268.7 -238.26
c0 -138.74 -123.58 -175.82 -123.58 -175.82s143.13 -20.1299 143.13 -189.11z" />
    <glyph glyph-name="Zecyrillic" unicode="&#x437;" horiz-adv-x="641" 
d="M607.3 222.3c0 -163.18 -98.7363 -238.257 -286.356 -238.297c-298.32 0 -305.94 184.47 -305.94 258.67h76.8896c0 -42.1104 9.51953 -180.091 217.479 -180.091c181.73 0 229.75 86.6396 219.35 180.39c-7.73047 69.6396 -89.5508 129.649 -233.721 129.649v74.8896
c200.46 0 212.64 115.63 212.64 159.25c0 96.3301 -93.3604 140.15 -175.96 140.15c-133.58 0 -192.271 -74.3896 -204.431 -157.54h-81.46c9.12988 122.56 97.6299 236.119 273.26 236.119c187.63 0 268.7 -94.7402 268.7 -238.26
c0 -138.74 -123.58 -175.82 -123.58 -175.82s143.13 -20.1299 143.13 -189.11z" />
    <glyph glyph-name="Iicyrillic" unicode="&#x418;" horiz-adv-x="791" 
d="M653.15 715.39l-492.81 -715.39h-106.34v809.81h82.1201v-714.92l490.96 714.92h108.14v-809.81h-82.1201z" />
    <glyph glyph-name="Iicyrillic" unicode="&#x438;" horiz-adv-x="791" 
d="M653.15 715.39l-492.81 -715.39h-106.34v809.81h82.1201v-714.92l490.96 714.92h108.14v-809.81h-82.1201z" />
    <glyph glyph-name="Iishortcyrillic" unicode="&#x419;" horiz-adv-x="791" 
d="M395.06 825.64c-95.7803 0 -180.74 68.5801 -180.74 176.64l65.5303 0.179688c0 -51.1201 35.8799 -113.43 115.21 -113.43c79.3604 0 114.13 62.3096 114.13 113.43l65.71 -0.179688c0 -108.06 -84.0303 -176.64 -179.84 -176.64zM627.079 809.83h108.14v-809.83
h-82.1201l0.0498047 715.39l-492.81 -715.39h-106.34v809.83h82.1201v-714.92z" />
    <glyph glyph-name="Iishortcyrillic" unicode="&#x439;" horiz-adv-x="791" 
d="M395.06 825.64c-95.7803 0 -180.74 68.5801 -180.74 176.64l65.5303 0.179688c0 -51.1201 35.8799 -113.43 115.21 -113.43c79.3604 0 114.13 62.3096 114.13 113.43l65.71 -0.179688c0 -108.06 -84.0303 -176.64 -179.84 -176.64zM627.079 809.83h108.14v-809.83
h-82.1201l0.0498047 715.39l-492.81 -715.39h-106.34v809.83h82.1201v-714.92z" />
    <glyph glyph-name="Kacyrillic" unicode="&#x41a;" horiz-adv-x="693" 
d="M135.68 361.89l410.278 447.94h110.99l-299.64 -326.91l336.65 -482.92h-99.6602l-293.19 421.54l-165.43 -181.05v-240.49h-81.6797v809.83h81.9404z" />
    <glyph glyph-name="Kacyrillic" unicode="&#x43a;" horiz-adv-x="693" 
d="M135.68 361.89l410.278 447.94h110.99l-299.64 -326.91l336.65 -482.92h-99.6602l-293.19 421.54l-165.43 -181.05v-240.49h-81.6797v809.83h81.9404z" />
    <glyph glyph-name="Elcyrillic" unicode="&#x41b;" horiz-adv-x="690" 
d="M554.285 731.38l-320.17 -0.00195312v-46.0283c0 -172.077 -0.99707 -306.156 -21.0107 -466.231c-21.0107 -176.101 -60.0234 -219.12 -218.104 -219.12v78.0439c120.065 0 128.061 10.0068 148.074 191.094c7.99512 70.0312 17.0049 181.104 17.0049 315.166v225.121
h473.247v-809.423h-79.041v731.38z" />
    <glyph glyph-name="Elcyrillic" unicode="&#x43b;" horiz-adv-x="690" 
d="M554.285 731.38l-320.17 -0.00195312v-46.0283c0 -172.077 -0.99707 -306.156 -21.0107 -466.231c-21.0107 -176.101 -60.0234 -219.12 -218.104 -219.12v78.0439c120.065 0 128.061 10.0068 148.074 191.094c7.99512 70.0312 17.0049 181.104 17.0049 315.166v225.121
h473.247v-809.423h-79.041v731.38z" />
    <glyph glyph-name="Emcyrillic" unicode="&#x41c;" horiz-adv-x="908" 
d="M416.87 0l-280.2 715.19v-715.19h-82.6699v809.81h131.37l268.68 -693.8l267.09 693.8h132.58v-809.81h-82.75l0.110352 715.19l-279.82 -715.19h-74.3896z" />
    <glyph glyph-name="Emcyrillic" unicode="&#x43c;" horiz-adv-x="908" 
d="M416.87 0l-280.2 715.19v-715.19h-82.6699v809.81h131.37l268.68 -693.8l267.09 693.8h132.58v-809.81h-82.75l0.110352 715.19l-279.82 -715.19h-74.3896z" />
    <glyph glyph-name="Encyrillic" unicode="&#x41d;" horiz-adv-x="733" 
d="M596.58 0v395.01h-460.21v-395.01h-82.3701v809.83h82.3701v-335.91h460.21v335.91h82.2803v-809.83h-82.2803z" />
    <glyph glyph-name="Encyrillic" unicode="&#x43d;" horiz-adv-x="733" 
d="M596.58 0v395.01h-460.21v-395.01h-82.3701v809.83h82.3701v-335.91h460.21v335.91h82.2803v-809.83h-82.2803z" />
    <glyph glyph-name="Ocyrillic" unicode="&#x41e;" horiz-adv-x="816" 
d="M407.03 826.33c231.46 0 381.011 -161.32 381.03 -421.17c0 -310.51 -196.83 -421.16 -381.03 -421.16c-231.48 0 -381.03 165.33 -381.03 421.16c0 130.43 39.0098 239.17 112.8 314.439c67.4902 68.8203 162.73 106.73 268.23 106.73zM407.031 66.1201
c187.12 0 298.891 122.2 298.91 339.04c0 252.21 -152.24 339.05 -298.91 339.05s-298.91 -96.1201 -298.91 -339.05c0 -250.47 152.24 -339.04 298.91 -339.04z" />
    <glyph glyph-name="Ocyrillic" unicode="&#x43e;" horiz-adv-x="816" 
d="M407.03 826.33c231.46 0 381.011 -161.32 381.03 -421.17c0 -310.51 -196.83 -421.16 -381.03 -421.16c-231.48 0 -381.03 165.33 -381.03 421.16c0 130.43 39.0098 239.17 112.8 314.439c67.4902 68.8203 162.73 106.73 268.23 106.73zM407.031 66.1201
c187.12 0 298.891 122.2 298.91 339.04c0 252.21 -152.24 339.05 -298.91 339.05s-298.91 -96.1201 -298.91 -339.05c0 -250.47 152.24 -339.04 298.91 -339.04z" />
    <glyph glyph-name="Pecyrillic" unicode="&#x41f;" horiz-adv-x="733" 
d="M596.58 0v730.92h-460.21v-730.92h-82.3701v809.83h624.86v-809.83h-82.2803z" />
    <glyph glyph-name="Pecyrillic" unicode="&#x43f;" horiz-adv-x="733" 
d="M596.58 0v730.92h-460.21v-730.92h-82.3701v809.83h624.86v-809.83h-82.2803z" />
    <glyph glyph-name="Ercyrillic" unicode="&#x420;" horiz-adv-x="660" 
d="M382.68 809.81c172.25 -0.0302734 265.22 -123.05 265.22 -238.83c0 -116.73 -90.9697 -234.931 -264.859 -234.931h-245.19v-336.05h-83.8496v809.48zM398.81 418.26c78.8604 0 167.399 50.0898 167.38 152.72c0 103.21 -89.3203 156.71 -167.38 156.71h-260.96v-309.43
h260.96z" />
    <glyph glyph-name="Ercyrillic" unicode="&#x440;" horiz-adv-x="660" 
d="M382.68 809.81c172.25 -0.0302734 265.22 -123.05 265.22 -238.83c0 -116.73 -90.9697 -234.931 -264.859 -234.931h-245.19v-336.05h-83.8496v809.48zM398.81 418.26c78.8604 0 167.399 50.0898 167.38 152.72c0 103.21 -89.3203 156.71 -167.38 156.71h-260.96v-309.43
h260.96z" />
    <glyph glyph-name="Escyrillic" unicode="&#x421;" 
d="M694.72 295.27l83.9902 -0.000976562c-41.0596 -227.17 -211.14 -311.27 -371.68 -311.27c-231.48 0 -381.03 165.33 -381.03 421.16c0 130.43 39.0098 239.17 112.8 314.439c67.4902 68.8203 162.75 106.73 268.23 106.73c190.02 0 324.659 -108.9 366.819 -291.631
h-84.4404c-43.0703 153.15 -164.45 209.511 -282.4 209.511c-146.67 0 -298.91 -96.1201 -298.91 -339.05c0 -250.47 152.24 -339.04 298.91 -339.04c152.69 0 255.141 81.4102 287.711 229.15z" />
    <glyph glyph-name="Escyrillic" unicode="&#x441;" 
d="M694.72 295.27l83.9902 -0.000976562c-41.0596 -227.17 -211.14 -311.27 -371.68 -311.27c-231.48 0 -381.03 165.33 -381.03 421.16c0 130.43 39.0098 239.17 112.8 314.439c67.4902 68.8203 162.75 106.73 268.23 106.73c190.02 0 324.659 -108.9 366.819 -291.631
h-84.4404c-43.0703 153.15 -164.45 209.511 -282.4 209.511c-146.67 0 -298.91 -96.1201 -298.91 -339.05c0 -250.47 152.24 -339.04 298.91 -339.04c152.69 0 255.141 81.4102 287.711 229.15z" />
    <glyph glyph-name="Tecyrillic" unicode="&#x422;" horiz-adv-x="753" 
d="M755.6 730.93h-338.829v-730.93h-81.9404v730.93h-338.83v78.9004h759.6v-78.9004z" />
    <glyph glyph-name="Tecyrillic" unicode="&#x442;" horiz-adv-x="753" 
d="M755.6 730.93h-338.829v-730.93h-81.9404v730.93h-338.83v78.9004h759.6v-78.9004z" />
    <glyph glyph-name="Ucyrillic" unicode="&#x423;" horiz-adv-x="611" 
d="M527.97 811.81l86.2012 -2.39844l-393.03 -809.41l-85.8604 2.38965l128.54 257.43l-266.82 549.59h87.3896l220.97 -457.74z" />
    <glyph glyph-name="Ucyrillic" unicode="&#x443;" horiz-adv-x="611" 
d="M527.97 811.81l86.2012 -2.39844l-393.03 -809.41l-85.8604 2.38965l128.54 257.43l-266.82 549.59h87.3896l220.97 -457.74z" />
    <glyph glyph-name="Efcyrillic" unicode="&#x424;" horiz-adv-x="897" 
d="M489.41 713.76c0 0 390.73 6.04004 390.73 -311.5c0 -310.94 -390.61 -305.58 -390.61 -305.58v-96.6699h-82.2402v96.7695s-391.29 -5.45996 -391.29 305.48c0 317.54 391.29 311.73 391.29 311.73v95.4199h82.1201v-95.6504zM407.29 176.13v465.52
s-318.48 6.83008 -318.48 -239.39c0 -239.54 318.48 -226.13 318.48 -226.13zM489.53 175.909c0 0 317.539 -12.7998 317.52 226.37c0 246.22 -317.52 239.58 -317.52 239.58v-465.95z" />
    <glyph glyph-name="Efcyrillic" unicode="&#x444;" horiz-adv-x="897" 
d="M489.41 713.76c0 0 390.73 6.04004 390.73 -311.5c0 -310.94 -390.61 -305.58 -390.61 -305.58v-96.6699h-82.2402v96.7695s-391.29 -5.45996 -391.29 305.48c0 317.54 391.29 311.73 391.29 311.73v95.4199h82.1201v-95.6504zM407.29 176.13v465.52
s-318.48 6.83008 -318.48 -239.39c0 -239.54 318.48 -226.13 318.48 -226.13zM489.53 175.909c0 0 317.539 -12.7998 317.52 226.37c0 246.22 -317.52 239.58 -317.52 239.58v-465.95z" />
    <glyph glyph-name="Khacyrillic" unicode="&#x425;" horiz-adv-x="698" 
d="M411.64 399.92l277.399 -399.92h-99.6504l-227.56 328.13l-227.59 -328.13h-99.6396l277.48 399.85l-284.41 409.98h99.6104l234.55 -338.1l234.53 338.1h99.5996z" />
    <glyph glyph-name="Khacyrillic" unicode="&#x445;" horiz-adv-x="698" 
d="M411.64 399.92l277.399 -399.92h-99.6504l-227.56 328.13l-227.59 -328.13h-99.6396l277.48 399.85l-284.41 409.98h99.6104l234.55 -338.1l234.53 338.1h99.5996z" />
    <glyph glyph-name="Tsecyrillic" unicode="&#x426;" horiz-adv-x="834" 
d="M696.69 78.7197h135.291v-240.72h-81.9102v161.8h-696.07v809.43h82.3701v-730.51h478.02v730.51h82.2998v-730.51z" />
    <glyph glyph-name="Tsecyrillic" unicode="&#x446;" horiz-adv-x="834" 
d="M696.69 78.7197h135.291v-240.72h-81.9102v161.8h-696.07v809.43h82.3701v-730.51h478.02v730.51h82.2998v-730.51z" />
    <glyph glyph-name="Checyrillic" unicode="&#x427;" horiz-adv-x="642" 
d="M302.04 373c-156.12 0 -285.039 64.5605 -285.039 205.141v231.27h82.1201v-191.08c0 -113.09 80.0596 -163.82 202.92 -163.82c127.35 0 202.909 50.7305 202.909 163.91v190.99h82.25v-809.41h-82.25v439.11s-42.5303 -66.1104 -202.91 -66.1104z" />
    <glyph glyph-name="Checyrillic" unicode="&#x447;" horiz-adv-x="642" 
d="M302.04 373c-156.12 0 -285.039 64.5605 -285.039 205.141v231.27h82.1201v-191.08c0 -113.09 80.0596 -163.82 202.92 -163.82c127.35 0 202.909 50.7305 202.909 163.91v190.99h82.25v-809.41h-82.25v439.11s-42.5303 -66.1104 -202.91 -66.1104z" />
    <glyph glyph-name="Shacyrillic" unicode="&#x428;" horiz-adv-x="1042" 
d="M905.23 809.42h82.2793v-809.42h-933.51v809.42h82.3701v-730.5h343v730.5h82.79v-730.5h343.07v730.5z" />
    <glyph glyph-name="Shacyrillic" unicode="&#x448;" horiz-adv-x="1042" 
d="M905.23 809.42h82.2793v-809.42h-933.51v809.42h82.3701v-730.5h343v730.5h82.79v-730.5h343.07v730.5z" />
    <glyph glyph-name="Shchacyrillic" unicode="&#x429;" horiz-adv-x="1124" 
d="M987.51 78.7197h134.688v-240.72h-81.9297v161.8h-986.27v809.43h82.3701v-730.51h343v730.51h82.79v-730.51h343.07v730.51h82.2803v-730.51z" />
    <glyph glyph-name="Shchacyrillic" unicode="&#x449;" horiz-adv-x="1124" 
d="M987.51 78.7197h134.688v-240.72h-81.9297v161.8h-986.27v809.43h82.3701v-730.51h343v730.51h82.79v-730.51h343.07v730.51h82.2803v-730.51z" />
    <glyph glyph-name="Hardsigncyrillic" unicode="&#x42a;" horiz-adv-x="744" 
d="M479.35 453.92c158.4 0 251.009 -117.109 251.009 -222.579c0 -152.08 -81.0898 -231.33 -268.77 -231.33h-317.17v730.47h-147.42v78.8799h229.36v-355.44h252.99zM476.817 79.2607c102.58 0 172.341 39.1406 172.36 140.24c0 81.7695 -64.2305 155.22 -174.75 155.22
h-248.07v-295.46h250.46z" />
    <glyph glyph-name="Hardsigncyrillic" unicode="&#x44a;" horiz-adv-x="744" 
d="M479.35 453.92c158.4 0 251.009 -117.109 251.009 -222.579c0 -152.08 -81.0898 -231.33 -268.77 -231.33h-317.17v730.47h-147.42v78.8799h229.36v-355.44h252.99zM476.817 79.2607c102.58 0 172.341 39.1406 172.36 140.24c0 81.7695 -64.2305 155.22 -174.75 155.22
h-248.07v-295.46h250.46z" />
    <glyph glyph-name="Yericyrillic" unicode="&#x42b;" horiz-adv-x="872" 
d="M388.93 453.91c158.4 0 251.009 -117.089 251.009 -222.579c0 -152.08 -81.0898 -231.33 -268.76 -231.33h-317.18v809.35h81.9404v-355.44h252.99zM386.397 79.251c102.58 0 172.35 39.1406 172.359 140.24c0 81.7695 -64.2197 155.22 -174.739 155.22h-248.08v-295.46
h250.46zM815.968 0.271484h-81.9199v809.37h81.9199v-809.37z" />
    <glyph glyph-name="Yericyrillic" unicode="&#x44b;" horiz-adv-x="872" 
d="M388.93 453.91c158.4 0 251.009 -117.089 251.009 -222.579c0 -152.08 -81.0898 -231.33 -268.76 -231.33h-317.18v809.35h81.9404v-355.44h252.99zM386.397 79.251c102.58 0 172.35 39.1406 172.359 140.24c0 81.7695 -64.2197 155.22 -174.739 155.22h-248.08v-295.46
h250.46zM815.968 0.271484h-81.9199v809.37h81.9199v-809.37z" />
    <glyph glyph-name="Softsigncyrillic" unicode="&#x42c;" horiz-adv-x="655" 
d="M388.93 453.93c158.4 0 251.009 -117.109 251.009 -222.6c0 -152.08 -81.0898 -231.33 -268.76 -231.33h-317.18v809.37h81.9404v-355.44h252.99zM386.397 79.2705c102.58 0 172.35 39.1406 172.359 140.24c0 81.7695 -64.2197 155.22 -174.739 155.22h-248.08v-295.46
h250.46z" />
    <glyph glyph-name="Softsigncyrillic" unicode="&#x44c;" horiz-adv-x="655" 
d="M388.93 453.93c158.4 0 251.009 -117.109 251.009 -222.6c0 -152.08 -81.0898 -231.33 -268.76 -231.33h-317.18v809.37h81.9404v-355.44h252.99zM386.397 79.2705c102.58 0 172.35 39.1406 172.359 140.24c0 81.7695 -64.2197 155.22 -174.739 155.22h-248.08v-295.46
h250.46z" />
    <glyph glyph-name="Ereversedcyrillic" unicode="&#x42d;" 
d="M659.89 719.6c73.79 -75.2695 112.801 -184.011 112.82 -314.44c0 -255.85 -149.57 -421.159 -381.03 -421.159c-160.54 0 -330.62 84.0996 -371.68 311.27h83.9697c32.5703 -147.74 135.03 -229.15 287.71 -229.15c144.64 0 294.409 86.4502 298.52 329.07h-353.65
v78.9199h349.14c-26.2598 192.07 -162.189 270.101 -294.01 270.101c-117.95 0 -239.33 -56.3604 -282.42 -209.511h-84.4297c42.1797 182.73 176.81 291.631 366.85 291.631c105.48 0 200.73 -37.9102 268.211 -106.73z" />
    <glyph glyph-name="Ereversedcyrillic" unicode="&#x44d;" 
d="M659.89 719.6c73.79 -75.2695 112.801 -184.011 112.82 -314.44c0 -255.85 -149.57 -421.159 -381.03 -421.159c-160.54 0 -330.62 84.0996 -371.68 311.27h83.9697c32.5703 -147.74 135.03 -229.15 287.71 -229.15c144.64 0 294.409 86.4502 298.52 329.07h-353.65
v78.9199h349.14c-26.2598 192.07 -162.189 270.101 -294.01 270.101c-117.95 0 -239.33 -56.3604 -282.42 -209.511h-84.4297c42.1797 182.73 176.81 291.631 366.85 291.631c105.48 0 200.73 -37.9102 268.211 -106.73z" />
    <glyph glyph-name="IUcyrillic" unicode="&#x42e;" horiz-adv-x="1082" 
d="M673.82 826.33c231.46 0 381.02 -161.319 381.02 -421.169c0 -310.51 -196.83 -421.16 -381.021 -421.16c-222.5 0 -368.92 153.02 -379.939 392.14h-157.96v-375.65h-81.9199v809.35h81.9199v-357.7h158.67c8.33984 109.61 46.2803 201.42 111.021 267.46
c67.4697 68.8203 162.729 106.73 268.21 106.73zM673.82 66.1211c187.13 0 298.891 122.19 298.91 339.04c0 252.21 -152.24 339.05 -298.91 339.05c-146.68 0 -298.91 -96.1201 -298.91 -339.05c0 -250.47 152.25 -339.04 298.91 -339.04z" />
    <glyph glyph-name="IUcyrillic" unicode="&#x44e;" horiz-adv-x="1082" 
d="M673.82 826.33c231.46 0 381.02 -161.319 381.02 -421.169c0 -310.51 -196.83 -421.16 -381.021 -421.16c-222.5 0 -368.92 153.02 -379.939 392.14h-157.96v-375.65h-81.9199v809.35h81.9199v-357.7h158.67c8.33984 109.61 46.2803 201.42 111.021 267.46
c67.4697 68.8203 162.729 106.73 268.21 106.73zM673.82 66.1211c187.13 0 298.891 122.19 298.91 339.04c0 252.21 -152.24 339.05 -298.91 339.05c-146.68 0 -298.91 -96.1201 -298.91 -339.05c0 -250.47 152.25 -339.04 298.91 -339.04z" />
    <glyph glyph-name="IAcyrillic" unicode="&#x42f;" horiz-adv-x="689" 
d="M114.38 0l-96.3799 0.000976562l196.88 353.64l94.5 -0.0302734zM300.42 809.371l334.06 -0.360352v-808.99h-83.8496v353.61h-61.5l-274.25 0.00976562c-59.4902 9.57031 -179.7 57.8701 -179.7 227.851c0 169.83 162.87 227.88 265.24 227.88zM550.63 435.841
l-0.000976562 290.13h-266.36c-87.0195 0 -167.02 -57.5 -167.02 -144.48c0 -102.51 56.0703 -145.649 167.021 -145.649h266.36z" />
    <glyph glyph-name="IAcyrillic" unicode="&#x44f;" horiz-adv-x="689" 
d="M114.38 0l-96.3799 0.000976562l196.88 353.64l94.5 -0.0302734zM300.42 809.371l334.06 -0.360352v-808.99h-83.8496v353.61h-61.5l-274.25 0.00976562c-59.4902 9.57031 -179.7 57.8701 -179.7 227.851c0 169.83 162.87 227.88 265.24 227.88zM550.63 435.841
l-0.000976562 290.13h-266.36c-87.0195 0 -167.02 -57.5 -167.02 -144.48c0 -102.51 56.0703 -145.649 167.021 -145.649h266.36z" />
    <glyph glyph-name="Gheupturncyrillic" unicode="&#x490;" horiz-adv-x="554" 
d="M557.36 809.41v-78.8799h-421.43v-730.53h-81.9297v809.41h424.46v142.83h78.8799v-142.83h0.0195312z" />
    <glyph glyph-name="Gheupturncyrillic" unicode="&#x491;" horiz-adv-x="554" 
d="M557.36 809.41v-78.8799h-421.43v-730.53h-81.9297v809.41h424.46v142.83h78.8799v-142.83h0.0195312z" />
    <glyph glyph-name="endash" unicode="&#x2013;" horiz-adv-x="556" 
d="M533.55 403h-511.55v78.9004h511.55v-78.9004z" />
    <glyph glyph-name="emdash" unicode="&#x2014;" horiz-adv-x="800" 
d="M777.95 403h-755.95v78.9004h755.95v-78.9004z" />
    <glyph glyph-name="quotedblleft" unicode="&#x201c;" horiz-adv-x="304" 
d="M24 727.04c0.5 72.0098 61.791 110.649 123.591 96.2197v-34.5195c-46.8604 11.96 -84.2607 -18.25 -87.3008 -61.7002h70.9199v-110.02h-107.21v110.02zM295.581 788.74c-46.8701 11.96 -84.2402 -18.25 -87.29 -61.7002h70.9199v-110.04h-107.21v110.02
c0.480469 72.0098 61.79 110.67 123.58 96.2402v-34.5195z" />
    <glyph glyph-name="quotedblright" unicode="&#x201d;" horiz-adv-x="328" 
d="M191.37 810.25l107.19 0.000976562v-110c-0.480469 -72.0098 -61.79 -110.66 -123.58 -96.2402v34.5195c46.8701 -11.96 84.2598 18.2598 87.3096 61.7002h-70.9199v110.02zM43.3604 700.231v110.02h107.21v-110.02
c-0.480469 -72.0098 -61.7803 -110.66 -123.57 -96.2402v34.5303c46.8604 -11.9502 84.2402 18.2695 87.2803 61.71h-70.9199z" />
    <glyph glyph-name="quotedblbase" unicode="&#x201e;" horiz-adv-x="305" 
d="M172.37 110.25l107.19 0.000976562v-110c-0.480469 -72.0098 -61.79 -110.66 -123.58 -96.2402v34.5195c46.8701 -11.96 84.2598 18.2598 87.3096 61.7002h-70.9199v110.02zM24.3604 0.231445v110.02h107.21v-110.02
c-0.480469 -72.0098 -61.7803 -110.66 -123.57 -96.2402v34.5303c46.8604 -11.9502 84.2402 18.2695 87.2803 61.71h-70.9199z" />
    <glyph glyph-name="bullet" unicode="&#x2022;" horiz-adv-x="312" 
d="M156.26 525.21c61.1602 0 102.19 -44.0898 102.19 -109.649c0 -75.71 -51.2803 -109.56 -102.17 -109.56c-51 0 -102.28 33.8496 -102.28 109.56c0 64.5098 41.9902 109.649 102.26 109.649z" />
    <glyph glyph-name="Euro" unicode="&#x20ac;" horiz-adv-x="919" 
d="M802.5 295.27l83.9697 -0.00195312c-41.0596 -227.17 -211.14 -311.27 -371.68 -311.27c-200.69 0 -339.61 124.41 -373.07 324.21h-119.71v74.8398h112.59c-0.269531 7.38965 -0.819336 14.5801 -0.819336 22.1104c0 7.5498 0.570312 14.7803 0.830078 22.1904h-112.6
v74.8398h119.73c14.79 87.5898 50.2305 161.71 104.841 217.41c67.46 68.8203 162.729 106.73 268.21 106.73c190.04 0 324.67 -108.9 366.84 -291.631h-84.4404c-43.0703 153.15 -164.45 209.511 -282.4 209.511c-125.19 0 -254.131 -70.4102 -289.281 -242.021h308.79
v-74.8398h-317.53c-0.299805 -7.38965 -0.889648 -14.4893 -0.889648 -22.1895c0 -7.66992 0.570312 -14.7402 0.850586 -22.1104h317.57v-74.8398h-309.32c34.4199 -176.58 164.01 -242.09 289.81 -242.09c152.68 0 255.14 81.4102 287.71 229.15z" />
    <glyph glyph-name="uni20bd" unicode="&#x20bd;" horiz-adv-x="722" 
d="M433.85 336.05l-245.191 -0.0185547v-81.2803h292.66v-74.8398h-292.66v-179.91h-83.8496v179.93h-76.8096v74.8398h76.8096v554.71l328.69 0.330078c172.25 -0.0302734 265.21 -123.05 265.21 -238.83c0 -116.73 -90.9697 -234.931 -264.859 -234.931zM188.658 727.691
l-0.000976562 -309.43h260.97c78.8398 0 167.37 50.0898 167.37 152.72c0 103.21 -89.3096 156.71 -167.369 156.71h-260.97z" />
    <glyph glyph-name="arrowleft" unicode="&#x2190;" horiz-adv-x="1136" 
d="M54 366.76l-0.000976562 80.7285s302.24 14.0898 302.24 281.78h79s24.6104 -132.58 -120.26 -281.76l-0.0195312 -0.0195312h766.62v-80.7305h-766.6c144.89 -149.18 120.26 -281.76 120.26 -281.76h-79c0 267.36 -302.24 281.761 -302.24 281.761z" />
    <glyph glyph-name="arrowup" unicode="&#x2191;" horiz-adv-x="752" 
d="M335.76 1027.58l80.7285 0.000976562s14.0898 -302.24 281.78 -302.24v-79s-132.6 -24.6299 -281.76 120.26l-0.0195312 0.0195312v-766.62h-80.7305v766.6c-149.18 -144.89 -281.76 -120.26 -281.76 -120.26v79c267.36 0 281.761 302.24 281.761 302.24z" />
    <glyph glyph-name="arrowright" unicode="&#x2192;" horiz-adv-x="1136" 
d="M1081.56 447.51l0.0205078 -80.7295s-302.24 -14.0898 -302.24 -281.78h-79s-24.6299 132.6 120.26 281.76l0.0195312 0.0195312h-766.62v80.7305h766.58c-144.89 149.18 -120.26 281.76 -120.26 281.76h79.0098c0 -267.35 302.23 -281.76 302.23 -281.76z" />
    <glyph glyph-name="arrowdown" unicode="&#x2193;" horiz-adv-x="752" 
d="M416.51 0l-80.7295 -0.000976562s-14.0898 302.24 -281.78 302.24v79s132.58 24.6104 281.76 -120.279l0.0195312 -0.00976562v766.61h80.7305v-766.58c149.18 144.89 281.76 120.26 281.76 120.26v-79c-267.35 0 -281.76 -302.24 -281.76 -302.24z" />
    <glyph glyph-name="quotedbl.alt1" unicode="&#xf005;" horiz-adv-x="380" 
d="M54 727.04c0.5 72.0098 61.791 110.649 123.591 96.2197v-34.5195c-46.8604 11.96 -84.2607 -18.25 -87.3008 -61.7002h70.9199v-110.02h-107.21v110.02zM325.581 788.74c-46.8701 11.96 -84.2402 -18.25 -87.29 -61.7002h70.9199v-110.04h-107.21v110.02
c0.480469 72.0098 61.79 110.67 123.58 96.2402v-34.5195z" />
    <glyph glyph-name="Eogonek.alt1" unicode="&#xf008;" 
d="M499.34 -6.5c-20.2197 -6 -39.2207 -17.4199 -39.2402 -39.5098c0 -41.9004 96.6201 -17.79 96.6201 -17.79v-55.5195s-154.38 -34.6504 -154.38 67.2295c0 13.54 2.62988 25.4004 7.0498 35.9004c-0.780273 0 -1.58984 -0.0703125 -2.37012 -0.0703125
c-231.46 0 -381.01 165.33 -381.01 421.16c0 130.43 39.0098 239.17 112.8 314.439c67.4805 68.8203 162.75 106.73 268.21 106.73c190.04 0 324.67 -108.9 366.84 -291.631h-84.4404c-43.0703 153.15 -164.45 209.511 -282.4 209.511
c-131.8 0 -267.75 -78.0303 -293.99 -270.08h349.12v-78.9004h-353.65c4.12012 -242.63 153.87 -329.09 298.521 -329.09c152.69 0 255.141 81.4102 287.711 229.141h83.9697c-33.1699 -183.65 -150.729 -273.73 -279.359 -301.521z" />
    <glyph glyph-name="E.alt1" unicode="&#xf009;" 
d="M694.74 295.27l83.9707 -0.000976562c-41.0596 -227.17 -211.14 -311.27 -371.68 -311.27c-231.48 0 -381.03 165.33 -381.03 421.16c0 130.43 39.0098 239.17 112.8 314.439c67.4902 68.8203 162.75 106.73 268.23 106.73c190.02 0 324.659 -108.9 366.839 -291.631
h-84.4404c-43.0703 153.15 -164.45 209.511 -282.4 209.511c-131.82 0 -267.75 -78.0303 -294.01 -270.08h349.14v-78.9199h-353.65c4.12012 -242.62 153.86 -329.09 298.521 -329.09c152.69 0 255.141 81.4102 287.711 229.15z" />
    <glyph glyph-name="Zhecyrillic.alt1" unicode="&#xf00b;" horiz-adv-x="1888" 
d="M1749.87 295.27l84.0127 -0.00195312c-41.0596 -227.17 -211.14 -311.27 -371.68 -311.27c-225.69 0 -373.091 157.42 -380.331 402.43h-98.8301v-386.32h-78.6504v386.32h-98.3701c-7.25 -245.01 -154.65 -402.43 -380.341 -402.43
c-160.54 0 -330.62 84.0996 -371.68 311.27h83.9697c32.5703 -147.74 135.03 -229.15 287.71 -229.15c146.67 0 298.91 88.5703 298.91 339.04c0 242.93 -152.24 339.05 -298.91 339.05c-117.95 0 -239.33 -56.3604 -282.42 -209.511h-84.4297
c42.1797 182.73 176.81 291.631 366.85 291.631c105.48 0 200.73 -37.9102 268.19 -106.71c64.0195 -65.2998 101.77 -155.819 110.67 -263.779h99.8398v353.73h78.6504v-353.75h100.26c8.91992 107.96 46.6504 198.49 110.67 263.78
c67.46 68.8203 162.72 106.73 268.21 106.73c190.04 0 324.67 -108.9 366.83 -291.631h-84.4297c-43.0703 153.15 -164.46 209.511 -282.4 209.511c-146.67 0 -298.91 -96.1201 -298.91 -339.05c0 -250.47 152.24 -339.04 298.91 -339.04
c152.68 0 255.14 81.4102 287.699 229.15z" />
    </font>
</defs>
</svg>
