<?xml version="1.0" standalone="no"?>
<!DOCTYPE svg PUBLIC "-//W3C//DTD SVG 1.1//EN" "http://www.w3.org/Graphics/SVG/1.1/DTD/svg11.dtd" >
<svg xmlns="http://www.w3.org/2000/svg" xmlns:xlink="http://www.w3.org/1999/xlink" version="1.1">
<metadata>
Created by FontForge 20201107 at Thu Sep  8 17:10:50 2022
 By Jimmy Wärting
Vadym Aksieiev(c)
</metadata>
<defs>
<font id="NeutralFaceBold" horiz-adv-x="0" >
  <font-face 
    font-family="Neutral Face"
    font-weight="700"
    font-stretch="normal"
    units-per-em="1000"
    panose-1="0 0 0 0 0 0 0 0 0 0"
    ascent="800"
    descent="-200"
    cap-height="809.37"
    bbox="-57.6699 -209.99 1862.53 1074.8"
    underline-thickness="0"
    underline-position="0"
    unicode-range="U+000A-F010"
  />
<missing-glyph horiz-adv-x="527" 
d="M50 700h427v-700h-427v700zM78 680l185 -309l186 309h-371zM251 350l-180 300v-601zM264 329l-185 -308h370zM276 350l181 -303v605z" />
    <glyph glyph-name="hyphengreater.liga" unicode="&#x2d;&#x3e;" horiz-adv-x="1120" 
d="M1073.51 498.12l0.0507812 -131.159s-256.78 -61.3799 -256.78 -281.89l-124.28 -0.0703125s-26.8301 134.7 120.12 281.811c0.0498047 0.0595703 0.0898438 0.0898438 0.139648 0.149414h-766.76v131.16h766.56c-147.04 147.04 -120.26 281.76 -120.26 281.76h124.29
c0 -220.32 256.92 -281.761 256.92 -281.761z" />
    <glyph glyph-name="lesshyphen.liga" unicode="&#x3c;&#x2d;" horiz-adv-x="1120" 
d="M46.0498 366.76l-0.0507812 131.159s256.78 61.4004 256.78 281.891l124.29 0.0703125s26.8301 -134.7 -120.12 -281.82c-0.0595703 -0.0498047 -0.0898438 -0.0898438 -0.149414 -0.139648h766.8v-131.16h-766.6c147.04 -147.04 120.26 -281.76 120.26 -281.76h-124.28
c0 220.31 -256.93 281.76 -256.93 281.76z" />
    <glyph glyph-name=".notdef" horiz-adv-x="527" 
d="M50 700h427v-700h-427v700zM78 680l185 -309l186 309h-371zM251 350l-180 300v-601zM264 329l-185 -308h370zM276 350l181 -303v605z" />
    <glyph glyph-name=".null" 
 />
    <glyph glyph-name=".null" 
 />
    <glyph glyph-name="controlLF" unicode="&#xa;" 
 />
    <glyph glyph-name="controlCR" unicode="&#xd;" 
 />
    <glyph glyph-name="space" unicode=" " horiz-adv-x="344" 
 />
    <glyph glyph-name="exclam" unicode="!" horiz-adv-x="258" 
d="M164.73 262.98h-74.2393l-45.4902 546.39h165.06zM199.312 0h-143.54v145.44h143.54v-145.44z" />
    <glyph glyph-name="quotedbl" unicode="&#x22;" horiz-adv-x="432" 
d="M237.96 808.97h162.249v-173.76c0 -97.7002 -69.5195 -165.141 -178.399 -152.74v71.4502c48.75 -10.9502 105.78 8.09961 107.17 81.29h-91.0195v173.76zM41.1494 635.21l-0.00292969 173.76h162.25v-173.76c0 -97.7002 -69.5195 -165.141 -178.399 -152.74v71.4502
c36.1504 -8.12012 75.25 3.25977 94.7998 33.1201c0.480469 0.799805 1.01074 1.53027 1.46094 2.37012c0.230469 0.389648 0.430664 0.819336 0.661133 1.20898c6.16016 11.8203 9.91992 26.5508 10.25 44.5908h-91.0195z" />
    <glyph glyph-name="numbersign" unicode="#" horiz-adv-x="925" 
d="M868.27 480.48h-153.381l-48.9297 -171.1h185.86l-41.2197 -129.81h-181.77l-51.3496 -179.55h-144.07l51.3604 179.55h-159.21l-51.3496 -179.57h-144.07l51.3496 179.57h-169.49l41.0596 129.81h165.56l48.9297 171.1h-197.86l42.8203 148.5h197.53l51.5801 180.39
h144.07l-51.5898 -180.39h159.21l51.5801 180.39h144.07l-51.5996 -180.39h153.89zM521.889 309.381l48.9297 171.1h-159.2l-48.9297 -171.1h159.2z" />
    <glyph glyph-name="dollar" unicode="$" horiz-adv-x="732" 
d="M699.68 257.25c0 -140.56 -92.7334 -243.919 -272.844 -267.369v-135.88h-124.02v132.92c-169.05 15.3896 -272.819 122.42 -272.819 256.62v15.6699h192.84v-15.6699c0 -69.7998 75.1396 -93.96 149.21 -93.96c71.4004 0 143.341 20.4199 143.341 93.96
c0 59.6504 -86 80.1309 -185.72 103.811c-127.49 30.2695 -286.32 68.0195 -286.32 218.829c0 137.43 99.6602 232.35 259.49 254.239v151.17h124.02v-149.39c158.63 -17.6504 265.7 -117.891 265.7 -256.021v-15.4902h-177.17v15.4902
c0 61.2598 -79.7695 97.9395 -157.05 97.9395c-51.6396 0 -128.199 -24.4102 -128.199 -83.1602c0 -56.7998 82.4404 -75.3193 177.881 -96.499c129.98 -29.21 291.66 -65.3496 291.66 -227.21z" />
    <glyph glyph-name="percent" unicode="%" horiz-adv-x="964" 
d="M601.13 809.15h153.681l-392.01 -809.62h-153.69zM760.971 392.28c113.62 0 189.96 -81.8799 189.979 -203.74c0 -140.6 -95.4297 -203.54 -189.979 -203.54c-94.5596 0 -189.97 62.9297 -189.97 203.54c0 119.96 78.1201 203.74 189.97 203.74zM760.971 94.2607
c45.4102 0 68.4502 31.7607 68.4502 94.4004c0 94.3799 -51.5303 94.3799 -68.4502 94.3799c-33.8398 0 -68.46 -11.2002 -68.46 -94.3799c0 -94.4004 51.5303 -94.4004 68.46 -94.4004zM392.94 621.142c0 -140.62 -95.4199 -203.54 -189.97 -203.54
c-94.5703 0 -189.971 62.9199 -189.971 203.54c0 119.95 78.1104 203.73 189.971 203.73c113.62 0 189.97 -81.8701 189.97 -203.73zM202.971 526.852c45.4199 0 68.4502 31.7705 68.4502 94.4102c0 94.3701 -51.5303 94.3701 -68.4502 94.3701
c-33.8496 0 -68.46 -11.2002 -68.46 -94.3701c0 -94.4102 51.5303 -94.4102 68.46 -94.4102z" />
    <glyph glyph-name="ampersand" unicode="&#x26;" horiz-adv-x="765" 
d="M611.13 183.77l145.639 -182.53h-196.94s-21.6299 29.3799 -52.1494 71.2402c-65.1699 -51.46 -145.3 -87.4795 -237.89 -87.4795c-196.11 0 -252.79 138.09 -252.79 234.56c0 122.15 73.4902 191.23 163.74 244.12c-55.9404 81.8896 -65.8809 151.939 -51.1709 219.439
c19.2305 88.2305 114.421 162.761 251.671 139.791c98.6299 -16.5 161.78 -76.3701 153.5 -192.14c-8.2002 -114.67 -67.5498 -153.54 -135.14 -195.94c23.2002 -27.1699 115.74 -135.15 115.74 -135.15c23.3203 40.7803 39.8799 86.3604 41.4795 133.19h143.88
c0 -70.3301 -31.5195 -165.061 -89.5693 -249.101zM276.898 658.209c-19.1504 -64.3896 31.8906 -116.74 31.8906 -116.74s76.3096 21.7402 91.5195 73.5898c13.96 47.6299 -12.71 73.29 -43.3203 83.8896c-26.04 8.99023 -69.5703 -5.35938 -80.0898 -40.7393z
M353.119 136.398c15.4902 6.24023 39.7109 22.4395 65.8906 45.7695c-54.3096 66.9502 -112 137.46 -148.15 180.19c-56.4502 -34.7197 -99.54 -74.25 -99.54 -136.93c0 -70.3301 78.8799 -129.8 181.8 -89.0303z" />
    <glyph glyph-name="quotesingle" unicode="'" horiz-adv-x="228" 
d="M40.1504 808.97h162.248v-173.76c0 -97.7002 -69.5195 -165.141 -178.399 -152.74v71.4502c48.7305 -10.9502 105.771 8.09961 107.171 81.29h-91.0195v173.76z" />
    <glyph glyph-name="quotesingle" unicode="&#x2019;" horiz-adv-x="228" 
d="M40.1504 808.97h162.248v-173.76c0 -97.7002 -69.5195 -165.141 -178.399 -152.74v71.4502c48.7305 -10.9502 105.771 8.09961 107.171 81.29h-91.0195v173.76z" />
    <glyph glyph-name="quotesingle" unicode="&#x2018;" horiz-adv-x="228" 
d="M40.1504 808.97h162.248v-173.76c0 -97.7002 -69.5195 -165.141 -178.399 -152.74v71.4502c48.7305 -10.9502 105.771 8.09961 107.171 81.29h-91.0195v173.76z" />
    <glyph glyph-name="parenleft" unicode="(" horiz-adv-x="448" 
d="M448.06 927.58c-276.79 -310.2 -398.999 -739.91 -0.649414 -1137.57h-154.94c-378.59 378.59 -320.76 784.24 11.3203 1137.59z" />
    <glyph glyph-name="parenright" unicode=")" horiz-adv-x="448" 
d="M159.25 927.6c332.08 -353.35 389.931 -759 11.3408 -1137.59h-154.95c398.34 397.66 276.149 827.37 -0.640625 1137.57z" />
    <glyph glyph-name="asterisk" unicode="*" horiz-adv-x="383" 
d="M363.87 646.97l-108.909 -33.2305l70.5703 -100.26l-64.5996 -45.4805l-70.3896 100l-70.3701 -100l-64.6104 45.4805l70.8799 100.71l-107.44 32.7803l23.0596 75.5703l105.2 -32.0898v119.16h87.5498v-119.41l106 32.3398z" />
    <glyph glyph-name="plus" unicode="+" horiz-adv-x="528" 
d="M506.62 508.03v-150.44h-165.45v-167.59h-154.73v167.59h-165.44v150.44h165.44v167.59h154.73v-167.59h165.45z" />
    <glyph glyph-name="comma" unicode="," horiz-adv-x="205" 
d="M21.1504 173.97h162.248v-173.76c0 -97.7002 -69.5195 -165.141 -178.399 -152.74v71.4502c48.7305 -10.9502 105.771 8.09961 107.171 81.29h-91.0195v173.76z" />
    <glyph glyph-name="hyphen" unicode="-" horiz-adv-x="428" 
d="M407.53 357h-387.53v150.44h387.53v-150.44z" />
    <glyph glyph-name="period" unicode="." horiz-adv-x="205" 
d="M183.25 0h-162.25v173.77h162.25v-173.77z" />
    <glyph glyph-name="slash" unicode="/" horiz-adv-x="682" 
d="M451.03 809.62h171.49l-392.03 -809.62h-171.49z" />
    <glyph glyph-name="zero" unicode="0" horiz-adv-x="757" 
d="M378.08 826.54c215.8 0 348.061 -160.479 348.061 -420.67c0 -269.68 -144.87 -420.64 -348.061 -420.64c-198.95 0 -348.08 149.38 -348.08 420.64c0 258.62 138.08 420.67 348.08 420.67zM378.081 160.021c100.26 0 165.98 99.7598 165.98 245.88
c0 146.27 -56.5703 245.859 -165.98 245.859c-118.09 0 -166 -83.1396 -166 -245.859c0 -144.29 60.6904 -245.88 166 -245.88z" />
    <glyph glyph-name="one" unicode="1" horiz-adv-x="610" 
d="M392.94 161.87h157.289v-161.87h-521.23v161.87h202.08v452.74l-189.85 -116.93l0.660156 175.01l189.19 136.68h161.86v-647.5z" />
    <glyph glyph-name="two" unicode="2" horiz-adv-x="630" 
d="M358.27 311.43c-99.71 -23.6904 -146.429 -59.0703 -146.429 -149.57h385.39v-161.86h-544.15c-0.360352 107.73 -1.07031 69.2705 -1.07031 161.86c0 178.29 133.72 257.47 263.71 286.489c95.4404 21.3701 106.65 75.5 106.65 132.3
c0 51.2803 -41.6602 91.7705 -92.7598 91.7705c-77.2803 0 -121.44 -45.29 -121.44 -106.55v-15.4902h-177.17v15.4902c0 152.6 94.5498 259.08 280.979 259.08c202.1 0 274.83 -101.67 274.83 -259.08c0 -150.81 -101.05 -224.17 -228.54 -254.439z" />
    <glyph glyph-name="three" unicode="3" horiz-adv-x="623" 
d="M464.76 462.13c64.9902 -23.5098 127.489 -91.5205 127.489 -197.521c0 -171.12 -101.65 -279.61 -285.62 -279.61c-185.92 0 -285.59 117.86 -285.63 279.54h162.62c0.0195312 -88.21 56.0898 -134.39 123.979 -134.39c67.9004 0 123.99 45.75 123.99 134.42
c0 93 -52.8096 131.48 -151.529 131.48v100.34c97.4502 0 113.78 56.6904 113.78 90.5c0 59.4404 -37.1797 94.5205 -87.21 94.5205c-47.7598 0 -87.2197 -33.8701 -87.2197 -94.5205v-0.00976562h-153.18c-0.660156 5.91016 -1.12012 11.8701 -1.12012 17.96
c0 118.5 86.5 221.22 241.52 221.22c154.98 0 241.521 -103.45 241.521 -221.22c0 -71.9297 -42.3604 -130.59 -83.3906 -142.71z" />
    <glyph glyph-name="four" unicode="4" horiz-adv-x="677" 
d="M657.99 363.76v-149.64h-122.15v-214.12h-161.87v214.12h-359.97v149.64l359.97 445.59h161.87v-445.59h122.15zM186.11 363.76h187.86v227.75z" />
    <glyph glyph-name="five" unicode="5" horiz-adv-x="620" 
d="M331.1 549.13c153.35 0 254.289 -115.761 254.289 -263.03c0 -218.69 -140.69 -301.101 -260.021 -301.101c-219.3 0 -275.85 126.55 -294.369 230.96l0.200195 3.78027h171.81l0.480469 -1.98047c14.7598 -59.4404 54.0693 -85.7207 105.64 -85.7207
c79.4805 0 123.591 55.8398 123.591 153.97c0 65.21 -25.1396 142.82 -116.81 142.82c-63.0801 0 -89.7002 -27.7197 -106.73 -82.8896l-144.97 0.360352v462.03h486.92v-162.89h-328.73l0.120117 -127.42c36.3301 22.8604 59.2803 31.1104 108.58 31.1104z" />
    <glyph glyph-name="six" unicode="6" horiz-adv-x="655" 
d="M191.4 454.72c126.96 155.27 431.092 59.4385 431.092 -190.951c0 -257.01 -189.1 -278.77 -270.3 -278.77c-131.94 0 -318.19 18.8701 -318.19 389.24c0 246.08 69.7998 450.85 294.51 450.85c255.52 0 270.289 -221.15 270.289 -221.15h-167.19
c-8.19043 27.2402 -26.3604 63.0303 -100.61 61.4307c-79.0596 -1.78027 -133.189 -82.0898 -139.6 -210.649zM350.112 129.409c67.3896 0 123.229 45.6689 123.229 134.359c0 84.4004 -52.6299 134.381 -123.229 134.381c-67.4004 0 -123.24 -48.1797 -123.24 -134.38
c0 -88.2803 55.8398 -134.36 123.24 -134.36z" />
    <glyph glyph-name="seven" unicode="7" horiz-adv-x="624" 
d="M564.09 809.21v-160.062h-0.0595703v-0.0195312c-159.22 -145.47 -275.859 -423.229 -275.859 -640.159l0.169922 -8.96973h-165.36v8.7998c0 207.12 86.7998 460.37 246.38 640.351h-365.36v160.06h560.09z" />
    <glyph glyph-name="eight" unicode="8" horiz-adv-x="644" 
d="M484.01 461.92c66.7695 -23.5 131.001 -91.5195 130.981 -197.52c0 -171.12 -104.45 -279.61 -293.49 -279.61c-191.06 0 -293.5 117.9 -293.5 279.61c0 106 68.5498 174.21 131.55 196.85c-37.9297 12.3701 -86.2295 72.4502 -86.2295 143.391
c0 118.5 88.8799 221.22 248.18 221.22c159.27 0 248.189 -103.45 248.189 -221.22c0 -71.9404 -43.5303 -130.591 -85.6807 -142.721zM321.501 681.2c-49.0801 0 -89.6191 -33.8594 -89.6592 -94.5293c0 -20.4404 4.71973 -37.3408 12.3799 -51.2607
c5.5 -10.0098 12.71 -18.25 21.0996 -24.8398c0.780273 -0.610352 1.53027 -1.27051 2.33008 -1.84082c2.44043 -1.78027 4.9707 -3.37988 7.59082 -4.87988c2.2002 -1.21973 4.48047 -2.33008 6.82031 -3.36035c2.7002 -1.23047 5.4502 -2.33008 8.28027 -3.29004
c3.51953 -1.16016 7.09961 -2.17969 10.7998 -2.91992c1.5498 -0.30957 3.13965 -0.589844 4.71973 -0.839844c5.09961 -0.769531 10.2793 -1.31934 15.6191 -1.31934s10.5195 0.530273 15.6094 1.2998c1.61035 0.25 3.20996 0.530273 4.79004 0.860352
c3.62012 0.709961 7.12988 1.7002 10.5596 2.83008c2.95996 0.980469 5.83008 2.12012 8.62012 3.40039c2.28027 1.00977 4.52051 2.05957 6.7002 3.26953c2.65039 1.53027 5.23047 3.19043 7.71094 4.99023c0.759766 0.549805 1.46973 1.16992 2.21973 1.74023
c8.48047 6.66016 15.7305 15.0098 21.2402 25.1602c7.51953 13.8604 12.1797 30.6699 12.1797 51.0195c0 59.4297 -38.21 94.5098 -89.6104 94.5098zM322.512 129.951c69.7803 0 127.399 45.7393 127.419 134.409c0 41.4902 -13.1396 74.5605 -35.1299 97.5508
c-0.269531 -0.0898438 -0.5 -0.200195 -0.769531 -0.290039c-22.7002 23.9004 -54.8906 36.9502 -92.0205 37.0703c-69.5498 -0.230469 -126.899 -48.3203 -126.899 -134.33c0 -88.2197 57.6201 -134.41 127.4 -134.41z" />
    <glyph glyph-name="nine" unicode="9" horiz-adv-x="655" 
d="M462.08 355.36c-126.95 -155.26 -431.081 -59.4287 -431.081 190.951c0 257.02 189.1 278.779 270.29 278.779c131.95 0 318.2 -18.8799 318.2 -389.24c0 -246.08 -69.7998 -450.85 -294.51 -450.85c-255.52 0 -270.3 221.15 -270.3 221.15h167.2
c8.19043 -27.2402 26.3506 -63.0303 100.601 -61.4307c79.0596 1.78027 133.189 82.0801 139.6 210.64zM303.379 680.682c-67.4004 0 -123.239 -45.6602 -123.239 -134.37c0 -84.4004 52.6396 -134.381 123.239 -134.381c67.3896 0 123.229 48.1904 123.229 134.381
c0 88.29 -55.8398 134.37 -123.229 134.37z" />
    <glyph glyph-name="colon" unicode=":" horiz-adv-x="223" 
d="M192.25 381.17h-162.25v173.77h162.25v-173.77zM192.25 -0h-162.25v173.77h162.25v-173.77z" />
    <glyph glyph-name="semicolon" unicode=";" horiz-adv-x="223" 
d="M30.1504 0.19043l-0.00195312 173.78h162.25v-173.76c0 -97.7002 -69.5195 -165.141 -178.399 -152.74v71.4502c48.7305 -10.9502 105.771 8.08984 107.171 81.2695h-91.0195zM184.328 381.091h-162.25v173.77h162.25v-173.77z" />
    <glyph glyph-name="less" unicode="&#x3c;" horiz-adv-x="727" 
d="M19 473.48l677 231.479v-161.57l-456.01 -155.91l456.01 -155.93v-161.55l-677 231.48v172z" />
    <glyph glyph-name="equal" unicode="=" horiz-adv-x="568" 
d="M538.73 237h-510.73v150.44h510.73v-150.44zM538.73 478.29h-510.73v150.44h510.73v-150.44z" />
    <glyph glyph-name="greater" unicode="&#x3e;" horiz-adv-x="727" 
d="M31 704.96l677 -231.479v-172l-677 -231.48v161.55l456.01 155.93l-456.01 155.91v161.57z" />
    <glyph glyph-name="question" unicode="?" horiz-adv-x="544" 
d="M336.57 0h-162.24v173.77h162.24v-173.77zM266.771 825.09c173.27 0 259.829 -72.3584 259.829 -236.509c0 -137.34 -200.07 -164.51 -200.07 -351.74h-142.13c0 236.03 187.2 237.46 187.2 362.38c0 46.3496 -41.5303 82.5898 -101.67 82.5898
c-69.54 0 -121.35 -34.7402 -121.35 -141.2c-95.25 0 -93.0898 1.2998 -146.58 1.2998c0 150.35 67.7305 283.18 264.771 283.18z" />
    <glyph glyph-name="at" unicode="@" horiz-adv-x="903" 
d="M877.05 460.76c4.24023 -142.54 -56.3604 -263.251 -223.051 -263.251c-84.0996 0 -125.199 48.0996 -138.299 75.3799c-16.9697 -26.1396 -46.0498 -55.4492 -123.04 -55.4492c-82.3896 0 -170.569 75.5 -170.569 190.56c0 134.49 105.38 207.26 198.58 207.26
c78.6504 0 106.17 -55.8799 106.17 -55.8799l4.59961 40.9404h111.2s-16.2803 -199.02 -16.2803 -270.92c0 -65.3301 158.53 -76.4199 158.53 105.63c0 112.53 -49.0898 303.681 -319.78 303.681c-174.41 0 -345.36 -151.92 -345.36 -332.65
c0 -156.68 110.93 -332.649 345.359 -332.649c80.3799 0 141.74 18.21 204.91 76.54h132.14c-77.6396 -100.26 -199.699 -164.95 -337.049 -164.95c-289.81 0 -440.109 188.51 -440.109 421.06c0 232.54 205.52 421.05 440.109 421.05
c296.13 0 407.17 -205.96 411.939 -366.35zM424.099 311.369c48.9502 0 89.3701 32.8506 89.3701 96.5908c0 60.8496 -38.0703 96.71 -89.3701 96.71c-48.9297 0 -89.3701 -34.6504 -89.3701 -96.71c0 -63.4004 40.4199 -96.5908 89.3701 -96.5908z" />
    <glyph glyph-name="A" unicode="A" horiz-adv-x="686" 
d="M554.91 0l-62.959 167.3h-298.24l-62.8701 -167.3h-170.17l297.02 809.37h188.05l279.34 -809.37h-170.17zM249.682 316.39h186.12l-92.96 246.49z" />
    <glyph glyph-name="A" unicode="&#xe5;" horiz-adv-x="686" 
d="M554.91 0l-62.959 167.3h-298.24l-62.8701 -167.3h-170.17l297.02 809.37h188.05l279.34 -809.37h-170.17zM249.682 316.39h186.12l-92.96 246.49z" />
    <glyph glyph-name="A" unicode="&#xe3;" horiz-adv-x="686" 
d="M554.91 0l-62.959 167.3h-298.24l-62.8701 -167.3h-170.17l297.02 809.37h188.05l279.34 -809.37h-170.17zM249.682 316.39h186.12l-92.96 246.49z" />
    <glyph glyph-name="A" unicode="&#xe2;" horiz-adv-x="686" 
d="M554.91 0l-62.959 167.3h-298.24l-62.8701 -167.3h-170.17l297.02 809.37h188.05l279.34 -809.37h-170.17zM249.682 316.39h186.12l-92.96 246.49z" />
    <glyph glyph-name="A" unicode="&#xe0;" horiz-adv-x="686" 
d="M554.91 0l-62.959 167.3h-298.24l-62.8701 -167.3h-170.17l297.02 809.37h188.05l279.34 -809.37h-170.17zM249.682 316.39h186.12l-92.96 246.49z" />
    <glyph glyph-name="A" unicode="&#xc5;" horiz-adv-x="686" 
d="M554.91 0l-62.959 167.3h-298.24l-62.8701 -167.3h-170.17l297.02 809.37h188.05l279.34 -809.37h-170.17zM249.682 316.39h186.12l-92.96 246.49z" />
    <glyph glyph-name="A" unicode="&#xc3;" horiz-adv-x="686" 
d="M554.91 0l-62.959 167.3h-298.24l-62.8701 -167.3h-170.17l297.02 809.37h188.05l279.34 -809.37h-170.17zM249.682 316.39h186.12l-92.96 246.49z" />
    <glyph glyph-name="A" unicode="&#xc2;" horiz-adv-x="686" 
d="M554.91 0l-62.959 167.3h-298.24l-62.8701 -167.3h-170.17l297.02 809.37h188.05l279.34 -809.37h-170.17zM249.682 316.39h186.12l-92.96 246.49z" />
    <glyph glyph-name="A" unicode="&#xc0;" horiz-adv-x="686" 
d="M554.91 0l-62.959 167.3h-298.24l-62.8701 -167.3h-170.17l297.02 809.37h188.05l279.34 -809.37h-170.17zM249.682 316.39h186.12l-92.96 246.49z" />
    <glyph glyph-name="A" unicode="a" horiz-adv-x="686" 
d="M554.91 0l-62.959 167.3h-298.24l-62.8701 -167.3h-170.17l297.02 809.37h188.05l279.34 -809.37h-170.17zM249.682 316.39h186.12l-92.96 246.49z" />
    <glyph glyph-name="B" unicode="B" horiz-adv-x="710" 
d="M46 809.37l337.351 -0.0195312c149.55 -0.0195312 252.78 -118.89 252.78 -236.62c0 -100.53 -67.9902 -168.891 -94.6807 -168.891c76.5303 0 154.32 -82.1396 154.32 -186.8c0 -109.58 -86.5303 -217.04 -234.86 -217.04h-414.91v809.37zM225.681 652.32v-169.119
h173.04c45.71 0 83.1201 38.8496 83.1201 84.5596c0 45.0996 -39.0703 84.5596 -81.9805 84.5596h-174.18zM449.631 157.142c46.0098 0 83.3096 37.2998 83.3291 83.3096c0 47.1504 -38.5898 85.7207 -85.7197 85.7207h-221.56v-169.03h223.95z" />
    <glyph glyph-name="B" unicode="b" horiz-adv-x="710" 
d="M46 809.37l337.351 -0.0195312c149.55 -0.0195312 252.78 -118.89 252.78 -236.62c0 -100.53 -67.9902 -168.891 -94.6807 -168.891c76.5303 0 154.32 -82.1396 154.32 -186.8c0 -109.58 -86.5303 -217.04 -234.86 -217.04h-414.91v809.37zM225.681 652.32v-169.119
h173.04c45.71 0 83.1201 38.8496 83.1201 84.5596c0 45.0996 -39.0703 84.5596 -81.9805 84.5596h-174.18zM449.631 157.142c46.0098 0 83.3096 37.2998 83.3291 83.3096c0 47.1504 -38.5898 85.7207 -85.7197 85.7207h-221.56v-169.03h223.95z" />
    <glyph glyph-name="C" unicode="C" horiz-adv-x="797" 
d="M601.29 326.13l182.899 -0.000976562c-30.3398 -225.21 -190.56 -341.13 -380.479 -341.13c-211.19 0 -385.71 144.6 -385.71 420.72c0 270.03 174.52 420.721 385.71 420.721c190.86 0 339.17 -116.45 376.4 -318.141h-186.48
c-21.2803 100.98 -96.8301 150.601 -189.92 150.601c-119.67 0 -211.18 -80.8896 -211.18 -253.18c0 -173.79 90.8701 -253.18 211.18 -253.18c100.68 0 184.35 56.0098 197.58 173.59z" />
    <glyph glyph-name="C" unicode="&#xe7;" horiz-adv-x="797" 
d="M601.29 326.13l182.899 -0.000976562c-30.3398 -225.21 -190.56 -341.13 -380.479 -341.13c-211.19 0 -385.71 144.6 -385.71 420.72c0 270.03 174.52 420.721 385.71 420.721c190.86 0 339.17 -116.45 376.4 -318.141h-186.48
c-21.2803 100.98 -96.8301 150.601 -189.92 150.601c-119.67 0 -211.18 -80.8896 -211.18 -253.18c0 -173.79 90.8701 -253.18 211.18 -253.18c100.68 0 184.35 56.0098 197.58 173.59z" />
    <glyph glyph-name="C" unicode="&#xc7;" horiz-adv-x="797" 
d="M601.29 326.13l182.899 -0.000976562c-30.3398 -225.21 -190.56 -341.13 -380.479 -341.13c-211.19 0 -385.71 144.6 -385.71 420.72c0 270.03 174.52 420.721 385.71 420.721c190.86 0 339.17 -116.45 376.4 -318.141h-186.48
c-21.2803 100.98 -96.8301 150.601 -189.92 150.601c-119.67 0 -211.18 -80.8896 -211.18 -253.18c0 -173.79 90.8701 -253.18 211.18 -253.18c100.68 0 184.35 56.0098 197.58 173.59z" />
    <glyph glyph-name="C" unicode="c" horiz-adv-x="797" 
d="M601.29 326.13l182.899 -0.000976562c-30.3398 -225.21 -190.56 -341.13 -380.479 -341.13c-211.19 0 -385.71 144.6 -385.71 420.72c0 270.03 174.52 420.721 385.71 420.721c190.86 0 339.17 -116.45 376.4 -318.141h-186.48
c-21.2803 100.98 -96.8301 150.601 -189.92 150.601c-119.67 0 -211.18 -80.8896 -211.18 -253.18c0 -173.79 90.8701 -253.18 211.18 -253.18c100.68 0 184.35 56.0098 197.58 173.59z" />
    <glyph glyph-name="D" unicode="D" horiz-adv-x="756" 
d="M356.18 809.8c212.79 -0.179688 385.32 -181.44 385.32 -404.721c0 -223.29 -172.53 -404.56 -385.32 -404.729h-310.18v809.45h310.18zM225.83 649.019v-488.401h136.42c104.46 0 193.91 103.25 205 220.18c0.00976562 0.219727 0.0693359 0.429688 0.0888672 0.660156
c0.139648 1.70996 0.109375 3.45996 0.239258 5.19043c0.44043 6.08984 0.84082 12.21 0.84082 18.4297c0 2.49023 -0.269531 4.90039 -0.329102 7.38086c-3.55957 125.41 -96.3691 236.561 -205.85 236.561h-136.41z" />
    <glyph glyph-name="D" unicode="d" horiz-adv-x="756" 
d="M356.18 809.8c212.79 -0.179688 385.32 -181.44 385.32 -404.721c0 -223.29 -172.53 -404.56 -385.32 -404.729h-310.18v809.45h310.18zM225.83 649.019v-488.401h136.42c104.46 0 193.91 103.25 205 220.18c0.00976562 0.219727 0.0693359 0.429688 0.0888672 0.660156
c0.139648 1.70996 0.109375 3.45996 0.239258 5.19043c0.44043 6.08984 0.84082 12.21 0.84082 18.4297c0 2.49023 -0.269531 4.90039 -0.329102 7.38086c-3.55957 125.41 -96.3691 236.561 -205.85 236.561h-136.41z" />
    <glyph glyph-name="E" unicode="E" horiz-adv-x="671" 
d="M46 809.37h578.658v-161.874h-403.536v-144.068l336.158 -1.44238v-161.874l-336.158 1.44238v-179.68h403.536v-161.874h-578.658v809.37z" />
    <glyph glyph-name="E" unicode="&#xeb;" horiz-adv-x="671" 
d="M46 809.37h578.658v-161.874h-403.536v-144.068l336.158 -1.44238v-161.874l-336.158 1.44238v-179.68h403.536v-161.874h-578.658v809.37z" />
    <glyph glyph-name="E" unicode="&#xea;" horiz-adv-x="671" 
d="M46 809.37h578.658v-161.874h-403.536v-144.068l336.158 -1.44238v-161.874l-336.158 1.44238v-179.68h403.536v-161.874h-578.658v809.37z" />
    <glyph glyph-name="E" unicode="&#xe8;" horiz-adv-x="671" 
d="M46 809.37h578.658v-161.874h-403.536v-144.068l336.158 -1.44238v-161.874l-336.158 1.44238v-179.68h403.536v-161.874h-578.658v809.37z" />
    <glyph glyph-name="E" unicode="&#xcb;" horiz-adv-x="671" 
d="M46 809.37h578.658v-161.874h-403.536v-144.068l336.158 -1.44238v-161.874l-336.158 1.44238v-179.68h403.536v-161.874h-578.658v809.37z" />
    <glyph glyph-name="E" unicode="&#xca;" horiz-adv-x="671" 
d="M46 809.37h578.658v-161.874h-403.536v-144.068l336.158 -1.44238v-161.874l-336.158 1.44238v-179.68h403.536v-161.874h-578.658v809.37z" />
    <glyph glyph-name="E" unicode="&#xc8;" horiz-adv-x="671" 
d="M46 809.37h578.658v-161.874h-403.536v-144.068l336.158 -1.44238v-161.874l-336.158 1.44238v-179.68h403.536v-161.874h-578.658v809.37z" />
    <glyph glyph-name="E" unicode="e" horiz-adv-x="671" 
d="M46 809.37h578.658v-161.874h-403.536v-144.068l336.158 -1.44238v-161.874l-336.158 1.44238v-179.68h403.536v-161.874h-578.658v809.37z" />
    <glyph glyph-name="F" unicode="F" horiz-adv-x="613" 
d="M225.68 0h-179.681v809.37h569.86v-161.87h-390.18v-144.07h300.4v-161.88h-300.4v-341.55z" />
    <glyph glyph-name="F" unicode="f" horiz-adv-x="613" 
d="M225.68 0h-179.681v809.37h569.86v-161.87h-390.18v-144.07h300.4v-161.88h-300.4v-341.55z" />
    <glyph glyph-name="G" unicode="G" horiz-adv-x="807" 
d="M448.51 398.04l330.61 -0.000976562v-396.8h-108.62l-15.1504 71.7002c-67.8301 -58.1299 -155.84 -87.9395 -251.64 -87.9395c-211.19 0 -385.71 144.6 -385.71 420.72c0 270.03 174.52 420.721 385.71 420.721c186.09 0 331.55 -110.83 373.25 -303.311h-180
c-32.1602 92.1699 -104.771 135.74 -193.251 135.74c-119.67 0 -211.18 -80.8799 -211.18 -253.17c0 -173.78 90.8701 -253.181 211.18 -253.181c83.5303 0 154.931 39.1904 190.081 126.15h-145.28v119.37z" />
    <glyph glyph-name="G" unicode="g" horiz-adv-x="807" 
d="M448.51 398.04l330.61 -0.000976562v-396.8h-108.62l-15.1504 71.7002c-67.8301 -58.1299 -155.84 -87.9395 -251.64 -87.9395c-211.19 0 -385.71 144.6 -385.71 420.72c0 270.03 174.52 420.721 385.71 420.721c186.09 0 331.55 -110.83 373.25 -303.311h-180
c-32.1602 92.1699 -104.771 135.74 -193.251 135.74c-119.67 0 -211.18 -80.8799 -211.18 -253.17c0 -173.78 90.8701 -253.181 211.18 -253.181c83.5303 0 154.931 39.1904 190.081 126.15h-145.28v119.37z" />
    <glyph glyph-name="H" unicode="H" horiz-adv-x="793" 
d="M225.68 809.37v-305.94h341.29v305.94h179.68v-809.37h-179.68v341.55h-341.29v-341.55h-179.68v809.37h179.68z" />
    <glyph glyph-name="H" unicode="h" horiz-adv-x="793" 
d="M225.68 809.37v-305.94h341.29v305.94h179.68v-809.37h-179.68v341.55h-341.29v-341.55h-179.68v809.37h179.68z" />
    <glyph glyph-name="I" unicode="I" horiz-adv-x="259" 
d="M212.59 809.37v-809.37h-166.59v809.37h166.59z" />
    <glyph glyph-name="I" unicode="&#xef;" horiz-adv-x="259" 
d="M212.59 809.37v-809.37h-166.59v809.37h166.59z" />
    <glyph glyph-name="I" unicode="&#xee;" horiz-adv-x="259" 
d="M212.59 809.37v-809.37h-166.59v809.37h166.59z" />
    <glyph glyph-name="I" unicode="&#xec;" horiz-adv-x="259" 
d="M212.59 809.37v-809.37h-166.59v809.37h166.59z" />
    <glyph glyph-name="I" unicode="&#xcf;" horiz-adv-x="259" 
d="M212.59 809.37v-809.37h-166.59v809.37h166.59z" />
    <glyph glyph-name="I" unicode="&#xce;" horiz-adv-x="259" 
d="M212.59 809.37v-809.37h-166.59v809.37h166.59z" />
    <glyph glyph-name="I" unicode="&#xcc;" horiz-adv-x="259" 
d="M212.59 809.37v-809.37h-166.59v809.37h166.59z" />
    <glyph glyph-name="I" unicode="i" horiz-adv-x="259" 
d="M212.59 809.37v-809.37h-166.59v809.37h166.59z" />
    <glyph glyph-name="J" unicode="J" horiz-adv-x="618" 
d="M289.52 156.99c93.7803 0 116.641 37.1201 116.641 173.82v478.62h172.01v-476.72c0 -208.06 -30.6104 -347.71 -288.301 -347.71c-258.36 -0.0195312 -286.87 169.461 -286.87 349.511l170.08 0.0195312v-1.23047c0 -139.19 17.3604 -176.311 116.44 -176.311z" />
    <glyph glyph-name="J" unicode="j" horiz-adv-x="618" 
d="M289.52 156.99c93.7803 0 116.641 37.1201 116.641 173.82v478.62h172.01v-476.72c0 -208.06 -30.6104 -347.71 -288.301 -347.71c-258.36 -0.0195312 -286.87 169.461 -286.87 349.511l170.08 0.0195312v-1.23047c0 -139.19 17.3604 -176.311 116.44 -176.311z" />
    <glyph glyph-name="K" unicode="K" horiz-adv-x="748" 
d="M418.89 479.85l339.19 -479.411l-199.47 -0.0498047l-254.41 354.65l-88.0303 -95.7998v-258.85h-170.17v809.38h170.17v-336.01l308.7 336.01h197.22z" />
    <glyph glyph-name="K" unicode="k" horiz-adv-x="748" 
d="M418.89 479.85l339.19 -479.411l-199.47 -0.0498047l-254.41 354.65l-88.0303 -95.7998v-258.85h-170.17v809.38h170.17v-336.01l308.7 336.01h197.22z" />
    <glyph glyph-name="L" unicode="L" horiz-adv-x="617" 
d="M225.67 162.28h394.96v-161.89h-574.63v809.38h179.67v-647.49z" />
    <glyph glyph-name="L" unicode="l" horiz-adv-x="617" 
d="M225.67 162.28h394.96v-161.89h-574.63v809.38h179.67v-647.49z" />
    <glyph glyph-name="M" unicode="M" horiz-adv-x="929" 
d="M694.76 809.37h187.839v-809.37h-170.18v463.68l-180.71 -463.68h-134.65l-180.89 464.13v-464.13h-170.17v809.37h187.98l230.41 -636.85z" />
    <glyph glyph-name="M" unicode="m" horiz-adv-x="929" 
d="M694.76 809.37h187.839v-809.37h-170.18v463.68l-180.71 -463.68h-134.65l-180.89 464.13v-464.13h-170.17v809.37h187.98l230.41 -636.85z" />
    <glyph glyph-name="N" unicode="N" horiz-adv-x="821" 
d="M608.4 809.37h166.58v-809.37h-166.58l-392.23 550.7l-4.76953 -550.7h-165.4v809.37h165.4l397 -546.2v546.2z" />
    <glyph glyph-name="N" unicode="&#xf1;" horiz-adv-x="821" 
d="M608.4 809.37h166.58v-809.37h-166.58l-392.23 550.7l-4.76953 -550.7h-165.4v809.37h165.4l397 -546.2v546.2z" />
    <glyph glyph-name="N" unicode="&#xd1;" horiz-adv-x="821" 
d="M608.4 809.37h166.58v-809.37h-166.58l-392.23 550.7l-4.76953 -550.7h-165.4v809.37h165.4l397 -546.2v546.2z" />
    <glyph glyph-name="N" unicode="n" horiz-adv-x="821" 
d="M608.4 809.37h166.58v-809.37h-166.58l-392.23 550.7l-4.76953 -550.7h-165.4v809.37h165.4l397 -546.2v546.2z" />
    <glyph glyph-name="O" unicode="O" horiz-adv-x="808" 
d="M403.71 826.44c221.28 0 385.72 -156.229 385.72 -420.72c0 -277.49 -174.56 -420.721 -385.72 -420.721c-211.19 0 -385.71 144.6 -385.71 420.72c0 270.03 174.52 420.721 385.71 420.721zM403.709 152.541c121.07 0 211.181 79.3799 211.181 253.18
c0 173.23 -91.1104 253.16 -211.181 253.16c-119.67 0 -211.18 -80.8701 -211.18 -253.16c0 -173.79 90.8701 -253.18 211.18 -253.18z" />
    <glyph glyph-name="O" unicode="&#xf8;" horiz-adv-x="808" 
d="M403.71 826.44c221.28 0 385.72 -156.229 385.72 -420.72c0 -277.49 -174.56 -420.721 -385.72 -420.721c-211.19 0 -385.71 144.6 -385.71 420.72c0 270.03 174.52 420.721 385.71 420.721zM403.709 152.541c121.07 0 211.181 79.3799 211.181 253.18
c0 173.23 -91.1104 253.16 -211.181 253.16c-119.67 0 -211.18 -80.8701 -211.18 -253.16c0 -173.79 90.8701 -253.18 211.18 -253.18z" />
    <glyph glyph-name="O" unicode="&#xf5;" horiz-adv-x="808" 
d="M403.71 826.44c221.28 0 385.72 -156.229 385.72 -420.72c0 -277.49 -174.56 -420.721 -385.72 -420.721c-211.19 0 -385.71 144.6 -385.71 420.72c0 270.03 174.52 420.721 385.71 420.721zM403.709 152.541c121.07 0 211.181 79.3799 211.181 253.18
c0 173.23 -91.1104 253.16 -211.181 253.16c-119.67 0 -211.18 -80.8701 -211.18 -253.16c0 -173.79 90.8701 -253.18 211.18 -253.18z" />
    <glyph glyph-name="O" unicode="&#xf4;" horiz-adv-x="808" 
d="M403.71 826.44c221.28 0 385.72 -156.229 385.72 -420.72c0 -277.49 -174.56 -420.721 -385.72 -420.721c-211.19 0 -385.71 144.6 -385.71 420.72c0 270.03 174.52 420.721 385.71 420.721zM403.709 152.541c121.07 0 211.181 79.3799 211.181 253.18
c0 173.23 -91.1104 253.16 -211.181 253.16c-119.67 0 -211.18 -80.8701 -211.18 -253.16c0 -173.79 90.8701 -253.18 211.18 -253.18z" />
    <glyph glyph-name="O" unicode="&#xf2;" horiz-adv-x="808" 
d="M403.71 826.44c221.28 0 385.72 -156.229 385.72 -420.72c0 -277.49 -174.56 -420.721 -385.72 -420.721c-211.19 0 -385.71 144.6 -385.71 420.72c0 270.03 174.52 420.721 385.71 420.721zM403.709 152.541c121.07 0 211.181 79.3799 211.181 253.18
c0 173.23 -91.1104 253.16 -211.181 253.16c-119.67 0 -211.18 -80.8701 -211.18 -253.16c0 -173.79 90.8701 -253.18 211.18 -253.18z" />
    <glyph glyph-name="O" unicode="&#xd8;" horiz-adv-x="808" 
d="M403.71 826.44c221.28 0 385.72 -156.229 385.72 -420.72c0 -277.49 -174.56 -420.721 -385.72 -420.721c-211.19 0 -385.71 144.6 -385.71 420.72c0 270.03 174.52 420.721 385.71 420.721zM403.709 152.541c121.07 0 211.181 79.3799 211.181 253.18
c0 173.23 -91.1104 253.16 -211.181 253.16c-119.67 0 -211.18 -80.8701 -211.18 -253.16c0 -173.79 90.8701 -253.18 211.18 -253.18z" />
    <glyph glyph-name="O" unicode="&#xd5;" horiz-adv-x="808" 
d="M403.71 826.44c221.28 0 385.72 -156.229 385.72 -420.72c0 -277.49 -174.56 -420.721 -385.72 -420.721c-211.19 0 -385.71 144.6 -385.71 420.72c0 270.03 174.52 420.721 385.71 420.721zM403.709 152.541c121.07 0 211.181 79.3799 211.181 253.18
c0 173.23 -91.1104 253.16 -211.181 253.16c-119.67 0 -211.18 -80.8701 -211.18 -253.16c0 -173.79 90.8701 -253.18 211.18 -253.18z" />
    <glyph glyph-name="O" unicode="&#xd4;" horiz-adv-x="808" 
d="M403.71 826.44c221.28 0 385.72 -156.229 385.72 -420.72c0 -277.49 -174.56 -420.721 -385.72 -420.721c-211.19 0 -385.71 144.6 -385.71 420.72c0 270.03 174.52 420.721 385.71 420.721zM403.709 152.541c121.07 0 211.181 79.3799 211.181 253.18
c0 173.23 -91.1104 253.16 -211.181 253.16c-119.67 0 -211.18 -80.8701 -211.18 -253.16c0 -173.79 90.8701 -253.18 211.18 -253.18z" />
    <glyph glyph-name="O" unicode="&#xd2;" horiz-adv-x="808" 
d="M403.71 826.44c221.28 0 385.72 -156.229 385.72 -420.72c0 -277.49 -174.56 -420.721 -385.72 -420.721c-211.19 0 -385.71 144.6 -385.71 420.72c0 270.03 174.52 420.721 385.71 420.721zM403.709 152.541c121.07 0 211.181 79.3799 211.181 253.18
c0 173.23 -91.1104 253.16 -211.181 253.16c-119.67 0 -211.18 -80.8701 -211.18 -253.16c0 -173.79 90.8701 -253.18 211.18 -253.18z" />
    <glyph glyph-name="O" unicode="o" horiz-adv-x="808" 
d="M403.71 826.44c221.28 0 385.72 -156.229 385.72 -420.72c0 -277.49 -174.56 -420.721 -385.72 -420.721c-211.19 0 -385.71 144.6 -385.71 420.72c0 270.03 174.52 420.721 385.71 420.721zM403.709 152.541c121.07 0 211.181 79.3799 211.181 253.18
c0 173.23 -91.1104 253.16 -211.181 253.16c-119.67 0 -211.18 -80.8701 -211.18 -253.16c0 -173.79 90.8701 -253.18 211.18 -253.18z" />
    <glyph glyph-name="P" unicode="P" horiz-adv-x="675" 
d="M46 809.46l338.85 0.350586c176.53 0 283.83 -127.57 283.83 -260.82c0 -134.98 -107.42 -257.45 -283.35 -257.45c-170.93 0 -159.68 0 -159.68 0v-291.54h-179.65v809.46zM398.92 448.591c62.3203 0 112.891 37.8691 112.891 100.369
c0 62.3203 -50.5703 103.811 -112.891 103.811h-173.25v-204.18h173.25z" />
    <glyph glyph-name="P" unicode="p" horiz-adv-x="675" 
d="M46 809.46l338.85 0.350586c176.53 0 283.83 -127.57 283.83 -260.82c0 -134.98 -107.42 -257.45 -283.35 -257.45c-170.93 0 -159.68 0 -159.68 0v-291.54h-179.65v809.46zM398.92 448.591c62.3203 0 112.891 37.8691 112.891 100.369
c0 62.3203 -50.5703 103.811 -112.891 103.811h-173.25v-204.18h173.25z" />
    <glyph glyph-name="Q" unicode="Q" horiz-adv-x="812" 
d="M789.43 406.07c0 -126.63 -36.4209 -225.21 -96.0107 -295.06l72.6602 -82.0498l-120.74 -106.94l-83.1201 93.8301c-48.5195 -20.21 -102.189 -30.5 -158.51 -30.5c-211.19 0 -385.71 144.6 -385.71 420.72c0 270.03 174.52 420.721 385.71 420.721
c221.28 0 385.721 -156.23 385.721 -420.721zM403.709 152.891c11.9902 0 23.541 1 34.8711 2.58008l-77.7305 87.75l120.75 106.94l94.4902 -106.69c24.54 40.1299 38.7998 93.8701 38.7998 162.601c0 173.24 -91.1104 253.17 -211.181 253.17
c-119.67 0 -211.18 -80.9004 -211.18 -253.17c0 -173.78 90.8701 -253.181 211.18 -253.181z" />
    <glyph glyph-name="Q" unicode="q" horiz-adv-x="812" 
d="M789.43 406.07c0 -126.63 -36.4209 -225.21 -96.0107 -295.06l72.6602 -82.0498l-120.74 -106.94l-83.1201 93.8301c-48.5195 -20.21 -102.189 -30.5 -158.51 -30.5c-211.19 0 -385.71 144.6 -385.71 420.72c0 270.03 174.52 420.721 385.71 420.721
c221.28 0 385.721 -156.23 385.721 -420.721zM403.709 152.891c11.9902 0 23.541 1 34.8711 2.58008l-77.7305 87.75l120.75 106.94l94.4902 -106.69c24.54 40.1299 38.7998 93.8701 38.7998 162.601c0 173.24 -91.1104 253.17 -211.181 253.17
c-119.67 0 -211.18 -80.9004 -211.18 -253.17c0 -173.78 90.8701 -253.181 211.18 -253.181z" />
    <glyph glyph-name="R" unicode="R" horiz-adv-x="744" 
d="M548.41 309.82l190.649 -309.588h-205.21l-160.26 291.31h-147.95v-291.54h-179.64v809.46l374.46 0.349609c176.53 0 283.83 -127.57 283.83 -260.82c0 -103.98 -60.4502 -203.98 -155.88 -239.171zM225.659 448.593l208.87 -0.000976562
c62.3203 0 112.891 37.8701 112.891 100.37c0 62.3203 -50.5703 103.811 -112.891 103.811h-208.87v-204.18z" />
    <glyph glyph-name="R" unicode="r" horiz-adv-x="744" 
d="M548.41 309.82l190.649 -309.588h-205.21l-160.26 291.31h-147.95v-291.54h-179.64v809.46l374.46 0.349609c176.53 0 283.83 -127.57 283.83 -260.82c0 -103.98 -60.4502 -203.98 -155.88 -239.171zM225.659 448.593l208.87 -0.000976562
c62.3203 0 112.891 37.8701 112.891 100.37c0 62.3203 -50.5703 103.811 -112.891 103.811h-208.87v-204.18z" />
    <glyph glyph-name="S" unicode="S" horiz-adv-x="711" 
d="M397.02 484.64c129.98 -29.21 291.657 -65.3496 291.657 -227.21c0 -160.43 -120.78 -272.43 -354.41 -272.43c-194.1 0 -315.27 113.6 -315.27 258.72v15.6699h192.84v-15.6699c0 -69.7998 75.1396 -93.96 149.21 -93.96c71.4004 0 143.341 20.4199 143.341 93.96
c0 59.6504 -86 80.1309 -185.72 103.811c-127.49 30.2695 -286.32 68.0195 -286.32 218.829c0 157.41 130.7 259.08 332.8 259.08c186.25 0 316.41 -106.66 316.41 -259.08v-15.4902h-177.17v15.4902c0 61.2598 -79.7695 97.9395 -157.05 97.9395
c-51.6396 0 -128.199 -24.4102 -128.199 -83.1602c0 -56.7998 82.4404 -75.3193 177.881 -96.499z" />
    <glyph glyph-name="S" unicode="s" horiz-adv-x="711" 
d="M397.02 484.64c129.98 -29.21 291.657 -65.3496 291.657 -227.21c0 -160.43 -120.78 -272.43 -354.41 -272.43c-194.1 0 -315.27 113.6 -315.27 258.72v15.6699h192.84v-15.6699c0 -69.7998 75.1396 -93.96 149.21 -93.96c71.4004 0 143.341 20.4199 143.341 93.96
c0 59.6504 -86 80.1309 -185.72 103.811c-127.49 30.2695 -286.32 68.0195 -286.32 218.829c0 157.41 130.7 259.08 332.8 259.08c186.25 0 316.41 -106.66 316.41 -259.08v-15.4902h-177.17v15.4902c0 61.2598 -79.7695 97.9395 -157.05 97.9395
c-51.6396 0 -128.199 -24.4102 -128.199 -83.1602c0 -56.7998 82.4404 -75.3193 177.881 -96.499z" />
    <glyph glyph-name="T" unicode="T" horiz-adv-x="759" 
d="M7.11035 809.37h743.84v-161.87h-281.97v-647.5h-179.68v647.5h-282.19v161.87z" />
    <glyph glyph-name="T" unicode="t" horiz-adv-x="759" 
d="M7.11035 809.37h743.84v-161.87h-281.97v-647.5h-179.68v647.5h-282.19v161.87z" />
    <glyph glyph-name="U" unicode="U" horiz-adv-x="741" 
d="M543.85 810.47h159.11v-499.62c0 -178.75 -99.0703 -325.85 -333.04 -325.85c-230.14 0 -332.92 147.1 -332.92 325.85v499.62h158.54v-497.86h0.0595703v-5.88965c0 -127.31 94.6396 -162.319 174.09 -162.319c79.8398 0 174.09 35.0098 174.09 162.71v5.51953
h0.0703125v497.84z" />
    <glyph glyph-name="U" unicode="&#xfb;" horiz-adv-x="741" 
d="M543.85 810.47h159.11v-499.62c0 -178.75 -99.0703 -325.85 -333.04 -325.85c-230.14 0 -332.92 147.1 -332.92 325.85v499.62h158.54v-497.86h0.0595703v-5.88965c0 -127.31 94.6396 -162.319 174.09 -162.319c79.8398 0 174.09 35.0098 174.09 162.71v5.51953
h0.0703125v497.84z" />
    <glyph glyph-name="U" unicode="&#xf9;" horiz-adv-x="741" 
d="M543.85 810.47h159.11v-499.62c0 -178.75 -99.0703 -325.85 -333.04 -325.85c-230.14 0 -332.92 147.1 -332.92 325.85v499.62h158.54v-497.86h0.0595703v-5.88965c0 -127.31 94.6396 -162.319 174.09 -162.319c79.8398 0 174.09 35.0098 174.09 162.71v5.51953
h0.0703125v497.84z" />
    <glyph glyph-name="U" unicode="&#xdb;" horiz-adv-x="741" 
d="M543.85 810.47h159.11v-499.62c0 -178.75 -99.0703 -325.85 -333.04 -325.85c-230.14 0 -332.92 147.1 -332.92 325.85v499.62h158.54v-497.86h0.0595703v-5.88965c0 -127.31 94.6396 -162.319 174.09 -162.319c79.8398 0 174.09 35.0098 174.09 162.71v5.51953
h0.0703125v497.84z" />
    <glyph glyph-name="U" unicode="&#xd9;" horiz-adv-x="741" 
d="M543.85 810.47h159.11v-499.62c0 -178.75 -99.0703 -325.85 -333.04 -325.85c-230.14 0 -332.92 147.1 -332.92 325.85v499.62h158.54v-497.86h0.0595703v-5.88965c0 -127.31 94.6396 -162.319 174.09 -162.319c79.8398 0 174.09 35.0098 174.09 162.71v5.51953
h0.0703125v497.84z" />
    <glyph glyph-name="U" unicode="u" horiz-adv-x="741" 
d="M543.85 810.47h159.11v-499.62c0 -178.75 -99.0703 -325.85 -333.04 -325.85c-230.14 0 -332.92 147.1 -332.92 325.85v499.62h158.54v-497.86h0.0595703v-5.88965c0 -127.31 94.6396 -162.319 174.09 -162.319c79.8398 0 174.09 35.0098 174.09 162.71v5.51953
h0.0703125v497.84z" />
    <glyph glyph-name="V" unicode="V" horiz-adv-x="712" 
d="M451.93 0.0898438l-192.48 -0.0898438l-267.45 809.28h170.23l193.01 -584.21l194.09 584.56h170.23z" />
    <glyph glyph-name="V" unicode="v" horiz-adv-x="712" 
d="M451.93 0.0898438l-192.48 -0.0898438l-267.45 809.28h170.23l193.01 -584.21l194.09 584.56h170.23z" />
    <glyph glyph-name="W" unicode="W" horiz-adv-x="1131" 
d="M967.387 810.06l170.229 -0.000976562l-249.81 -809.63h-192.49l-146.63 512.88l-146.9 -513.25l-192.48 -0.0595703l-249.64 809.71h170.23l175.2 -584.95l158.48 584.95h170.13l157.41 -584.22z" />
    <glyph glyph-name="W" unicode="w" horiz-adv-x="1131" 
d="M967.387 810.06l170.229 -0.000976562l-249.81 -809.63h-192.49l-146.63 512.88l-146.9 -513.25l-192.48 -0.0595703l-249.64 809.71h170.23l175.2 -584.95l158.48 584.95h170.13l157.41 -584.22z" />
    <glyph glyph-name="X" unicode="X" horiz-adv-x="772" 
d="M778.99 809.77l-281.21 -404.69l281.21 -404.69h-223.6l-169.4 243.81l-169.41 -243.81h-223.58l281.18 404.69l-281.18 404.69h223.58l169.41 -243.8l169.4 243.8h223.6z" />
    <glyph glyph-name="X" unicode="x" horiz-adv-x="772" 
d="M778.99 809.77l-281.21 -404.69l281.21 -404.69h-223.6l-169.4 243.81l-169.41 -243.81h-223.58l281.18 404.69l-281.18 404.69h223.58l169.41 -243.8l169.4 243.8h223.6z" />
    <glyph glyph-name="Y" unicode="Y" horiz-adv-x="694" 
d="M502.8 809.27h205.79l-276.71 -485.52v-323.36h-170.17v323.36l-276.71 485.52h205.78l155.47 -316.62z" />
    <glyph glyph-name="Y" unicode="&#x178;" horiz-adv-x="694" 
d="M502.8 809.27h205.79l-276.71 -485.52v-323.36h-170.17v323.36l-276.71 485.52h205.78l155.47 -316.62z" />
    <glyph glyph-name="Y" unicode="&#xff;" horiz-adv-x="694" 
d="M502.8 809.27h205.79l-276.71 -485.52v-323.36h-170.17v323.36l-276.71 485.52h205.78l155.47 -316.62z" />
    <glyph glyph-name="Y" unicode="&#xfd;" horiz-adv-x="694" 
d="M502.8 809.27h205.79l-276.71 -485.52v-323.36h-170.17v323.36l-276.71 485.52h205.78l155.47 -316.62z" />
    <glyph glyph-name="Y" unicode="&#xdd;" horiz-adv-x="694" 
d="M502.8 809.27h205.79l-276.71 -485.52v-323.36h-170.17v323.36l-276.71 485.52h205.78l155.47 -316.62z" />
    <glyph glyph-name="Y" unicode="y" horiz-adv-x="694" 
d="M502.8 809.27h205.79l-276.71 -485.52v-323.36h-170.17v323.36l-276.71 485.52h205.78l155.47 -316.62z" />
    <glyph glyph-name="Z" unicode="Z" horiz-adv-x="717" 
d="M699.11 647.5l-471.52 -485.63h471.52v-161.87h-682.11v161.87l465.55 485.63h-465.55v161.87h682.11v-161.87z" />
    <glyph glyph-name="Z" unicode="z" horiz-adv-x="717" 
d="M699.11 647.5l-471.52 -485.63h471.52v-161.87h-682.11v161.87l465.55 485.63h-465.55v161.87h682.11v-161.87z" />
    <glyph glyph-name="bracketleft" unicode="[" horiz-adv-x="405" 
d="M404.68 -162h-404.68v1135.27h404.68v-133.95h-242.81v-867.35h242.81v-133.97z" />
    <glyph glyph-name="backslash" unicode="\" horiz-adv-x="682" 
d="M59 809.62h171.49l392.03 -809.62h-171.49z" />
    <glyph glyph-name="bracketright" unicode="]" horiz-adv-x="452" 
d="M0.889648 973.27h404.68v-1135.27h-404.68v133.97h242.8v867.35h-242.8v133.95z" />
    <glyph glyph-name="underscore" unicode="_" horiz-adv-x="597" 
d="M580.97 0h-564.97v97.0195h564.97v-97.0195z" />
    <glyph glyph-name="nonbreakingspace" unicode="&#xa0;" horiz-adv-x="344" 
 />
    <glyph glyph-name="sterling" unicode="&#xa3;" horiz-adv-x="673" 
d="M626.87 550.85l-177.172 0.000976562v15.4902c0 61.25 -44.1602 106.55 -121.44 106.55c-51.0996 0 -92.7695 -40.4902 -92.7695 -91.7705c0 -43.5801 66.4004 -73.0801 97.3809 -128.24h125.62v-116.2h-122.13c-31.7598 -71.1904 -114.97 -103.301 -114.97 -174.36
h368.46v-162.32h-543.85c0 249.23 73.3604 299.021 116.721 336.681h-104.11v116.2h100.69c-36.3203 40.3301 -88.25 88.5303 -88.25 166.11c0 90.1299 72.7402 206.42 274.84 206.42c186.43 0 280.979 -106.48 280.979 -259.07v-15.4902z" />
    <glyph glyph-name="yen" unicode="&#xa5;" horiz-adv-x="786" 
d="M771.71 415.86h-241.11l-52.6504 -92.3604h183.9v-79.1504h-183.97v-244.35h-170.17v244.35h-183.97v79.1504h183.88l-52.6396 92.3604h-241.98v79.1504h196.88l-178.88 313.86h205.79l155.46 -316.64l156.55 316.64h205.78l-178.88 -313.86h196.01v-79.1504z" />
    <glyph glyph-name="softhyphen" unicode="&#xad;" 
 />
    <glyph glyph-name="Aacute" unicode="&#xc1;" horiz-adv-x="856" 
d="M531.07 809.352l279.342 -809.352h-170.172l-62.9619 167.305h-298.232l-62.873 -167.305h-170.172l297.057 809.352h188.013zM335.011 316.376h186.126l-92.9648 246.488zM627.242 1039.28l-117.591 -162.817h-136.162l117.591 162.817h136.162z" />
    <glyph glyph-name="Aacute" unicode="&#xe1;" horiz-adv-x="856" 
d="M531.07 809.352l279.342 -809.352h-170.172l-62.9619 167.305h-298.232l-62.873 -167.305h-170.172l297.057 809.352h188.013zM335.011 316.376h186.126l-92.9648 246.488zM627.242 1039.28l-117.591 -162.817h-136.162l117.591 162.817h136.162z" />
    <glyph glyph-name="Adieresis" unicode="&#xc4;" horiz-adv-x="856" 
d="M531.07 809.37l279.358 -809.37h-170.172l-62.9619 167.305h-298.25l-62.873 -167.305h-170.172l297.039 809.37h188.031zM334.992 316.395h186.126l-92.9648 246.488zM383.71 876.926h-142.821v142.821h142.821v-142.821zM615.508 876.926h-142.821v142.821h142.821
v-142.821z" />
    <glyph glyph-name="Adieresis" unicode="&#xe4;" horiz-adv-x="856" 
d="M531.07 809.37l279.358 -809.37h-170.172l-62.9619 167.305h-298.25l-62.873 -167.305h-170.172l297.039 809.37h188.031zM334.992 316.395h186.126l-92.9648 246.488zM383.71 876.926h-142.821v142.821h142.821v-142.821zM615.508 876.926h-142.821v142.821h142.821
v-142.821z" />
    <glyph glyph-name="Eacute" unicode="&#xc9;" horiz-adv-x="671" 
d="M624.658 647.496h-403.536v-144.068l336.158 -1.44238v-161.874l-336.158 1.44238v-179.68h403.536v-161.874h-578.658v809.37h578.658v-161.874zM493.606 1039.69l-117.608 -162.817h-136.145l117.591 162.817h136.162z" />
    <glyph glyph-name="Eacute" unicode="&#xe9;" horiz-adv-x="671" 
d="M624.658 647.496h-403.536v-144.068l336.158 -1.44238v-161.874l-336.158 1.44238v-179.68h403.536v-161.874h-578.658v809.37h578.658v-161.874zM493.606 1039.69l-117.608 -162.817h-136.145l117.591 162.817h136.162z" />
    <glyph glyph-name="Iacute" unicode="&#xcd;" horiz-adv-x="362" 
d="M210.5 0h-164.491v809.37h164.491v-809.37zM315.911 1023.15l-117.591 -162.817h-136.162l117.608 162.817h136.145z" />
    <glyph glyph-name="Iacute" unicode="&#xed;" horiz-adv-x="362" 
d="M210.5 0h-164.491v809.37h164.491v-809.37zM315.911 1023.15l-117.591 -162.817h-136.162l117.608 162.817h136.145z" />
    <glyph glyph-name="Oacute" unicode="&#xd3;" horiz-adv-x="808" 
d="M574.79 1040.63l-117.61 -162.82h-136.14l117.59 162.82h136.16zM403.71 826.439c221.28 0 385.72 -156.21 385.72 -420.72c0 -277.49 -174.56 -420.721 -385.72 -420.721c-211.19 0 -385.71 144.6 -385.71 420.72c0 270.03 174.52 420.721 385.71 420.721z
M403.709 152.539c121.07 0 211.181 79.3896 211.181 253.18c0 173.23 -91.1104 253.16 -211.181 253.16c-119.67 0 -211.18 -80.8701 -211.18 -253.16c0 -173.79 90.8701 -253.18 211.18 -253.18z" />
    <glyph glyph-name="Oacute" unicode="&#xf3;" horiz-adv-x="808" 
d="M574.79 1040.63l-117.61 -162.82h-136.14l117.59 162.82h136.16zM403.71 826.439c221.28 0 385.72 -156.21 385.72 -420.72c0 -277.49 -174.56 -420.721 -385.72 -420.721c-211.19 0 -385.71 144.6 -385.71 420.72c0 270.03 174.52 420.721 385.71 420.721z
M403.709 152.539c121.07 0 211.181 79.3896 211.181 253.18c0 173.23 -91.1104 253.16 -211.181 253.16c-119.67 0 -211.18 -80.8701 -211.18 -253.16c0 -173.79 90.8701 -253.18 211.18 -253.18z" />
    <glyph glyph-name="Odieresis" unicode="&#xd6;" horiz-adv-x="863" 
d="M431.73 826.44c221.26 0 385.71 -156.229 385.71 -420.72c0 -277.49 -174.57 -420.721 -385.71 -420.721c-211.21 0 -385.729 144.6 -385.729 420.72c0 270.03 174.52 420.721 385.729 420.721zM431.73 152.521c121.05 0 211.161 79.4004 211.181 253.181
c0 173.24 -91.1104 253.17 -211.181 253.17c-119.67 0 -211.18 -80.8799 -211.18 -253.17c0 -173.78 90.8701 -253.181 211.18 -253.181zM387.231 878.182h-142.82v142.82h142.82v-142.82zM619.031 878.182h-142.82v142.82h142.82v-142.82z" />
    <glyph glyph-name="Odieresis" unicode="&#xf6;" horiz-adv-x="863" 
d="M431.73 826.44c221.26 0 385.71 -156.229 385.71 -420.72c0 -277.49 -174.57 -420.721 -385.71 -420.721c-211.21 0 -385.729 144.6 -385.729 420.72c0 270.03 174.52 420.721 385.729 420.721zM431.73 152.521c121.05 0 211.161 79.4004 211.181 253.181
c0 173.24 -91.1104 253.17 -211.181 253.17c-119.67 0 -211.18 -80.8799 -211.18 -253.17c0 -173.78 90.8701 -253.181 211.18 -253.181zM387.231 878.182h-142.82v142.82h142.82v-142.82zM619.031 878.182h-142.82v142.82h142.82v-142.82z" />
    <glyph glyph-name="Uacute" unicode="&#xda;" horiz-adv-x="758" 
d="M552.847 810.467h159.114v-499.617c0 -178.754 -99.0723 -325.849 -333.043 -325.849c-230.142 0 -332.918 147.095 -332.918 325.849v499.617h158.526v-497.854h0.0888672v-5.89355c0 -127.312 94.6211 -162.319 174.071 -162.319
c79.8418 0 174.089 35.0068 174.089 162.711v5.51953h0.0712891v497.837zM543.677 1049.23l-117.591 -162.817h-136.162l117.591 162.817h136.162z" />
    <glyph glyph-name="Uacute" unicode="&#xfa;" horiz-adv-x="758" 
d="M552.847 810.467h159.114v-499.617c0 -178.754 -99.0723 -325.849 -333.043 -325.849c-230.142 0 -332.918 147.095 -332.918 325.849v499.617h158.526v-497.854h0.0888672v-5.89355c0 -127.312 94.6211 -162.319 174.071 -162.319
c79.8418 0 174.089 35.0068 174.089 162.711v5.51953h0.0712891v497.837zM543.677 1049.23l-117.591 -162.817h-136.162l117.591 162.817h136.162z" />
    <glyph glyph-name="Udieresis" unicode="&#xdc;" horiz-adv-x="758" 
d="M552.85 810.47h159.109v-499.62c0 -178.75 -99.0703 -325.85 -333.04 -325.85c-230.14 0 -332.92 147.1 -332.92 325.85v499.62h158.54v-497.86h0.0800781v-5.88965c0 -127.31 94.6299 -162.319 174.08 -162.319c79.8496 0 174.08 35.0098 174.08 162.71v5.51953
h0.0703125v497.84zM334.489 883.93h-142.82v142.83h142.82v-142.83zM566.289 883.93h-142.82v142.83h142.82v-142.83z" />
    <glyph glyph-name="Udieresis" unicode="&#xfc;" horiz-adv-x="758" 
d="M552.85 810.47h159.109v-499.62c0 -178.75 -99.0703 -325.85 -333.04 -325.85c-230.14 0 -332.92 147.1 -332.92 325.85v499.62h158.54v-497.86h0.0800781v-5.88965c0 -127.31 94.6299 -162.319 174.08 -162.319c79.8496 0 174.08 35.0098 174.08 162.71v5.51953
h0.0703125v497.84zM334.489 883.93h-142.82v142.83h142.82v-142.83zM566.289 883.93h-142.82v142.83h142.82v-142.83z" />
    <glyph glyph-name="Aogonek" unicode="&#x104;" horiz-adv-x="749" 
d="M621.03 -71.2197c0 -64.5996 148.899 -27.4404 148.919 -27.4502v-85.5801s-237.93 -53.4004 -237.93 103.63c0 45.4102 19.46 79.4502 45.96 104.86l-53.6904 142.68h-298.25l-62.8701 -167.31h-170.17l297.04 809.37h188.03l279.32 -809.35h-10.6797
c-28.4697 -0.980469 -125.68 -8.78027 -125.68 -70.8506zM281.989 316.01h186.13l-92.9697 246.49z" />
    <glyph glyph-name="Aogonek" unicode="&#x105;" horiz-adv-x="749" 
d="M621.03 -71.2197c0 -64.5996 148.899 -27.4404 148.919 -27.4502v-85.5801s-237.93 -53.4004 -237.93 103.63c0 45.4102 19.46 79.4502 45.96 104.86l-53.6904 142.68h-298.25l-62.8701 -167.31h-170.17l297.04 809.37h188.03l279.32 -809.35h-10.6797
c-28.4697 -0.980469 -125.68 -8.78027 -125.68 -70.8506zM281.989 316.01h186.13l-92.9697 246.49z" />
    <glyph glyph-name="Cacute" unicode="&#x106;" horiz-adv-x="792" 
d="M564.95 1040.63l-117.609 -162.82h-136.16l117.6 162.82h136.17zM601.311 326.13l182.899 -0.000976562c-30.3398 -225.21 -190.56 -341.13 -380.479 -341.13c-211.21 0 -385.729 144.6 -385.729 420.72c0 270.03 174.52 420.721 385.729 420.74
c190.86 0 339.17 -116.45 376.4 -318.16h-186.48c-21.2803 100.98 -96.8301 150.601 -189.92 150.601c-119.67 0 -211.18 -80.8896 -211.18 -253.18c0 -173.79 90.8701 -253.18 211.18 -253.18c100.68 0 184.35 56.0098 197.58 173.59z" />
    <glyph glyph-name="Cacute" unicode="&#x107;" horiz-adv-x="792" 
d="M564.95 1040.63l-117.609 -162.82h-136.16l117.6 162.82h136.17zM601.311 326.13l182.899 -0.000976562c-30.3398 -225.21 -190.56 -341.13 -380.479 -341.13c-211.21 0 -385.729 144.6 -385.729 420.72c0 270.03 174.52 420.721 385.729 420.74
c190.86 0 339.17 -116.45 376.4 -318.16h-186.48c-21.2803 100.98 -96.8301 150.601 -189.92 150.601c-119.67 0 -211.18 -80.8896 -211.18 -253.18c0 -173.79 90.8701 -253.18 211.18 -253.18c100.68 0 184.35 56.0098 197.58 173.59z" />
    <glyph glyph-name="Ccaron" unicode="&#x10c;" horiz-adv-x="858" 
d="M629.287 326.127l182.903 0.000976562c-30.3418 -225.21 -190.56 -341.127 -380.478 -341.127c-211.196 0 -385.713 144.603 -385.713 420.72c0 270.027 174.517 420.719 385.713 420.736c190.862 0 339.168 -116.451 376.4 -318.157h-186.481
c-21.2783 100.978 -96.8291 150.603 -189.919 150.603c-119.674 0 -211.179 -80.8926 -211.179 -253.183c0 -173.786 90.8643 -253.183 211.179 -253.183c100.675 0 184.345 56.0176 197.574 173.59zM526.12 878.131h-188.406l-99.6777 162.497h128.595l65.2949 -106.426
l65.2949 106.426h128.595z" />
    <glyph glyph-name="Ccaron" unicode="&#x10d;" horiz-adv-x="858" 
d="M629.287 326.127l182.903 0.000976562c-30.3418 -225.21 -190.56 -341.127 -380.478 -341.127c-211.196 0 -385.713 144.603 -385.713 420.72c0 270.027 174.517 420.719 385.713 420.736c190.862 0 339.168 -116.451 376.4 -318.157h-186.481
c-21.2783 100.978 -96.8291 150.603 -189.919 150.603c-119.674 0 -211.179 -80.8926 -211.179 -253.183c0 -173.786 90.8643 -253.183 211.179 -253.183c100.675 0 184.345 56.0176 197.574 173.59zM526.12 878.131h-188.406l-99.6777 162.497h128.595l65.2949 -106.426
l65.2949 106.426h128.595z" />
    <glyph glyph-name="Eogonek" unicode="&#x118;" horiz-adv-x="686" 
d="M490.615 -71.2354c0 -64.5996 148.875 -27.4219 148.893 -27.4395v-85.5752s-237.923 -53.4004 -237.923 103.63c0 31.9443 10.1494 58.4219 26.0684 80.377h-381.653v809.37h578.641v-161.874h-403.519v-144.068l336.158 -1.44238v-161.874l-336.158 1.44238v-179.68
h403.519v-161.874h-1.94043c-14.8857 -0.0712891 -132.085 -2.91992 -132.085 -70.9922z" />
    <glyph glyph-name="Eogonek" unicode="&#x119;" horiz-adv-x="686" 
d="M490.615 -71.2354c0 -64.5996 148.875 -27.4219 148.893 -27.4395v-85.5752s-237.923 -53.4004 -237.923 103.63c0 31.9443 10.1494 58.4219 26.0684 80.377h-381.653v809.37h578.641v-161.874h-403.519v-144.068l336.158 -1.44238v-161.874l-336.158 1.44238v-179.68
h403.519v-161.874h-1.94043c-14.8857 -0.0712891 -132.085 -2.91992 -132.085 -70.9922z" />
    <glyph glyph-name="Lslash" unicode="&#x141;" horiz-adv-x="694" 
d="M302.52 161.87h394.95v-161.87h-574.63v321.47l-117.84 -51.6396v149.04l117.84 51.6299v338.87h179.68v-260.11l212.96 93.3398l-0.0400391 -149.05l-212.92 -93.3301v-238.35z" />
    <glyph glyph-name="Lslash" unicode="&#x142;" horiz-adv-x="694" 
d="M302.52 161.87h394.95v-161.87h-574.63v321.47l-117.84 -51.6396v149.04l117.84 51.6299v338.87h179.68v-260.11l212.96 93.3398l-0.0400391 -149.05l-212.92 -93.3301v-238.35z" />
    <glyph glyph-name="Nacute" unicode="&#x143;" horiz-adv-x="825" 
d="M608.4 809.37h170.17v-809.37h-170.17l-392.23 533.24v-533.24h-170.17v809.37h170.17l392.23 -528.52v528.52zM600.28 1074.8l-140.86 -195.24h-136.16l140.86 195.24h136.16z" />
    <glyph glyph-name="Nacute" unicode="&#x144;" horiz-adv-x="825" 
d="M608.4 809.37h170.17v-809.37h-170.17l-392.23 533.24v-533.24h-170.17v809.37h170.17l392.23 -528.52v528.52zM600.28 1074.8l-140.86 -195.24h-136.16l140.86 195.24h136.16z" />
    <glyph glyph-name="Sacute" unicode="&#x15a;" horiz-adv-x="711" 
d="M397.02 484.64c129.98 -29.21 291.657 -65.3496 291.657 -227.21c0 -160.43 -120.79 -272.43 -354.43 -272.43c-194.08 0 -315.25 113.6 -315.25 258.72v15.6699h192.84v-15.6699c0 -69.7998 75.1396 -93.96 149.21 -93.96c71.4004 0 143.341 20.4199 143.341 93.96
c0 59.6504 -86 80.1309 -185.72 103.811c-127.49 30.2695 -286.32 68.0195 -286.32 218.829c0 157.41 130.7 259.08 332.8 259.08c186.25 0 316.41 -106.66 316.41 -259.08v-15.4902h-177.17v15.4902c0 61.2598 -79.7695 97.9395 -157.05 97.9395
c-51.6396 0 -128.199 -24.4102 -128.199 -83.1602c0 -56.7998 82.4404 -75.3193 177.881 -96.499zM537.377 1040.13l-117.59 -162.82h-136.16l117.59 162.82h136.16z" />
    <glyph glyph-name="Sacute" unicode="&#x15b;" horiz-adv-x="711" 
d="M397.02 484.64c129.98 -29.21 291.657 -65.3496 291.657 -227.21c0 -160.43 -120.79 -272.43 -354.43 -272.43c-194.08 0 -315.25 113.6 -315.25 258.72v15.6699h192.84v-15.6699c0 -69.7998 75.1396 -93.96 149.21 -93.96c71.4004 0 143.341 20.4199 143.341 93.96
c0 59.6504 -86 80.1309 -185.72 103.811c-127.49 30.2695 -286.32 68.0195 -286.32 218.829c0 157.41 130.7 259.08 332.8 259.08c186.25 0 316.41 -106.66 316.41 -259.08v-15.4902h-177.17v15.4902c0 61.2598 -79.7695 97.9395 -157.05 97.9395
c-51.6396 0 -128.199 -24.4102 -128.199 -83.1602c0 -56.7998 82.4404 -75.3193 177.881 -96.499zM537.377 1040.13l-117.59 -162.82h-136.16l117.59 162.82h136.16z" />
    <glyph glyph-name="Scaron" unicode="&#x160;" horiz-adv-x="762" 
d="M424.021 484.635c129.983 -29.2021 291.66 -65.3477 291.66 -227.204c0 -160.432 -120.777 -272.431 -354.409 -272.431c-194.103 0 -315.272 113.602 -315.272 258.72v15.6689h192.839v-15.6689c0 -69.7998 75.1416 -93.9629 149.215 -93.9629
c71.4023 0 143.339 20.4238 143.339 93.9629c0 59.6504 -86.0029 80.127 -185.716 103.809c-127.49 30.2705 -286.319 68.0195 -286.319 218.836c0 157.404 130.695 259.076 332.793 259.076c186.25 0 316.411 -106.657 316.411 -259.076v-15.4912h-177.169v15.4912
c0 61.2529 -79.7705 97.9336 -157.049 97.9336c-51.6377 0 -128.203 -24.4121 -128.203 -83.1543c0 -56.8008 82.4414 -75.3193 177.881 -96.5088zM469.211 877.631h-188.406l-99.6953 162.497h128.595l65.2949 -106.426l65.2949 106.426h128.612z" />
    <glyph glyph-name="Scaron" unicode="&#x161;" horiz-adv-x="762" 
d="M424.021 484.635c129.983 -29.2021 291.66 -65.3477 291.66 -227.204c0 -160.432 -120.777 -272.431 -354.409 -272.431c-194.103 0 -315.272 113.602 -315.272 258.72v15.6689h192.839v-15.6689c0 -69.7998 75.1416 -93.9629 149.215 -93.9629
c71.4023 0 143.339 20.4238 143.339 93.9629c0 59.6504 -86.0029 80.127 -185.716 103.809c-127.49 30.2705 -286.319 68.0195 -286.319 218.836c0 157.404 130.695 259.076 332.793 259.076c186.25 0 316.411 -106.657 316.411 -259.076v-15.4912h-177.169v15.4912
c0 61.2529 -79.7705 97.9336 -157.049 97.9336c-51.6377 0 -128.203 -24.4121 -128.203 -83.1543c0 -56.8008 82.4414 -75.3193 177.881 -96.5088zM469.211 877.631h-188.406l-99.6953 162.497h128.595l65.2949 -106.426l65.2949 106.426h128.612z" />
    <glyph glyph-name="Zacute" unicode="&#x179;" horiz-adv-x="717" 
d="M699.11 647.48l-471.52 -485.61h471.52v-161.87h-682.11v161.87l465.55 485.61h-465.55v161.87h682.11v-161.87zM545.251 1072.08l-140.86 -195.24h-136.17l140.87 195.24h136.16z" />
    <glyph glyph-name="Zacute" unicode="&#x17a;" horiz-adv-x="717" 
d="M699.11 647.48l-471.52 -485.61h471.52v-161.87h-682.11v161.87l465.55 485.61h-465.55v161.87h682.11v-161.87zM545.251 1072.08l-140.86 -195.24h-136.17l140.87 195.24h136.16z" />
    <glyph glyph-name="Zdot" unicode="&#x17b;" horiz-adv-x="718" 
d="M699.14 647.5l-471.539 -485.63h471.52v-161.87h-682.11v161.87l465.55 485.63h-465.55v161.87h682.11v-161.86zM429.49 876.66h-142.83v142.82h142.83v-142.82z" />
    <glyph glyph-name="Zdot" unicode="&#x17c;" horiz-adv-x="718" 
d="M699.14 647.5l-471.539 -485.63h471.52v-161.87h-682.11v161.87l465.55 485.63h-465.55v161.87h682.11v-161.86zM429.49 876.66h-142.83v142.82h142.83v-142.82z" />
    <glyph glyph-name="Zcaron" unicode="&#x17d;" horiz-adv-x="774" 
d="M728.11 647.479l-471.52 -485.604h471.52v-161.874h-682.11v161.874l465.555 485.604h-465.555v161.874h682.11v-161.874zM497.256 877.086h-188.406l-99.6953 162.497h128.595l65.2949 -106.426l65.2949 106.426h128.595z" />
    <glyph glyph-name="Zcaron" unicode="&#x17e;" horiz-adv-x="774" 
d="M728.11 647.479l-471.52 -485.604h471.52v-161.874h-682.11v161.874l465.555 485.604h-465.555v161.874h682.11v-161.874zM497.256 877.086h-188.406l-99.6953 162.497h128.595l65.2949 -106.426l65.2949 106.426h128.595z" />
    <glyph glyph-name="Iocyrillic" unicode="&#x401;" horiz-adv-x="641" 
d="M277.02 876.84h-142.83v142.82h142.83v-142.82zM508.81 876.84h-142.82v142.82h142.82v-142.82zM624.659 647.5h-403.52v-144.07l336.16 -1.44043v-161.88l-336.16 1.44043v-179.68h403.52v-161.87h-578.64v809.37h578.64v-161.87z" />
    <glyph glyph-name="Iocyrillic" unicode="&#x451;" horiz-adv-x="641" 
d="M277.02 876.84h-142.83v142.82h142.83v-142.82zM508.81 876.84h-142.82v142.82h142.82v-142.82zM624.659 647.5h-403.52v-144.07l336.16 -1.44043v-161.88l-336.16 1.44043v-179.68h403.52v-161.87h-578.64v809.37h578.64v-161.87z" />
    <glyph glyph-name="Ecyrillic" unicode="&#x404;" horiz-adv-x="792" 
d="M600.81 326.13l178.38 0.000976562c-30.3398 -225.21 -190.56 -341.13 -380.479 -341.13c-211.19 0 -385.71 144.6 -385.71 420.72c0 270.03 174.52 420.721 385.71 420.721c190.86 0 339.17 -116.45 376.4 -318.141h-181.99
c-22.5303 98.7695 -101.32 150.6 -194.41 150.6c-98.75 0 -178.16 -55.25 -202.97 -171.33h259.56v-135.93h-264.33c17.2197 -136.12 100.75 -199.101 207.74 -199.101c100.68 0 185.08 55.1602 202.1 173.59z" />
    <glyph glyph-name="Ecyrillic" unicode="&#x454;" horiz-adv-x="792" 
d="M600.81 326.13l178.38 0.000976562c-30.3398 -225.21 -190.56 -341.13 -380.479 -341.13c-211.19 0 -385.71 144.6 -385.71 420.72c0 270.03 174.52 420.721 385.71 420.721c190.86 0 339.17 -116.45 376.4 -318.141h-181.99
c-22.5303 98.7695 -101.32 150.6 -194.41 150.6c-98.75 0 -178.16 -55.25 -202.97 -171.33h259.56v-135.93h-264.33c17.2197 -136.12 100.75 -199.101 207.74 -199.101c100.68 0 185.08 55.1602 202.1 173.59z" />
    <glyph glyph-name="Icyrillic" unicode="&#x406;" horiz-adv-x="272" 
d="M225.68 0h-179.68v809.37h179.68v-809.37z" />
    <glyph glyph-name="Icyrillic" unicode="&#x456;" horiz-adv-x="272" 
d="M225.68 0h-179.68v809.37h179.68v-809.37z" />
    <glyph glyph-name="Yicyrillic" unicode="&#x407;" horiz-adv-x="267" 
d="M211.24 0h-163.71v809.37h163.71v-809.37zM85.1504 876.57h-142.82v142.82h142.82v-142.82zM316.69 876.57h-142.83v142.82h142.83v-142.82z" />
    <glyph glyph-name="Yicyrillic" unicode="&#x457;" horiz-adv-x="267" 
d="M211.24 0h-163.71v809.37h163.71v-809.37zM85.1504 876.57h-142.82v142.82h142.82v-142.82zM316.69 876.57h-142.83v142.82h142.83v-142.82z" />
    <glyph glyph-name="Acyrillic" unicode="&#x410;" horiz-adv-x="751" 
d="M587.24 0l-62.959 167.3h-298.24l-62.8701 -167.3h-170.17l297.02 809.37h188.05l279.34 -809.37h-170.17zM282.012 316.39h186.12l-92.96 246.49z" />
    <glyph glyph-name="Acyrillic" unicode="&#x430;" horiz-adv-x="751" 
d="M587.24 0l-62.959 167.3h-298.24l-62.8701 -167.3h-170.17l297.02 809.37h188.05l279.34 -809.37h-170.17zM282.012 316.39h186.12l-92.96 246.49z" />
    <glyph glyph-name="Becyrillic" unicode="&#x411;" horiz-adv-x="718" 
d="M381.07 483.82c242.63 0 322.431 -110.7 322.411 -246.11c0 -210.59 -192.46 -237.71 -362.4 -237.71h-295.08v809.37h590.75v-161.87h-411.07v-163.68h155.39zM534.081 240.521l-0.0205078 22.1201c0 52.8496 -51.3496 95.6992 -131.319 95.6992h-174.69v-213.56h174.67
c79.29 0 131.36 42.8799 131.36 95.7402z" />
    <glyph glyph-name="Becyrillic" unicode="&#x431;" horiz-adv-x="718" 
d="M381.07 483.82c242.63 0 322.431 -110.7 322.411 -246.11c0 -210.59 -192.46 -237.71 -362.4 -237.71h-295.08v809.37h590.75v-161.87h-411.07v-163.68h155.39zM534.081 240.521l-0.0205078 22.1201c0 52.8496 -51.3496 95.6992 -131.319 95.6992h-174.69v-213.56h174.67
c79.29 0 131.36 42.8799 131.36 95.7402z" />
    <glyph glyph-name="Vecyrillic" unicode="&#x412;" horiz-adv-x="710" 
d="M46 809.37l337.351 -0.0195312c149.55 -0.0195312 252.78 -118.89 252.78 -236.62c0 -100.53 -67.9902 -168.891 -94.6807 -168.891c76.5303 0 154.32 -82.1396 154.32 -186.8c0 -109.58 -86.5303 -217.04 -234.86 -217.04h-414.91v809.37zM225.681 652.32v-169.119
h173.04c45.71 0 83.1201 38.8496 83.1201 84.5596c0 45.0996 -39.0703 84.5596 -81.9805 84.5596h-174.18zM449.631 157.142c46.0098 0 83.3096 37.2998 83.3291 83.3096c0 47.1504 -38.5898 85.7207 -85.7197 85.7207h-221.56v-169.03h223.95z" />
    <glyph glyph-name="Vecyrillic" unicode="&#x432;" horiz-adv-x="710" 
d="M46 809.37l337.351 -0.0195312c149.55 -0.0195312 252.78 -118.89 252.78 -236.62c0 -100.53 -67.9902 -168.891 -94.6807 -168.891c76.5303 0 154.32 -82.1396 154.32 -186.8c0 -109.58 -86.5303 -217.04 -234.86 -217.04h-414.91v809.37zM225.681 652.32v-169.119
h173.04c45.71 0 83.1201 38.8496 83.1201 84.5596c0 45.0996 -39.0703 84.5596 -81.9805 84.5596h-174.18zM449.631 157.142c46.0098 0 83.3096 37.2998 83.3291 83.3096c0 47.1504 -38.5898 85.7207 -85.7197 85.7207h-221.56v-169.03h223.95z" />
    <glyph glyph-name="Gecyrillic" unicode="&#x413;" horiz-adv-x="617" 
d="M218.88 0h-172.881v809.37h574.65v-161.87h-401.77v-647.5z" />
    <glyph glyph-name="Gecyrillic" unicode="&#x433;" horiz-adv-x="617" 
d="M218.88 0h-172.881v809.37h574.65v-161.87h-401.77v-647.5z" />
    <glyph glyph-name="Decyrillic" unicode="&#x414;" horiz-adv-x="871" 
d="M563.155 162.068l-0.000976562 485.142h-193.052v-100.034c0 -177.045 -38.0156 -299.087 -79.0225 -385.107h272.075zM743.208 162.068h125.052v-324.068h-161.055v162.052h-550.15v-162.052h-161.055v324.086c103.025 0 179.057 0 96.0273 0
c70.0127 0 120.029 195.047 120.029 414.113v233.062h531.151v-647.193z" />
    <glyph glyph-name="Decyrillic" unicode="&#x434;" horiz-adv-x="871" 
d="M563.155 162.068l-0.000976562 485.142h-193.052v-100.034c0 -177.045 -38.0156 -299.087 -79.0225 -385.107h272.075zM743.208 162.068h125.052v-324.068h-161.055v162.052h-550.15v-162.052h-161.055v324.086c103.025 0 179.057 0 96.0273 0
c70.0127 0 120.029 195.047 120.029 414.113v233.062h531.151v-647.193z" />
    <glyph glyph-name="Iecyrillic" unicode="&#x415;" horiz-adv-x="640" 
d="M46 809.37h578.66v-161.87h-403.54v-144.07l336.16 -1.44043v-161.88l-336.16 1.44043v-179.68h403.54v-161.87h-578.66v809.37z" />
    <glyph glyph-name="Iecyrillic" unicode="&#x435;" horiz-adv-x="640" 
d="M46 809.37h578.66v-161.87h-403.54v-144.07l336.16 -1.44043v-161.88l-336.16 1.44043v-179.68h403.54v-161.87h-578.66v809.37z" />
    <glyph glyph-name="Zhecyrillic" unicode="&#x416;" horiz-adv-x="1035" 
d="M1029.51 809.37l-195.76 -391.21l192.77 -418.16h-189.49l-170.31 349.69h-68.6396v-349.69h-163.94v349.69h-67.8496l-170.31 -349.69h-189.86l192.71 418.16l-195.83 391.21h197.49l165.68 -323.75h67.9697v323.75h163.94v-323.75h68.8896l165.06 323.75h197.48z" />
    <glyph glyph-name="Zhecyrillic" unicode="&#x436;" horiz-adv-x="1035" 
d="M1029.51 809.37l-195.76 -391.21l192.77 -418.16h-189.49l-170.31 349.69h-68.6396v-349.69h-163.94v349.69h-67.8496l-170.31 -349.69h-189.86l192.71 418.16l-195.83 391.21h197.49l165.68 -323.75h67.9697v323.75h163.94v-323.75h68.8896l165.06 323.75h197.48z" />
    <glyph glyph-name="Zecyrillic" unicode="&#x417;" horiz-adv-x="690" 
d="M558.43 424.49c69.6201 -43.1699 109.159 -105.65 109.159 -178.051c0 -158.82 -125.22 -261.44 -318.989 -261.44c-178.66 0 -337.601 107.49 -337.601 261.44v15.7305h169.76v-15.7305c-1.13965 -72.1396 90.9004 -101.81 159.511 -101.29
c73.3604 0.549805 149.92 44.2295 147.93 99.9795c-2.44043 68.1602 -37.5508 106.57 -185.841 106.57v135.04c121.99 3.67969 169.141 44.3701 169.141 93.1602c0 51.7197 -73.9697 83.9199 -123.06 83.9199c-74.0195 0 -133.529 -36.9297 -133.529 -98.7393v-15.7197
h-169.76v15.7197c0 153.95 107.71 261.45 286.39 261.45c193.77 0 318.979 -102.62 318.979 -261.45c0 -56.6602 -35.5195 -104.47 -92.0898 -140.59z" />
    <glyph glyph-name="Zecyrillic" unicode="&#x437;" horiz-adv-x="690" 
d="M558.43 424.49c69.6201 -43.1699 109.159 -105.65 109.159 -178.051c0 -158.82 -125.22 -261.44 -318.989 -261.44c-178.66 0 -337.601 107.49 -337.601 261.44v15.7305h169.76v-15.7305c-1.13965 -72.1396 90.9004 -101.81 159.511 -101.29
c73.3604 0.549805 149.92 44.2295 147.93 99.9795c-2.44043 68.1602 -37.5508 106.57 -185.841 106.57v135.04c121.99 3.67969 169.141 44.3701 169.141 93.1602c0 51.7197 -73.9697 83.9199 -123.06 83.9199c-74.0195 0 -133.529 -36.9297 -133.529 -98.7393v-15.7197
h-169.76v15.7197c0 153.95 107.71 261.45 286.39 261.45c193.77 0 318.979 -102.62 318.979 -261.45c0 -56.6602 -35.5195 -104.47 -92.0898 -140.59z" />
    <glyph glyph-name="Iicyrillic" unicode="&#x418;" horiz-adv-x="825" 
d="M46 809.37h170.17v-528.5l392.23 528.5h170.17v-809.37h-170.17v533.25l-392.23 -533.25h-170.17v809.37z" />
    <glyph glyph-name="Iicyrillic" unicode="&#x438;" horiz-adv-x="825" 
d="M46 809.37h170.17v-528.5l392.23 528.5h170.17v-809.37h-170.17v533.25l-392.23 -533.25h-170.17v809.37z" />
    <glyph glyph-name="Iishortcyrillic" unicode="&#x419;" horiz-adv-x="826" 
d="M608.4 809.37h170.17v-809.37h-170.17v533.25l-392.23 -533.25h-170.17v809.37h170.17v-528.5zM412.29 825.48c-95.7803 0 -180.202 68.5703 -180.202 176.641l-0.179688 4.4502h101.32v-4.26953c0 -51.1201 40.1104 -77.8105 79.0605 -77.8105
c38.7197 0 79.0498 26.6904 79.0498 77.8105v4.26953h101.32v-4.4502c0 -108.07 -84.5596 -176.641 -180.369 -176.641z" />
    <glyph glyph-name="Iishortcyrillic" unicode="&#x439;" horiz-adv-x="826" 
d="M608.4 809.37h170.17v-809.37h-170.17v533.25l-392.23 -533.25h-170.17v809.37h170.17v-528.5zM412.29 825.48c-95.7803 0 -180.202 68.5703 -180.202 176.641l-0.179688 4.4502h101.32v-4.26953c0 -51.1201 40.1104 -77.8105 79.0605 -77.8105
c38.7197 0 79.0498 26.6904 79.0498 77.8105v4.26953h101.32v-4.4502c0 -108.07 -84.5596 -176.641 -180.369 -176.641z" />
    <glyph glyph-name="Kacyrillic" unicode="&#x41a;" horiz-adv-x="747" 
d="M558.62 0l-254.42 354.66l-88.0303 -95.7998v-258.86h-170.17v809.37h170.17v-336.02l308.7 336.02h197.22l-303.2 -329.93l339.19 -479.4z" />
    <glyph glyph-name="Kacyrillic" unicode="&#x43a;" horiz-adv-x="747" 
d="M558.62 0l-254.42 354.66l-88.0303 -95.7998v-258.86h-170.17v809.37h170.17v-336.02l308.7 336.02h197.22l-303.2 -329.93l339.19 -479.4z" />
    <glyph glyph-name="Elcyrillic" unicode="&#x41b;" horiz-adv-x="736" 
d="M163.693 809.446l524.064 0.00195312v-807.571h-176.688v646.854h-197.646v-183.687c0 -133.759 0 -397.287 -168.693 -456.189c-36.9297 -12.9629 -85.8428 -8.97461 -149.73 -4.98633v159.72c46.9189 -3.98828 80.8574 -0.99707 103.81 11.9834
c63.8877 34.9355 64.8848 249.551 64.8848 328.413v305.461z" />
    <glyph glyph-name="Elcyrillic" unicode="&#x43b;" horiz-adv-x="736" 
d="M163.693 809.446l524.064 0.00195312v-807.571h-176.688v646.854h-197.646v-183.687c0 -133.759 0 -397.287 -168.693 -456.189c-36.9297 -12.9629 -85.8428 -8.97461 -149.73 -4.98633v159.72c46.9189 -3.98828 80.8574 -0.99707 103.81 11.9834
c63.8877 34.9355 64.8848 249.551 64.8848 328.413v305.461z" />
    <glyph glyph-name="Emcyrillic" unicode="&#x41c;" horiz-adv-x="929" 
d="M694.76 809.37h187.839v-809.37h-170.18v463.68l-180.71 -463.68h-134.65l-180.89 464.13v-464.13h-170.17v809.37h187.98l230.41 -636.85z" />
    <glyph glyph-name="Emcyrillic" unicode="&#x43c;" horiz-adv-x="929" 
d="M694.76 809.37h187.839v-809.37h-170.18v463.68l-180.71 -463.68h-134.65l-180.89 464.13v-464.13h-170.17v809.37h187.98l230.41 -636.85z" />
    <glyph glyph-name="Encyrillic" unicode="&#x41d;" horiz-adv-x="794" 
d="M225.68 809.37v-305.94h341.29v305.94h179.68v-809.37h-179.68v341.55h-341.29v-341.55h-179.68v809.37h179.68z" />
    <glyph glyph-name="Encyrillic" unicode="&#x43d;" horiz-adv-x="794" 
d="M225.68 809.37v-305.94h341.29v305.94h179.68v-809.37h-179.68v341.55h-341.29v-341.55h-179.68v809.37h179.68z" />
    <glyph glyph-name="Ocyrillic" unicode="&#x41e;" horiz-adv-x="808" 
d="M403.71 826.44c221.28 0 385.72 -156.229 385.72 -420.72c0 -277.49 -174.56 -420.721 -385.72 -420.721c-211.19 0 -385.71 144.6 -385.71 420.72c0 270.03 174.52 420.721 385.71 420.721zM403.709 152.541c121.07 0 211.181 79.3799 211.181 253.18
c0 173.23 -91.1104 253.16 -211.181 253.16c-119.67 0 -211.18 -80.8701 -211.18 -253.16c0 -173.79 90.8701 -253.18 211.18 -253.18z" />
    <glyph glyph-name="Ocyrillic" unicode="&#x43e;" horiz-adv-x="808" 
d="M403.71 826.44c221.28 0 385.72 -156.229 385.72 -420.72c0 -277.49 -174.56 -420.721 -385.72 -420.721c-211.19 0 -385.71 144.6 -385.71 420.72c0 270.03 174.52 420.721 385.71 420.721zM403.709 152.541c121.07 0 211.181 79.3799 211.181 253.18
c0 173.23 -91.1104 253.16 -211.181 253.16c-119.67 0 -211.18 -80.8701 -211.18 -253.16c0 -173.79 90.8701 -253.18 211.18 -253.18z" />
    <glyph glyph-name="Pecyrillic" unicode="&#x41f;" horiz-adv-x="776" 
d="M46 809.37h683.109v-809.37h-179.68v647.5h-323.75v-647.5h-179.68v809.37z" />
    <glyph glyph-name="Pecyrillic" unicode="&#x43f;" horiz-adv-x="776" 
d="M46 809.37h683.109v-809.37h-179.68v647.5h-323.75v-647.5h-179.68v809.37z" />
    <glyph glyph-name="Ercyrillic" unicode="&#x420;" horiz-adv-x="694" 
d="M420.3 809.35c174.78 0 265.98 -133.72 265.98 -261.18c0 -166.82 -125.53 -257.29 -258.36 -257.29h-202.24v-290.88h-179.68v809.35h119.73h254.569zM416.6 447.8c64.6504 0 112.94 38.2803 112.94 100.641c0 62.3896 -50.5703 103.77 -112.94 103.77h-190.92v-204.41
h190.92z" />
    <glyph glyph-name="Ercyrillic" unicode="&#x440;" horiz-adv-x="694" 
d="M420.3 809.35c174.78 0 265.98 -133.72 265.98 -261.18c0 -166.82 -125.53 -257.29 -258.36 -257.29h-202.24v-290.88h-179.68v809.35h119.73h254.569zM416.6 447.8c64.6504 0 112.94 38.2803 112.94 100.641c0 62.3896 -50.5703 103.77 -112.94 103.77h-190.92v-204.41
h190.92z" />
    <glyph glyph-name="Escyrillic" unicode="&#x421;" horiz-adv-x="797" 
d="M601.29 326.13l182.899 -0.000976562c-30.3398 -225.21 -190.56 -341.13 -380.479 -341.13c-211.19 0 -385.71 144.6 -385.71 420.72c0 270.03 174.52 420.721 385.71 420.721c190.86 0 339.17 -116.45 376.4 -318.141h-186.48
c-21.2803 100.98 -96.8301 150.601 -189.92 150.601c-119.67 0 -211.18 -80.8896 -211.18 -253.18c0 -173.79 90.8701 -253.18 211.18 -253.18c100.68 0 184.35 56.0098 197.58 173.59z" />
    <glyph glyph-name="Escyrillic" unicode="&#x441;" horiz-adv-x="797" 
d="M601.29 326.13l182.899 -0.000976562c-30.3398 -225.21 -190.56 -341.13 -380.479 -341.13c-211.19 0 -385.71 144.6 -385.71 420.72c0 270.03 174.52 420.721 385.71 420.721c190.86 0 339.17 -116.45 376.4 -318.141h-186.48
c-21.2803 100.98 -96.8301 150.601 -189.92 150.601c-119.67 0 -211.18 -80.8896 -211.18 -253.18c0 -173.79 90.8701 -253.18 211.18 -253.18c100.68 0 184.35 56.0098 197.58 173.59z" />
    <glyph glyph-name="Tecyrillic" unicode="&#x422;" horiz-adv-x="776" 
d="M15.1104 809.37h743.84v-161.87h-281.97v-647.5h-179.68v647.5h-282.19v161.87z" />
    <glyph glyph-name="Tecyrillic" unicode="&#x442;" horiz-adv-x="776" 
d="M15.1104 809.37h743.84v-161.87h-281.97v-647.5h-179.68v647.5h-282.19v161.87z" />
    <glyph glyph-name="Ucyrillic" unicode="&#x423;" horiz-adv-x="713" 
d="M512.46 808.8h210.081l-392.73 -808.8h-202.47l117.39 259.33l-254.73 549.47h209.08l147.86 -353.15z" />
    <glyph glyph-name="Ucyrillic" unicode="&#x443;" horiz-adv-x="713" 
d="M512.46 808.8h210.081l-392.73 -808.8h-202.47l117.39 259.33l-254.73 549.47h209.08l147.86 -353.15z" />
    <glyph glyph-name="Efcyrillic" unicode="&#x424;" horiz-adv-x="870" 
d="M518.716 721.854c182.333 -25.8184 342.23 -128.024 342.23 -321.041c0 -196.222 -162.248 -300.351 -342.23 -309.414v-91.3984h-166.485v91.5225c-129.983 13.3545 -342.23 71.7578 -342.23 310.714c0 144.763 91.5225 298.606 342.23 322.822v84.4004h166.485
v-87.6055zM192.333 400.812c0 -125.354 71.7578 -159.542 159.897 -168.267v336.532c-87.9609 -8.72461 -159.897 -42.9121 -159.897 -168.266zM518.716 234.326c78.7021 11.04 159.185 47.3643 159.185 167.91c0 115.738 -71.7578 153.131 -159.185 164.705v-332.615z" />
    <glyph glyph-name="Efcyrillic" unicode="&#x444;" horiz-adv-x="870" 
d="M518.716 721.854c182.333 -25.8184 342.23 -128.024 342.23 -321.041c0 -196.222 -162.248 -300.351 -342.23 -309.414v-91.3984h-166.485v91.5225c-129.983 13.3545 -342.23 71.7578 -342.23 310.714c0 144.763 91.5225 298.606 342.23 322.822v84.4004h166.485
v-87.6055zM192.333 400.812c0 -125.354 71.7578 -159.542 159.897 -168.267v336.532c-87.9609 -8.72461 -159.897 -42.9121 -159.897 -168.266zM518.716 234.326c78.7021 11.04 159.185 47.3643 159.185 167.91c0 115.738 -71.7578 153.131 -159.185 164.705v-332.615z" />
    <glyph glyph-name="Khacyrillic" unicode="&#x425;" horiz-adv-x="810" 
d="M814.32 809.37l-281.21 -404.68l281.21 -404.69h-223.59l-169.4 243.82l-169.41 -243.82h-223.59l281.21 404.69l-281.21 404.68h223.59l169.41 -243.8l169.4 243.8h223.59z" />
    <glyph glyph-name="Khacyrillic" unicode="&#x445;" horiz-adv-x="810" 
d="M814.32 809.37l-281.21 -404.68l281.21 -404.69h-223.59l-169.4 243.82l-169.41 -243.82h-223.59l281.21 404.69l-281.21 404.68h223.59l169.41 -243.8l169.4 243.8h223.59z" />
    <glyph glyph-name="Tsecyrillic" unicode="&#x426;" horiz-adv-x="839" 
d="M711.3 161.74h125.751v-323.73h-161.36v161.86h-629.69v809.36h168.71v-647.49h327.88v647.49h168.71v-647.49z" />
    <glyph glyph-name="Tsecyrillic" unicode="&#x446;" horiz-adv-x="839" 
d="M711.3 161.74h125.751v-323.73h-161.36v161.86h-629.69v809.36h168.71v-647.49h327.88v647.49h168.71v-647.49z" />
    <glyph glyph-name="Checyrillic" unicode="&#x427;" horiz-adv-x="662" 
d="M435.51 809.37l179.681 0.000976562v-809.37h-179.68v366.02c-63.8496 -42.2695 -165.109 -42.2695 -165.109 -42.2695c-147.5 0 -258.4 83.9697 -258.4 231.479v254.14h164.35v-234.72c0 -68.8398 57.8096 -98.7695 124.869 -98.7695
c65.9902 0 134.29 30.4297 134.29 98.8594v234.63z" />
    <glyph glyph-name="Checyrillic" unicode="&#x447;" horiz-adv-x="662" 
d="M435.51 809.37l179.681 0.000976562v-809.37h-179.68v366.02c-63.8496 -42.2695 -165.109 -42.2695 -165.109 -42.2695c-147.5 0 -258.4 83.9697 -258.4 231.479v254.14h164.35v-234.72c0 -68.8398 57.8096 -98.7695 124.869 -98.7695
c65.9902 0 134.29 30.4297 134.29 98.8594v234.63z" />
    <glyph glyph-name="Shacyrillic" unicode="&#x428;" horiz-adv-x="1064" 
d="M848.53 809.37h168.69v-809.37h-971.22v809.37h168.71v-647.5h232.54v647.5h168.72v-647.5h232.56v647.5z" />
    <glyph glyph-name="Shacyrillic" unicode="&#x448;" horiz-adv-x="1064" 
d="M848.53 809.37h168.69v-809.37h-971.22v809.37h168.71v-647.5h232.54v647.5h168.72v-647.5h232.56v647.5z" />
    <glyph glyph-name="Shchacyrillic" unicode="&#x429;" horiz-adv-x="1145" 
d="M1017.22 161.49h124.97v-323.48h-161.38v161.86h-934.81v809.36h168.71v-647.49h232.55v647.49h168.71v-647.49h232.56v647.49h168.69v-647.74z" />
    <glyph glyph-name="Shchacyrillic" unicode="&#x449;" horiz-adv-x="1145" 
d="M1017.22 161.49h124.97v-323.48h-161.38v161.86h-934.81v809.36h168.71v-647.49h232.55v647.49h168.71v-647.49h232.56v647.49h168.69v-647.74z" />
    <glyph glyph-name="Hardsigncyrillic" unicode="&#x42a;" horiz-adv-x="794" 
d="M465.22 483.82c242.62 0 322.429 -110.7 322.409 -246.11c0 -210.59 -192.47 -237.71 -362.41 -237.71h-295.08v647.5h-130.14v161.87h309.82v-325.55h155.4zM618.219 240.521l-0.00878906 22.1201c0 52.8496 -51.3604 95.6992 -131.32 95.6992h-174.7v-213.56h174.68
c79.29 0 131.35 42.8799 131.35 95.7402z" />
    <glyph glyph-name="Hardsigncyrillic" unicode="&#x44a;" horiz-adv-x="794" 
d="M465.22 483.82c242.62 0 322.429 -110.7 322.409 -246.11c0 -210.59 -192.47 -237.71 -362.41 -237.71h-295.08v647.5h-130.14v161.87h309.82v-325.55h155.4zM618.219 240.521l-0.00878906 22.1201c0 52.8496 -51.3604 95.6992 -131.32 95.6992h-174.7v-213.56h174.68
c79.29 0 131.35 42.8799 131.35 95.7402z" />
    <glyph glyph-name="Yericyrillic" unicode="&#x42b;" horiz-adv-x="1012" 
d="M786.25 809.37h179.68v-809.37h-179.68v809.37zM381.069 483.82c242.63 0 322.431 -110.7 322.411 -246.09c0 -210.59 -192.46 -237.71 -362.4 -237.71h-295.08v809.35h179.68v-325.55h155.39zM534.08 240.521l-0.0205078 22.1201
c0 52.8496 -51.3496 95.6992 -131.319 95.6992h-174.69v-213.56h174.67c79.29 0 131.36 42.8799 131.36 95.7402z" />
    <glyph glyph-name="Yericyrillic" unicode="&#x44b;" horiz-adv-x="1012" 
d="M786.25 809.37h179.68v-809.37h-179.68v809.37zM381.069 483.82c242.63 0 322.431 -110.7 322.411 -246.09c0 -210.59 -192.46 -237.71 -362.4 -237.71h-295.08v809.35h179.68v-325.55h155.39zM534.08 240.521l-0.0205078 22.1201
c0 52.8496 -51.3496 95.6992 -131.319 95.6992h-174.69v-213.56h174.67c79.29 0 131.36 42.8799 131.36 95.7402z" />
    <glyph glyph-name="Softsigncyrillic" unicode="&#x42c;" horiz-adv-x="710" 
d="M381.07 483.81c242.63 0 322.431 -110.699 322.411 -246.1c0 -210.59 -192.46 -237.71 -362.4 -237.71h-295.08v809.35h179.68v-325.54h155.39zM534.081 240.511l-0.0205078 22.1104c0 52.8496 -51.3496 95.71 -131.319 95.71h-174.69v-213.57h174.67
c79.29 0 131.36 42.8799 131.36 95.75z" />
    <glyph glyph-name="Softsigncyrillic" unicode="&#x44c;" horiz-adv-x="710" 
d="M381.07 483.81c242.63 0 322.431 -110.699 322.411 -246.1c0 -210.59 -192.46 -237.71 -362.4 -237.71h-295.08v809.35h179.68v-325.54h155.39zM534.081 240.511l-0.0205078 22.1104c0 52.8496 -51.3496 95.71 -131.319 95.71h-174.69v-213.57h174.67
c79.29 0 131.36 42.8799 131.36 95.75z" />
    <glyph glyph-name="Ereversedcyrillic" unicode="&#x42d;" horiz-adv-x="797" 
d="M391.48 826.46c211.19 0 385.71 -150.701 385.71 -420.741c0 -276.12 -174.52 -420.72 -385.71 -420.72c-189.92 0 -350.14 115.93 -380.479 341.13h178.38c17.04 -118.43 101.42 -173.59 202.1 -173.59c106.98 0 190.521 62.9805 207.74 199.101h-264.33v135.93h259.56
c-24.79 116.08 -104.22 171.33 -202.97 171.33c-93.0898 0 -171.88 -51.8301 -194.41 -150.6h-181.99c37.2305 201.71 185.54 318.16 376.4 318.16z" />
    <glyph glyph-name="Ereversedcyrillic" unicode="&#x44d;" horiz-adv-x="797" 
d="M391.48 826.46c211.19 0 385.71 -150.701 385.71 -420.741c0 -276.12 -174.52 -420.72 -385.71 -420.72c-189.92 0 -350.14 115.93 -380.479 341.13h178.38c17.04 -118.43 101.42 -173.59 202.1 -173.59c106.98 0 190.521 62.9805 207.74 199.101h-264.33v135.93h259.56
c-24.79 116.08 -104.22 171.33 -202.97 171.33c-93.0898 0 -171.88 -51.8301 -194.41 -150.6h-181.99c37.2305 201.71 185.54 318.16 376.4 318.16z" />
    <glyph glyph-name="IUcyrillic" unicode="&#x42e;" horiz-adv-x="1119" 
d="M714.51 826.43c221.25 0 385.711 -156.229 385.691 -420.699c0 -277.49 -174.55 -420.721 -385.71 -420.721c-196.69 0 -361.48 125.46 -383.2 365.72h-105.61v-349.71h-179.68v809.37h179.68v-323.75h108.81c31.4297 218.98 190.97 339.79 380.02 339.79z
M714.511 152.511c115.79 0 211.18 79.4004 211.18 253.181c0 173.25 -91.1201 253.19 -211.18 253.19c-119.68 0 -211.18 -71.6602 -211.18 -253.19c0 -173.78 93.6396 -253.181 211.18 -253.181z" />
    <glyph glyph-name="IUcyrillic" unicode="&#x44e;" horiz-adv-x="1119" 
d="M714.51 826.43c221.25 0 385.711 -156.229 385.691 -420.699c0 -277.49 -174.55 -420.721 -385.71 -420.721c-196.69 0 -361.48 125.46 -383.2 365.72h-105.61v-349.71h-179.68v809.37h179.68v-323.75h108.81c31.4297 218.98 190.97 339.79 380.02 339.79z
M714.511 152.511c115.79 0 211.18 79.4004 211.18 253.181c0 173.25 -91.1201 253.19 -211.18 253.19c-119.68 0 -211.18 -71.6602 -211.18 -253.19c0 -173.78 93.6396 -253.181 211.18 -253.181z" />
    <glyph glyph-name="IAcyrillic" unicode="&#x42f;" horiz-adv-x="744" 
d="M4 0.230469l190.63 309.588c-95.4199 35.1904 -155.87 135.171 -155.87 239.171c0 133.25 107.3 260.82 283.819 260.82l374.48 -0.349609v-809.46h-179.64v291.54h-147.95l-160.26 -291.31h-205.21zM308.52 448.588l208.86 0.000976562v204.18h-208.86
c-62.3203 0 -112.891 -41.4902 -112.891 -103.811c0 -62.5 50.5703 -100.37 112.891 -100.37z" />
    <glyph glyph-name="IAcyrillic" unicode="&#x44f;" horiz-adv-x="744" 
d="M4 0.230469l190.63 309.588c-95.4199 35.1904 -155.87 135.171 -155.87 239.171c0 133.25 107.3 260.82 283.819 260.82l374.48 -0.349609v-809.46h-179.64v291.54h-147.95l-160.26 -291.31h-205.21zM308.52 448.588l208.86 0.000976562v204.18h-208.86
c-62.3203 0 -112.891 -41.4902 -112.891 -103.811c0 -62.5 50.5703 -100.37 112.891 -100.37z" />
    <glyph glyph-name="Gheupturncyrillic" unicode="&#x490;" horiz-adv-x="617" 
d="M477.81 952.19h142.841v-304.69h-399.99v-647.5h-174.66v809.37h431.81v142.82z" />
    <glyph glyph-name="Gheupturncyrillic" unicode="&#x491;" horiz-adv-x="617" 
d="M477.81 952.19h142.841v-304.69h-399.99v-647.5h-174.66v809.37h431.81v142.82z" />
    <glyph glyph-name="endash" unicode="&#x2013;" horiz-adv-x="603" 
d="M583.97 368h-564.97v132.64h564.97v-132.64z" />
    <glyph glyph-name="emdash" unicode="&#x2014;" horiz-adv-x="848" 
d="M828.37 368h-809.37v132.64h809.37v-132.64z" />
    <glyph glyph-name="quotedblleft" unicode="&#x201c;" horiz-adv-x="425" 
d="M26 671.77c0 97.7002 69.5098 165.149 178.399 152.76v-71.4805c-48.75 10.9502 -105.79 -8.09961 -107.18 -81.2793h91.0303v-173.77h-162.25v173.77zM304.95 717.578c-0.230469 -0.389648 -0.429688 -0.819336 -0.660156 -1.20898
c-6.16016 -11.8203 -9.91992 -26.5508 -10.2598 -44.6006h91.0303v-173.75h-162.25v173.77c0 97.7002 69.5098 165.13 178.399 152.74v-71.4805c-36.1504 8.12012 -75.25 -3.25977 -94.7998 -33.0996c-0.480469 -0.799805 -1 -1.53027 -1.45996 -2.37012z" />
    <glyph glyph-name="quotedblright" unicode="&#x201d;" horiz-adv-x="425" 
d="M236.96 808.97h162.249v-173.76c0 -97.7002 -69.5195 -165.141 -178.399 -152.74v71.4502c48.75 -10.9502 105.78 8.09961 107.17 81.29h-91.0195v173.76zM40.1494 635.21l-0.00292969 173.76h162.25v-173.76c0 -97.7002 -69.5195 -165.141 -178.399 -152.74v71.4502
c36.1504 -8.12012 75.25 3.25977 94.7998 33.1201c0.480469 0.799805 1.01074 1.53027 1.46094 2.37012c0.230469 0.389648 0.430664 0.819336 0.661133 1.20898c6.16016 11.8203 9.91992 26.5508 10.25 44.5908h-91.0195z" />
    <glyph glyph-name="quotedblbase" unicode="&#x201e;" horiz-adv-x="467" 
d="M258.959 173.975h162.249v-173.769c0 -97.7012 -69.5146 -165.133 -178.398 -152.74v71.4551c48.7529 -10.9502 102.954 13.4619 107.174 70.9756v10.3096h-91.0244v173.769zM62.1504 0.206055l0.000976562 173.769h162.248v-173.769
c0 -97.7012 -69.5146 -165.133 -178.398 -152.74v71.4551c48.7354 -10.9502 102.954 13.4619 107.174 70.9756v10.3096h-91.0244z" />
    <glyph glyph-name="bullet" unicode="&#x2022;" horiz-adv-x="352" 
d="M175.98 584.61c77.7305 0 129.859 -56.04 129.859 -139.37c0 -96.2402 -65.1699 -139.24 -129.86 -139.24c-64.8096 0 -129.979 43 -129.979 139.24c0 82 53.3604 139.37 129.98 139.37z" />
    <glyph glyph-name="Euro" unicode="&#x20ac;" horiz-adv-x="895" 
d="M693.36 295.55l179.449 0.0185547c-40.21 -205.11 -194.28 -310.57 -375.41 -310.57c-178.09 0 -330.1 102.85 -373.369 300.649h-109.03v97.6904h97.1396c-0.269531 7.37012 -0.449219 14.8105 -0.449219 22.3809s0.200195 15.0107 0.459961 22.3809h-97.1504v97.6797
h109.53c43.8701 194.21 195.4 300.66 372.87 300.66c186.09 0 331.55 -110.83 373.25 -303.271h-180c-32.1602 92.1602 -104.771 135.73 -193.251 135.73c-87.1699 0 -159.22 -43.1797 -192.02 -133.12h214.33v-97.6797h-232.72
c-0.370117 -7.34961 -0.770508 -14.6699 -0.770508 -22.3799c0 -7.73047 0.400391 -15.0303 0.75 -22.3799h232.74v-97.6904h-214.68c32.5303 -90.5596 104.5 -133.13 192.37 -133.13c91.6201 0 165.44 45.5801 195.96 143.03z" />
    <glyph glyph-name="uni20bd" unicode="&#x20bd;" horiz-adv-x="821" 
d="M508.72 809.35c174.79 0 265.99 -133.721 265.99 -261.181c0 -166.82 -125.53 -257.29 -258.37 -257.29h-202.24v-41.2197h291.47v-117.36h-291.47v-132.3h-179.68v132.3h-88.4199v117.36h88.4199v559.69h119.75h254.55zM505.04 447.799
c64.6299 0 112.92 38.2803 112.92 100.641c0 62.3896 -50.5703 103.77 -112.94 103.77h-190.92v-204.41h190.94z" />
    <glyph glyph-name="arrowleft" unicode="&#x2190;" horiz-adv-x="1120" 
d="M46.0498 366.76l-0.0507812 131.159s256.78 61.4004 256.78 281.891l124.29 0.0703125s26.8301 -134.7 -120.12 -281.82c-0.0595703 -0.0498047 -0.0898438 -0.0898438 -0.149414 -0.139648h766.8v-131.16h-766.6c147.04 -147.04 120.26 -281.76 120.26 -281.76h-124.28
c0 220.31 -256.93 281.76 -256.93 281.76z" />
    <glyph glyph-name="arrowup" unicode="&#x2191;" horiz-adv-x="787" 
d="M327.76 1027.55l131.16 0.0507812s61.3799 -256.78 281.89 -256.78l0.0703125 -124.29s-134.7 -26.8301 -281.82 120.12c-0.0498047 0.0595703 -0.0898438 0.0898438 -0.139648 0.149414v-766.8h-131.16v766.6c-147.04 -147.04 -281.76 -120.26 -281.76 -120.26v124.28
c220.31 0 281.76 256.93 281.76 256.93z" />
    <glyph glyph-name="arrowright" unicode="&#x2192;" horiz-adv-x="1120" 
d="M1073.51 498.12l0.0507812 -131.159s-256.78 -61.3799 -256.78 -281.89l-124.28 -0.0703125s-26.8301 134.7 120.12 281.811c0.0498047 0.0595703 0.0898438 0.0898438 0.139648 0.149414h-766.76v131.16h766.56c-147.04 147.04 -120.26 281.76 -120.26 281.76h124.29
c0 -220.32 256.92 -281.761 256.92 -281.761z" />
    <glyph glyph-name="arrowdown" unicode="&#x2193;" horiz-adv-x="787" 
d="M459.12 0.0703125l-131.159 -0.0703125s-61.3799 256.78 -281.89 256.78l-0.0703125 124.29s134.7 26.8496 281.811 -120.11c0.0595703 -0.0498047 0.0898438 -0.0800781 0.149414 -0.139648v766.76h131.16v-766.56c147.04 147.04 281.76 120.26 281.76 120.26v-124.29
c-220.32 0 -281.761 -256.92 -281.761 -256.92z" />
    <glyph glyph-name="quotedbl.alt1" unicode="&#xf006;" horiz-adv-x="468" 
d="M46 671.77c0 97.7002 69.5098 165.149 178.399 152.76v-71.4805c-48.75 10.9502 -105.79 -8.09961 -107.18 -81.2793h91.0303v-173.77h-162.25v173.77zM324.95 717.578c-0.230469 -0.389648 -0.429688 -0.819336 -0.660156 -1.20898
c-6.16016 -11.8203 -9.91992 -26.5508 -10.2598 -44.6006h91.0303v-173.75h-162.25v173.77c0 97.7002 69.5098 165.13 178.399 152.74v-71.4805c-36.1504 8.12012 -75.25 -3.25977 -94.7998 -33.0996c-0.480469 -0.799805 -1 -1.53027 -1.45996 -2.37012z" />
    <glyph glyph-name="E.alt1" unicode="&#xf00c;" horiz-adv-x="821" 
d="M610.811 326.127l178.38 0.000976562c-30.3418 -225.21 -190.56 -341.127 -380.478 -341.127c-211.196 0 -385.713 144.603 -385.713 420.72c0 270.027 174.517 420.719 385.713 420.719c190.862 0 339.168 -116.451 376.4 -318.14h-181.995
c-22.5244 98.7695 -101.315 150.603 -194.405 150.603c-98.752 0 -178.167 -55.252 -202.971 -171.329h259.558v-135.931h-264.329c17.2188 -136.127 100.746 -199.106 207.742 -199.106c100.675 0 185.075 55.1631 202.098 173.591z" />
    <glyph glyph-name="Eogonek.alt1" unicode="&#xf00d;" horiz-adv-x="812" 
d="M789.19 325.429c-24.2871 -180.268 -131.889 -290.306 -271.238 -327.128v-0.730469c-34.6152 -10.292 -85.7363 -21.2783 -85.4873 -68.8203c0.356445 -64.5996 148.894 -27.4209 148.894 -27.4209v-85.5752s-237.923 -53.4004 -237.923 103.63
c0 25.9258 6.60645 48.3076 17.5928 67.5557c-189.135 20.334 -338.028 163.066 -338.028 418.083c0 270.027 174.517 420.719 385.713 420.719c190.862 0 339.168 -116.451 376.4 -318.14h-182.013c-22.5068 98.7695 -101.298 150.603 -194.388 150.603
c-98.752 0 -178.167 -55.252 -202.971 -171.329h259.558v-135.931h-264.329c17.2188 -136.127 100.746 -199.106 207.742 -199.106c100.675 0 185.058 55.1631 202.098 173.591h178.38z" />
    <glyph glyph-name="Zhecyrillic.alt1" unicode="&#xf00e;" horiz-adv-x="1909" 
d="M1679.62 326.145h182.905c-30.3418 -225.21 -172.754 -341.127 -362.672 -341.127c-196.667 0 -345.917 125.515 -365.557 365.717h-99.6602v-349.709h-163.939v349.691h-96.4727c-19.6396 -240.185 -168.89 -365.717 -365.557 -365.717
c-189.918 0 -332.33 115.935 -362.672 341.127h182.902c13.2119 -117.572 79.0938 -173.59 179.769 -173.59c120.314 0 193.372 79.3965 193.372 253.183c0 172.29 -73.6992 253.183 -193.373 253.183c-93.0713 0 -150.834 -49.625 -172.112 -150.603h-186.481
c37.2324 201.706 167.732 318.157 358.595 318.157c188.975 0 333.951 -120.956 362.44 -339.791h99.5889v323.748h163.939v-323.748h102.758c28.5078 218.835 173.484 339.791 362.459 339.791c190.862 0 321.362 -116.451 358.595 -318.14h-186.481
c-21.2783 100.978 -79.0234 150.603 -172.113 150.603c-119.674 0 -193.373 -80.8926 -193.373 -253.183c0 -173.786 73.0576 -253.183 193.372 -253.183c100.675 0 166.539 56.0176 179.769 173.59z" />
    </font>
</defs>
</svg>
